<svg width="609" height="405" viewBox="0 0 609 405" fill="none" xmlns="http://www.w3.org/2000/svg">
<path d="M182.799 69.8186C186.033 78.0612 198.199 103.186 205.961 118.961V121.465V128.352C197.093 127.1 176.35 124.533 164.331 124.283C152.311 124.032 118.214 111.971 106.111 106.128L182.799 69.8186Z" fill="#CECDCD"/>
<path d="M205.961 120.839C201.266 110.719 188.308 85.031 182.799 73.2617L197.197 66.0625L220.36 120.839H205.961Z" fill="#D8D8D8"/>
<path d="M246.966 122.091C282.796 120.463 369.353 97.6766 440.407 67.9405L466.387 147.445L478.594 224.133L410.984 273.902C379.37 298.943 299.487 357.004 258.547 373.752C196.571 399.106 114.246 424.643 71 368.5C42.5 331.5 0.500005 182.468 0.500005 164C-1.50004 152.5 17.5287 109.884 39.1264 80.774C49.1428 79.2089 79.5607 93.5636 114.249 105.502C162.453 122.091 198.762 124.283 246.966 122.091Z" fill="#F1F1F1"/>
<path d="M161.514 66.6885C141.168 76.0788 114.875 86.4082 85.765 97.9896L106.111 108.945L200.014 66.6885C220.673 56.9852 254.728 28.3759 268.251 19.1108C285.153 7.52938 302.486 11.475 311.446 21.3019C321.149 31.9443 323.34 53.542 323.34 66.6885C323.34 77.2057 317.706 99.1373 316.454 108.006L330.853 103.311C331.896 100.494 334.108 91.2912 335.861 82.0261C338.052 70.4446 342.121 59.1762 333.983 30.0662C325.845 0.956142 292.978 -0.608912 279.519 0.956144C266.059 2.5212 229.628 26.761 209.717 41.0216C186.555 57.6112 181.859 57.2982 161.514 66.6885Z" fill="#E2E2E2"/>
<path d="M209.718 248.548C265.5 243.5 345.251 195.336 462.944 138.055L460.753 129.291C460.753 129.291 432.35 141.554 425.382 144.628C414.74 149.323 312.433 182.344 295.483 185.946C270.442 191.267 235.167 202.141 174.034 196.901C108.302 191.267 47.056 175.616 0 162.783L12.2074 211.3C21.5978 217.873 109.9 257.581 209.718 248.548Z" fill="#E2E2E2" fill-opacity="0.24"/>
<path d="M35.9963 200.97C25.0409 191.267 15.3376 179.06 0.313019 163.096C0.313019 171.86 7.53519 199.084 11.5 211.5L49 225.5L84.826 234.776C80 231 69.6137 225.072 65.1063 222.568C59.4721 219.438 47.6957 211.333 35.9963 200.97Z" fill="#E6E6E6"/>
<path d="M191.563 339.008C244.149 333.374 373.735 259.816 467.639 158.714C467.639 158.714 436.638 184.303 430.703 189.076C421.639 196.366 330.956 251.324 315.515 259.19C292.705 270.811 262.925 281.296 202.518 292.057C137.567 303.627 73.2446 283.292 26.2929 259.816L38.1874 292.057C48.2037 305.203 91.9082 349.686 191.563 339.008Z" fill="#E2E2E2" fill-opacity="0.51"/>
<path d="M326.158 252.93C335.423 248.673 409.239 200.675 454 170C429.481 192.432 368.226 241.787 349.947 251.052C333.231 259.524 282.681 273.691 260.296 280.075C255.537 281.804 251.901 282.981 250.096 283.292C247.659 283.712 252.081 282.418 260.296 280.075C279.472 273.109 316.879 257.193 326.158 252.93Z" fill="#E6E6E6"/>
<path d="M365.597 165.287C383.96 159.131 428.638 143.376 460.44 129.604L462.318 137.742C455.64 140.976 441.659 147.696 439.155 148.697C436.651 149.699 408.271 164.348 394.394 171.547C382.5 178.016 378.744 181.251 350.573 187.511C329.575 192.177 247.353 196.943 227.661 198.359C225.836 198.629 224.601 198.779 224.116 198.779C222.4 198.779 223.874 198.631 227.661 198.359C242.695 196.133 297.793 185.776 303.934 184.381C309.443 183.129 347.338 171.13 365.597 165.287Z" fill="#E6E6E6"/>
<path d="M56.029 290.805C45.0736 281.101 39.5245 273.464 24.5 257.5C26.5 266.5 37.9787 297.482 41.9435 309.898L84.2 325.549L104.546 333.374L123.952 337.756C120.509 333.687 92.8101 317.949 88.8952 314.593C77.9398 305.203 67.7284 301.167 56.029 290.805Z" fill="#E6E6E6"/>
<path d="M396.898 286.109C406.915 279.098 447.941 256.133 471 238.5C482.5 231.5 499.276 220.244 505.5 216C516.5 208.5 540.57 193.145 548.396 185.32C556.221 177.494 595.034 137.116 604.738 103.624C614.441 70.1316 606.929 40.3956 588.774 16.9197C573.747 -2.51134 541.997 9.22583 527.442 14.6061L527.111 14.7286C512.712 20.0498 454.805 56.0461 433.208 68.2536C411.61 80.461 299.552 115.831 246.34 118.648C199.901 121.107 159.323 117.083 151.81 115.831C144.298 114.579 117.692 107.693 84.513 94.5465C52.7206 81.9494 43.1956 77.6439 38.8134 80.774C35.3077 83.2781 26.6694 97.1178 25 101.5C26.252 99.9349 36.1788 98 41.5 98C46.8212 98 64.0674 104.564 75 108.5C87.5 113 120.547 124.571 149.5 130C189.5 137.5 252.671 131.939 263 131C279 129.545 340.777 117.199 365 110C391.777 102.042 439.232 83.3212 450.5 78C467.247 70.0916 496.436 49.7859 511.147 37.8915C525.859 25.997 550.35 20.4015 562 25C569.462 27.9455 578.38 32.2596 586.5 48.5C596.203 67.9067 591.085 106.023 583 121.5C572.045 142.472 533.5 179.379 519.5 190C512.238 195.509 498.5 206.12 487 214C481.366 217.86 469 225 458.5 231.332C451.258 235.7 423 254 371.5 290.5C363.683 296.04 286.5 347 267.5 358C253.264 366.242 187.5 392 169.5 395.5C152.21 398.862 128.095 399.187 121 399.5C122.356 400.23 146.114 404.428 152.123 404.428C159.636 404.428 172.115 403.184 180.294 402.237C196.5 400.358 256.358 375.299 273.572 366.866C308 350 384.378 294.874 396.898 286.109Z" fill="#D7D7D7"/>
<path d="M465.007 140.66C462.365 129.651 451.546 100.316 444.5 80.5L424.5 86.5C425.087 87.3807 428.282 93.7185 429.339 96.1845C430.66 99.2669 442.549 130.972 446.512 140.66C450.475 150.347 454.879 170.603 457.521 185.135C459.635 196.76 461.337 221.096 461.924 231.811C467.355 228.435 478.129 221.155 477.777 219.041C477.337 216.399 473.814 190.859 472.493 179.85C471.172 168.842 467.649 151.668 465.007 140.66Z" fill="#D8D8D8"/>
</svg>
