<svg width="125" height="125" fill="none" xmlns="http://www.w3.org/2000/svg"><path d="M66.981 69.927l-1.635-.503A4.032 4.032 0 0162.5 65.57v-4.317H38.306v4.317a4.032 4.032 0 01-2.846 3.854l-1.635.503-1.937 11.128h37.03l-1.937-11.128z" fill="#F6D190"/><path d="M83.017 74.861l-8.071-2.483L50.403 83.74 25.861 72.378 17.79 74.86a8.065 8.065 0 00-5.693 7.708v14.205a4.032 4.032 0 004.032 4.032h68.548a4.032 4.032 0 004.033-4.032V82.57c0-3.54-2.31-6.667-5.693-7.708z" fill="#DAD8DB"/><path d="M50.403 86.694c10.527 0 19.69-5.774 24.543-14.316l-7.964-2.45c-3.64 5.254-9.703 8.701-16.578 8.701-6.876 0-12.94-3.447-16.579-8.702l-7.963 2.45c4.852 8.543 14.015 14.317 24.541 14.317z" fill="#ECEAEC"/><path d="M60.484 0H44.577c-2.232 0-4.165 1.217-5.209 3.018a2.01 2.01 0 01-1.737 1.014h-1.34l1.225 30.242h37.08V14.113C74.597 6.319 68.279 0 60.485 0z" fill="#966A5B"/><path d="M26.21 14.113v20.161h14.112V8.064a4.032 4.032 0 00-4.032-4.032c-5.567 0-10.08 4.514-10.08 10.08z" fill="#785353"/><path d="M76.558 35.613c-.323-1.983-2.185-3.355-4.193-3.355h-1.8a4.032 4.032 0 01-4.033-4.032v-6.049a6.048 6.048 0 00-6.048-6.048H40.322l-4.759 25.212 14.84 6.348 20.161-7.366h2.017a4.035 4.035 0 003.977-4.71z" fill="#FFE09F"/><path d="M40.322 40.322V16.13a6.048 6.048 0 00-6.048 6.048v6.049a4.032 4.032 0 01-4.032 4.032h-1.8c-2.01 0-3.87 1.372-4.193 3.355a4.035 4.035 0 003.977 4.71h2.016l5.24 2.32 4.84-2.32z" fill="#F6D190"/><path d="M42.339 36.29a2.016 2.016 0 01-2.017-2.016v-2.016a2.016 2.016 0 114.033 0v2.016a2.015 2.015 0 01-2.016 2.016zm16.129 0a2.016 2.016 0 01-2.016-2.016v-2.016a2.016 2.016 0 114.032 0v2.016a2.016 2.016 0 01-2.016 2.016z" fill="#6E4848"/><path d="M38.306 61.253a24.047 24.047 0 0024.194 0v-6.818H38.306v6.818z" fill="#ECBD83"/><path d="M68.414 30.247c-1.071.069-1.882 1.006-1.882 2.08v6.043a1.953 1.953 0 01-1.953 1.953H40.323c-6.754 4.721-.972 19.85 10.233 19.767 1.696-.013 3.34.156 4.908-.256 8.714-2.288 15.1-10.343 15.1-19.764v-7.812a2.016 2.016 0 00-2.15-2.012z" fill="#FAF5DC"/><path d="M40.322 40.323h-4.095a1.953 1.953 0 01-1.953-1.953v-6.043c0-1.074-.81-2.011-1.882-2.08a2.016 2.016 0 00-2.15 2.011v8.064c0 11.135 9.027 20.162 20.161 20.162 1.744 0 3.447-.234 5.06-.65-8.69-2.241-15.14-10.12-15.14-19.511z" fill="#F5EBCD"/></svg>