<svg width="116" height="116" fill="none" xmlns="http://www.w3.org/2000/svg"><g clip-path="url(#clip0)"><path d="M110.562 50.75v16.313h-7.25v43.499H92.438l-1.813-19.937-1.813 19.937H77.939v-43.5h-7.25V50.75a7.25 7.25 0 017.25-7.25h25.374a7.257 7.257 0 016.988 5.306c.174.633.262 1.287.262 1.944z" fill="#4F87A6"/><path d="M110.562 50.75v16.313h-7.25v43.5H92.438l-1.813-19.938-1.813 19.938H77.939V81.014A104.102 104.102 0 00110.3 48.806c.174.633.262 1.287.262 1.944z" fill="#4F87A6"/><path d="M85.188 43.5l5.437 9.063 5.438-9.063H85.186z" fill="#E0E0DE"/><path d="M88.813 52.563h3.624v30.812h-3.624V52.562zm7.25 3.625h7.249v3.624h-7.25v-3.624zm-18.125 0h7.25v3.624h-7.25v-3.624z" fill="#5277AF"/><path d="M76.125 52.563h3.625V72.5h-3.625V52.562zm25.375 0h3.625V72.5H101.5V52.562z" fill="#5277AF"/><path d="M90.658 43.5a12.687 12.687 0 01-12.687-12.688V18.126a5.438 5.438 0 015.437-5.438h14.5a5.438 5.438 0 015.438 5.438v12.688A12.688 12.688 0 0190.658 43.5z" fill="#FEC9A3"/><path d="M90.625 38.063a5.444 5.444 0 01-5.438-5.438h3.626a1.812 1.812 0 003.624 0h3.626a5.444 5.444 0 01-5.438 5.438z" fill="#F7AD7C"/><path d="M83.375 25.375H87V29h-3.625v-3.625zm10.875 0h3.625V29H94.25v-3.625z" fill="#92563A"/><path d="M77.938 83.375h25.374V87H77.938v-3.625z" fill="#5277AF"/><path d="M101.5 58l-16.313 9.063h25.375v-5.438L101.5 58z" fill="#FEB784"/><path d="M5.438 54.375H14.5v19.938h-3.625a5.438 5.438 0 01-5.438-5.438v-14.5z" fill="#FEC093"/><path d="M24.469 5.438a15.406 15.406 0 0115.406 15.406v28.093H9.062V20.845A15.406 15.406 0 0124.47 5.437z" fill="#4D3213"/><path d="M18.158 12.688h14.5a5.438 5.438 0 015.438 5.437V29a12.687 12.687 0 01-25.375 0V18.125a5.438 5.438 0 015.437-5.438z" fill="#FEC9A3"/><path d="M9.063 27.188l2.984-.373a28.57 28.57 0 0018.766-10.503l7.25 9.063 1.812-3.625v-1.813a14.5 14.5 0 00-14.5-14.5h-2.354a13.96 13.96 0 00-13.959 13.96v7.79z" fill="#4D3213"/><path d="M14.5 99.688h10.875v10.874H14.5V99.688zm10.875 0H36.25v10.874H25.375V99.688z" fill="#FEC9A3"/><path d="M14.5 50.75l-.842.842a7.86 7.86 0 00.842 11.846v3.624h21.75v-3.624a7.86 7.86 0 00.842-11.846l-.842-.842H14.5z" fill="#685555"/><path d="M45.313 48.938v5.437H36.25v12.688H14.5V54.374H5.437v-5.438a7.25 7.25 0 017.25-7.25h25.376a7.251 7.251 0 017.25 7.25z" fill="#EEE"/><path d="M41.688 99.688H9.062l4.743-28.454.695-4.171h21.75l5.438 32.624z" fill="#F59898"/><path d="M41.688 99.688H9.062l4.743-28.454c2.019-1.31 4.007-2.7 5.963-4.171H36.25l5.438 32.624z" fill="#EEE"/><path d="M45.313 48.938v5.437H36.25v12.688H19.768a103.564 103.564 0 0022.89-23.733 7.232 7.232 0 012.654 5.608z" fill="#685555"/><path d="M43.5 88.813h-5.438A1.812 1.812 0 0136.25 87V54.375h9.063V87a1.812 1.812 0 01-1.813 1.813zM18.125 41.688l7.25 14.5 7.25-14.5h-14.5z" fill="#FEC9A3"/><path d="M18.158 23.563h3.625v3.625h-3.625v-3.625zm10.875 0h3.625v3.625h-3.625v-3.625z" fill="#92563A"/><path d="M14.5 54.375h23.563v29H14.5v-29z" fill="#9CCAC7"/><path d="M38.063 76.125H10.875a5.438 5.438 0 01-5.438-5.438v-3.624h19.938l5.438-5.438 3.625 1.813-1.813 3.624h5.438v9.063zm12.687-65.25h14.5a5.438 5.438 0 015.438 5.438V29a12.687 12.687 0 01-25.376 0V16.312a5.438 5.438 0 015.438-5.437z" fill="#FEC9A3"/><path d="M70.688 23.563L65.25 14.5l-2.638.88a22.835 22.835 0 01-16.217-.676 4.828 4.828 0 011.902-9.267h15.14a7.25 7.25 0 017.25 7.25v10.876z" fill="#C0996D"/><path d="M77.938 48.938V65.25h-7.25v16.313H45.311V65.25h-7.25V48.937a7.25 7.25 0 017.25-7.25h25.376a7.241 7.241 0 017.25 7.25z" fill="#CFCFCD"/><path d="M77.938 48.938V65.25h-7.25v16.313H45.311V72.54c11.707-6.228 22.793-14.76 32.163-26.16.307.818.464 1.684.463 2.556z" fill="#C7C7C5"/><path d="M58 34.438A5.444 5.444 0 0152.562 29h3.626a1.812 1.812 0 003.624 0h3.626A5.444 5.444 0 0158 34.438z" fill="#F7AD7C"/><path d="M50.75 21.75h3.625v3.625H50.75V21.75zm10.875 0h3.625v3.625h-3.625V21.75z" fill="#92563A"/><path d="M43.5 50.75h3.625v19.938H43.5V50.75zm25.375 0H72.5v19.938h-3.625V50.75z" fill="#B0B0AE"/><path d="M54.375 41.688l1.813 5.437-1.813 23.563L58 74.311l3.625-3.624-1.813-23.563 1.813-5.438h-7.25z" fill="#1B2125"/><path d="M70.688 110.562H59.812L58 88.812l-1.813 21.75H45.313v-29h25.374v29z" fill="#4D5E78"/><path d="M48.938 65.25H38.062v-9.063h9.063L52.563 58l-3.626 7.25zm18.125 0h10.874v-9.063h-9.062L63.437 58l3.626 7.25z" fill="#FEC9A3"/><path d="M14.5 99.688h21.75v3.624H14.5v-3.624z" fill="#FEC093"/><path d="M23.563 99.688h3.625v10.874h-3.625V99.688z" fill="#FEB784"/><path d="M45.313 81.563h25.374v3.624H45.314v-3.624z" fill="#485870"/><path d="M85.188 67.063l-5.438-3.626-9.063 3.626v9.062h34.438a5.439 5.439 0 005.437-5.438v-3.624H85.188z" fill="#FEC9A3"/><path d="M48.938 65.25l19.222 8.738c.471.214.983.325 1.5.325h4.653a3.625 3.625 0 003.624-3.626V65.25L52.564 58l-3.626 7.25z" fill="#DBDBD9"/><path d="M67.063 65.25L47.84 73.988a3.626 3.626 0 01-1.5.325h-4.653a3.625 3.625 0 01-3.624-3.626V65.25L63.436 58l3.626 7.25z" fill="#E0E0DE"/><path d="M103.5 25.5V28l-4.275 4.76c-.127.155-.342.24-.56.24a.808.808 0 01-.359-.082c-.308-.155-.399-.477-.201-.719L103.5 25.5zm-33-2V26l-4.275 4.76c-.127.155-.342.24-.56.24a.808.808 0 01-.359-.082c-.308-.155-.399-.477-.201-.719L70.5 23.5zm-32.5 2v2l-3.775 4.26c-.127.155-.342.24-.56.24a.808.808 0 01-.359-.082c-.308-.155-.399-.477-.201-.719L38 25.5zm43.734 6.414a.606.606 0 01-.799-.163L78 27v-2l3.908 6.167a.52.52 0 01-.174.747zm-33.001-2a.606.606 0 01-.798-.163L45 25v-2l3.908 6.167a.52.52 0 01-.175.747zm-32 1a.606.606 0 01-.798-.163L12.5 27.5 13 26l3.908 4.167a.52.52 0 01-.175.747z" fill="#CACADB"/><path d="M101 30.11v5.09l-3.664 5.637C96.468 42.173 94.833 43 93.06 43h-5.12c-1.773 0-3.41-.827-4.277-2.163L80 35.2v-5.09l3.949-.418L90.5 29l10.5 1.11zm-33-2v5.09l-3.664 5.637C63.468 40.173 61.833 41 60.06 41h-5.12c-1.773 0-3.41-.827-4.277-2.163L47 33.2v-5.09l3.949-.418L57.5 27 68 28.11zm-32 1v5.09l-3.664 5.637C31.468 41.173 29.833 42 28.06 42h-5.12c-1.773 0-3.41-.827-4.277-2.163L15 34.2v-5.09l3.949-.418L25.5 28 36 29.11z" fill="#E4E4EF"/><path d="M90.5 1.841v18.41h16.569v-1.84c0-9.152-7.418-16.57-16.569-16.57z" fill="#FF9441"/><path d="M90.5 1.841c-9.151 0-16.57 7.418-16.57 16.57v1.84h29.457v-1.84c0-9.152-5.77-16.57-12.887-16.57z" fill="#FFB739"/><path d="M85.897 1.309v18.943h9.206V1.308a.917.917 0 00-.72-.899A18.478 18.478 0 0090.5 0c-1.332 0-2.632.142-3.884.41a.917.917 0 00-.719.899z" fill="#FFD17E"/><path d="M107.683 19.024h-3.682v3.682h3.682a1.84 1.84 0 100-3.682z" fill="#FF7149"/><path d="M105.842 20.865a1.84 1.84 0 00-1.841-1.84H73.317a1.841 1.841 0 000 3.681H104a1.84 1.84 0 001.841-1.84z" fill="#FF9441"/><g clip-path="url(#clip1)"><path d="M39.743-.508v15.715l-2.446-.007-1.057-.003-27.044-.072V-.508A2.492 2.492 0 0111.688-3h25.564a2.492 2.492 0 012.491 2.492z" fill="#E4F4FF"/><path d="M39.743-.508v15.693l-2.446.015-1.058.007V-.507A2.492 2.492 0 0033.748-3h3.504a2.492 2.492 0 012.491 2.492z" fill="#C0EAF7"/><path d="M28.057 5.092h-2.576V2.517a1.01 1.01 0 10-2.022 0v2.575h-2.576a1.01 1.01 0 100 2.022h2.576v2.575a1.01 1.01 0 102.022 0V7.114h2.576a1.01 1.01 0 100-2.022z" fill="#F3705B"/></g></g><defs><clipPath id="clip0"><path fill="#fff" d="M0 0h116v116H0z"/></clipPath><clipPath id="clip1"><path fill="#fff" d="M-10-3h69v69h-69z"/></clipPath></defs></svg>