<svg width="90" height="90" viewBox="0 0 90 90" fill="none" xmlns="http://www.w3.org/2000/svg">
<path d="M63.4339 71.694L71.5443 63.6339L65.0699 57.119L56.9594 65.1791L63.4339 71.694Z" fill="#334A5E"/>
<path d="M63.1476 10.849C48.714 -3.58462 25.47 -3.58462 11.0363 10.6615C-3.39733 24.9077 -3.39733 48.3392 10.8488 62.7728C25.095 77.2065 48.5265 77.2065 62.9601 62.9603C77.3938 48.7142 77.394 25.2827 63.1476 10.849Z" fill="#40596B"/>
<path d="M16.4724 57.1492C5.22531 45.9021 5.22531 27.532 16.6599 16.2849C27.9069 5.03787 46.2771 5.03787 57.5241 16.4724C68.7712 27.7195 68.7712 46.0896 57.3366 57.3367C46.0896 68.5836 27.7194 68.5836 16.4724 57.1492Z" fill="#F2F2F2"/>
<path d="M54.3375 54.3375C44.7775 63.71 29.0316 63.71 19.6592 54.15C10.0992 44.59 10.0992 29.0316 19.8467 19.4716C29.5942 9.91164 44.7777 9.91164 54.3377 19.4716C63.8975 29.219 63.8975 44.7775 54.3375 54.3375Z" fill="#54C0EB"/>
<path d="M48.3389 48.3387C42.1531 54.5246 32.0307 54.5246 25.6573 48.3387C19.4714 42.1529 19.4714 32.0305 25.6573 25.6571C31.8432 19.4712 41.9656 19.4712 48.3389 25.6571C54.7123 32.0305 54.7123 42.1529 48.3389 48.3387Z" fill="#40596B"/>
<path d="M86.579 71.208L74.9571 59.5861C74.2072 58.8362 73.0825 58.8362 72.3328 59.5861L59.3987 72.5202C58.6488 73.2701 58.6488 74.3948 59.3987 75.1445L71.0206 86.7664C75.3319 91.0777 82.2677 91.0777 86.579 86.7664C90.8905 82.455 90.8905 75.5193 86.579 71.208Z" fill="#CEADA7"/>
<path d="M29.594 31.281C32.3892 31.281 34.6552 29.0151 34.6552 26.2199C34.6552 23.4247 32.3892 21.1587 29.594 21.1587C26.7988 21.1587 24.5328 23.4247 24.5328 26.2199C24.5328 29.0151 26.7988 31.281 29.594 31.281Z" fill="white"/>
<path d="M36.3423 35.7796C37.9987 35.7796 39.3415 34.4367 39.3415 32.7803C39.3415 31.1238 37.9987 29.781 36.3423 29.781C34.6858 29.781 33.343 31.1238 33.343 32.7803C33.343 34.4367 34.6858 35.7796 36.3423 35.7796Z" fill="white"/>
</svg>
