<svg width="125" height="125" viewBox="0 0 125 125" fill="none" xmlns="http://www.w3.org/2000/svg">
<path d="M66.9814 69.9272L65.3464 69.4243C63.6545 68.9038 62.5 67.3406 62.5 65.5703V61.2532H38.3064V65.5703C38.3064 67.3406 37.1519 68.9038 35.46 69.4243L33.825 69.9272L31.8882 81.0547H68.9182L66.9814 69.9272Z" fill="#F6D190"/>
<path d="M83.0169 74.8613L74.9456 72.3779L50.4033 83.7402L25.8611 72.3777L17.7898 74.8611C14.406 75.9023 12.0969 79.0286 12.0969 82.5691V96.7742C12.0969 99.001 13.9023 100.806 16.1292 100.806H84.6775C86.9043 100.806 88.7097 99.001 88.7097 96.7742V82.5691C88.7097 79.0288 86.4006 75.9023 83.0169 74.8613V74.8613Z" fill="#DAD8DB"/>
<path d="M50.4033 86.6936C60.9297 86.6936 70.093 80.9199 74.9456 72.3777L66.9817 69.9272C63.3425 75.1816 57.2788 78.6292 50.4036 78.6292C43.5283 78.6292 37.4646 75.1816 33.8254 69.9272L25.8616 72.3777C30.7136 80.9199 39.877 86.6936 50.4033 86.6936V86.6936Z" fill="#ECEAEC"/>
<path d="M60.4839 0H44.5771C42.345 0 40.4116 1.21655 39.3684 3.01782C39.0073 3.64111 38.3518 4.03223 37.6313 4.03223H36.2903L37.5161 34.2742H74.5967V14.1128C74.5967 6.3186 68.2781 0 60.4839 0V0Z" fill="#966A5B"/>
<path d="M26.2097 14.1128V34.2742H40.3225V8.06445C40.3225 5.8374 38.5171 4.03223 36.2903 4.03223C30.7229 4.03223 26.2097 8.54565 26.2097 14.1128V14.1128Z" fill="#785353"/>
<path d="M76.5576 35.613C76.2351 33.6304 74.3733 32.2581 72.3647 32.2581H70.5645C68.3374 32.2581 66.5322 30.4526 66.5322 28.2258V22.1775C66.5322 18.8372 63.8242 16.1292 60.4839 16.1292H40.3225L35.563 41.3413L50.4031 47.689L70.5645 40.3228H72.5806C75.0295 40.3225 76.9687 38.1394 76.5576 35.613V35.613Z" fill="#FFE09F"/>
<path d="M40.3225 40.3225V16.1289C36.9819 16.1289 34.2742 18.8369 34.2742 22.1772V28.2256C34.2742 30.4526 32.4688 32.2578 30.2419 32.2578H28.4417C26.4329 32.2578 24.5713 33.6304 24.2488 35.6128C23.8376 38.1392 25.7769 40.3223 28.2258 40.3223H30.2419L35.4817 42.6428L40.3225 40.3225Z" fill="#F6D190"/>
<path d="M42.3386 36.2903C41.2241 36.2903 40.3225 35.3874 40.3225 34.2742V32.2581C40.3225 31.1448 41.2244 30.2419 42.3386 30.2419C43.4529 30.2419 44.3547 31.1448 44.3547 32.2581V34.2742C44.3547 35.3877 43.4531 36.2903 42.3386 36.2903Z" fill="#6E4848"/>
<path d="M58.4678 36.2903C57.3533 36.2903 56.4517 35.3874 56.4517 34.2742V32.2581C56.4517 31.1448 57.3535 30.2419 58.4678 30.2419C59.582 30.2419 60.4839 31.1448 60.4839 32.2581V34.2742C60.4839 35.3877 59.582 36.2903 58.4678 36.2903Z" fill="#6E4848"/>
<path d="M38.3064 61.2529C41.8679 63.3162 45.9912 64.5161 50.4031 64.5161C54.8149 64.5161 58.9385 63.3162 62.4998 61.2529V54.4355H38.3062V61.2529H38.3064Z" fill="#ECBD83"/>
<path d="M68.4143 30.2465C67.3428 30.3159 66.5322 31.2534 66.5322 32.3273V38.3698C66.5322 39.4484 65.6577 40.3229 64.5791 40.3229H40.3225C33.5693 45.0444 39.3511 60.1726 50.5562 60.0896C52.2517 60.0769 53.8955 60.246 55.4639 59.8344C64.1782 57.5463 70.5645 49.4912 70.5645 40.07V32.2585C70.5645 31.1003 69.5886 30.1706 68.4143 30.2465V30.2465Z" fill="#FAF5DC"/>
<path d="M40.3225 40.3227H36.2273C35.1487 40.3227 34.2742 39.4482 34.2742 38.3696V32.3271C34.2742 31.2531 33.4639 30.3156 32.3921 30.2463C31.2178 30.1704 30.2419 31.1 30.2419 32.258V40.3225C30.2419 51.4572 39.2686 60.4838 50.4033 60.4838C52.1472 60.4838 53.8501 60.2499 55.4639 59.8339C46.7729 57.5927 40.3225 49.7138 40.3225 40.3227V40.3227Z" fill="#F5EBCD"/>
</svg>
