<svg width="116" height="116" viewBox="0 0 116 116" fill="none" xmlns="http://www.w3.org/2000/svg">
<g clip-path="url(#clip0)">
<path d="M110.562 50.75V67.0625H103.312V110.562H92.4375L90.625 90.625L88.8125 110.562H77.9375V67.0625H70.6875V50.75C70.6875 48.8272 71.4513 46.9831 72.811 45.6235C74.1706 44.2638 76.0147 43.5 77.9375 43.5H103.312C104.897 43.5004 106.437 44.0193 107.699 44.9774C108.961 45.9355 109.874 47.2802 110.3 48.8061C110.474 49.4394 110.562 50.0932 110.562 50.75Z" fill="#4F87A6"/>
<path d="M110.562 50.7501V67.0626H103.312V110.563H92.4375L90.625 90.6251L88.8125 110.563H77.9375V81.0143C90.9754 72.8053 102.029 61.8047 110.3 48.8062C110.474 49.4394 110.562 50.0932 110.562 50.7501Z" fill="#4F87A6"/>
<path d="M85.1875 43.5L90.625 52.5625L96.0625 43.5H85.1875Z" fill="#E0E0DE"/>
<path d="M88.8125 52.5625H92.4375V83.375H88.8125V52.5625Z" fill="#5277AF"/>
<path d="M96.0625 56.1875H103.312V59.8125H96.0625V56.1875Z" fill="#5277AF"/>
<path d="M77.9375 56.1875H85.1875V59.8125H77.9375V56.1875Z" fill="#5277AF"/>
<path d="M76.125 52.5625H79.75V72.5H76.125V52.5625Z" fill="#5277AF"/>
<path d="M101.5 52.5625H105.125V72.5H101.5V52.5625Z" fill="#5277AF"/>
<path d="M90.6583 43.5C87.2934 43.5 84.0663 42.1633 81.6869 39.7839C79.3075 37.4045 77.9708 34.1774 77.9708 30.8125V18.125C77.9708 16.6829 78.5437 15.2998 79.5634 14.2801C80.5832 13.2604 81.9662 12.6875 83.4083 12.6875H97.9083C99.3504 12.6875 100.733 13.2604 101.753 14.2801C102.773 15.2998 103.346 16.6829 103.346 18.125V30.8125C103.346 34.1774 102.009 37.4045 99.6297 39.7839C97.2504 42.1633 94.0233 43.5 90.6583 43.5Z" fill="#FEC9A3"/>
<path d="M90.625 38.0625C89.1834 38.0609 87.8013 37.4875 86.7819 36.4681C85.7625 35.4487 85.1891 34.0666 85.1875 32.625H88.8125C88.8125 33.1057 89.0035 33.5667 89.3434 33.9066C89.6833 34.2465 90.1443 34.4375 90.625 34.4375C91.1057 34.4375 91.5667 34.2465 91.9066 33.9066C92.2465 33.5667 92.4375 33.1057 92.4375 32.625H96.0625C96.0609 34.0666 95.4875 35.4487 94.4681 36.4681C93.4487 37.4875 92.0666 38.0609 90.625 38.0625Z" fill="#F7AD7C"/>
<path d="M83.375 25.375H87V29H83.375V25.375Z" fill="#92563A"/>
<path d="M94.25 25.375H97.875V29H94.25V25.375Z" fill="#92563A"/>
<path d="M77.9375 83.375H103.312V87H77.9375V83.375Z" fill="#5277AF"/>
<path d="M101.5 58L85.1875 67.0625H110.562V61.625L101.5 58Z" fill="#FEB784"/>
<path d="M5.4375 54.375H14.5V74.3125H10.875C9.43289 74.3125 8.04984 73.7396 7.03011 72.7199C6.01038 71.7002 5.4375 70.3171 5.4375 68.875V54.375Z" fill="#FEC093"/>
<path d="M24.4688 5.4375C26.4919 5.4375 28.4953 5.83599 30.3645 6.61023C32.2336 7.38447 33.932 8.51928 35.3626 9.94989C36.7932 11.3805 37.928 13.0789 38.7023 14.948C39.4765 16.8172 39.875 18.8206 39.875 20.8438V48.9375H9.0625V20.8438C9.0625 16.7578 10.6857 12.8391 13.5749 9.94989C16.4641 7.06065 20.3828 5.4375 24.4688 5.4375V5.4375Z" fill="#4D3213"/>
<path d="M18.1583 12.6875H32.6583C34.1004 12.6875 35.4835 13.2604 36.5032 14.2801C37.5229 15.2998 38.0958 16.6829 38.0958 18.125V29C38.0958 32.3649 36.7591 35.592 34.3797 37.9714C32.0004 40.3508 28.7733 41.6875 25.4083 41.6875C22.0434 41.6875 18.8163 40.3508 16.4369 37.9714C14.0575 35.592 12.7208 32.3649 12.7208 29V18.125C12.7208 16.6829 13.2937 15.2998 14.3134 14.2801C15.3332 13.2604 16.7162 12.6875 18.1583 12.6875V12.6875Z" fill="#FEC9A3"/>
<path d="M9.0625 27.1875L12.0466 26.8146C19.4309 25.8916 26.1637 22.1237 30.8125 16.3125L38.0625 25.375L39.875 21.75V19.9375C39.875 16.0919 38.3473 12.4037 35.628 9.68445C32.9088 6.96517 29.2206 5.4375 25.375 5.4375H23.0215C19.8518 5.43741 16.7765 6.51608 14.3013 8.49609C12.6666 9.80392 11.347 11.4626 10.4402 13.3495C9.53335 15.2364 9.0625 17.303 9.0625 19.3965V27.1875Z" fill="#4D3213"/>
<path d="M14.5 99.6875H25.375V110.562H14.5V99.6875Z" fill="#FEC9A3"/>
<path d="M25.375 99.6875H36.25V110.562H25.375V99.6875Z" fill="#FEC9A3"/>
<path d="M14.5 50.75L13.6581 51.5919C12.8618 52.3882 12.246 53.3463 11.8522 54.4013C11.4585 55.4563 11.296 56.5836 11.3759 57.7068C11.4557 58.8301 11.776 59.9231 12.315 60.9118C12.854 61.9005 13.5991 62.7618 14.5 63.4375V67.0625H36.25V63.4375C37.1509 62.7618 37.896 61.9005 38.435 60.9118C38.9741 59.9231 39.2943 58.8301 39.3741 57.7068C39.454 56.5836 39.2915 55.4563 38.8978 54.4013C38.504 53.3463 37.8882 52.3882 37.0919 51.5919L36.25 50.75H14.5Z" fill="#685555"/>
<path d="M45.3125 48.9375V54.375H36.25V67.0625H14.5V54.375H5.4375V48.9375C5.4375 47.0147 6.20134 45.1706 7.56098 43.811C8.92061 42.4513 10.7647 41.6875 12.6875 41.6875H38.0625C39.9852 41.6879 41.8291 42.4518 43.1886 43.8114C44.5482 45.1709 45.3121 47.0148 45.3125 48.9375Z" fill="#EEEEEE"/>
<path d="M41.6875 99.6875H9.0625L13.8045 71.2335L14.5 67.0625H36.25L41.6875 99.6875Z" fill="#F59898"/>
<path d="M41.6875 99.6875H9.0625L13.8045 71.2335C15.8239 69.924 17.8116 68.5336 19.7676 67.0625H36.25L41.6875 99.6875Z" fill="#EEEEEE"/>
<path d="M45.3125 48.9375V54.375H36.25V67.0625H19.7676C28.6159 60.4248 36.3437 52.4125 42.6572 43.3301C43.488 44.0092 44.1574 44.8647 44.6166 45.8346C45.0759 46.8045 45.3136 47.8644 45.3125 48.9375Z" fill="#685555"/>
<path d="M43.5 88.8125H38.0625C37.5818 88.8125 37.1208 88.6215 36.7809 88.2816C36.441 87.9417 36.25 87.4807 36.25 87V54.375H45.3125V87C45.3125 87.4807 45.1215 87.9417 44.7816 88.2816C44.4417 88.6215 43.9807 88.8125 43.5 88.8125Z" fill="#FEC9A3"/>
<path d="M18.125 41.6875L25.375 56.1875L32.625 41.6875H18.125Z" fill="#FEC9A3"/>
<path d="M18.1583 23.5625H21.7833V27.1875H18.1583V23.5625Z" fill="#92563A"/>
<path d="M29.0333 23.5625H32.6583V27.1875H29.0333V23.5625Z" fill="#92563A"/>
<path d="M14.5 54.375H38.0625V83.375H14.5V54.375Z" fill="#9CCAC7"/>
<path d="M38.0625 76.125H10.875C9.43289 76.125 8.04984 75.5521 7.03011 74.5324C6.01038 73.5127 5.4375 72.1296 5.4375 70.6875V67.0625H25.375L30.8125 61.625L34.4375 63.4375L32.625 67.0625H38.0625V76.125Z" fill="#FEC9A3"/>
<path d="M50.75 10.875H65.25C66.6921 10.875 68.0752 11.4479 69.0949 12.4676C70.1146 13.4873 70.6875 14.8704 70.6875 16.3125V29C70.6875 32.3649 69.3508 35.592 66.9714 37.9714C64.5921 40.3508 61.3649 41.6875 58 41.6875C54.6351 41.6875 51.408 40.3508 49.0286 37.9714C46.6492 35.592 45.3125 32.3649 45.3125 29V16.3125C45.3125 14.8704 45.8854 13.4873 46.9051 12.4676C47.9248 11.4479 49.3079 10.875 50.75 10.875Z" fill="#FEC9A3"/>
<path d="M70.6875 23.5625L65.25 14.5L62.6117 15.3795C57.3057 17.1479 51.5353 16.9075 46.3948 14.7039C45.79 14.4447 45.2445 14.0647 44.7919 13.587C44.3392 13.1094 43.989 12.5443 43.7627 11.9265C43.5363 11.3086 43.4387 10.651 43.4757 9.99398C43.5127 9.33699 43.6836 8.6945 43.9778 8.10595C44.379 7.304 44.9956 6.6296 45.7585 6.1583C46.5213 5.68699 47.4003 5.43741 48.297 5.4375H63.4375C65.3603 5.4375 67.2044 6.20134 68.564 7.56098C69.9237 8.92061 70.6875 10.7647 70.6875 12.6875V23.5625Z" fill="#C0996D"/>
<path d="M77.9375 48.9375V65.25H70.6875V81.5625H45.3125V65.25H38.0625V48.9375C38.0625 47.0147 38.8263 45.1706 40.186 43.811C41.5456 42.4513 43.3897 41.6875 45.3125 41.6875H70.6875C71.64 41.6862 72.5833 41.8728 73.4635 42.2366C74.3438 42.6005 75.1435 43.1345 75.817 43.808C76.4905 44.4815 77.0245 45.2813 77.3884 46.1615C77.7522 47.0417 77.9388 47.985 77.9375 48.9375Z" fill="#CFCFCD"/>
<path d="M77.9375 48.9375V65.25H70.6875V81.5625H45.3125V72.5407C57.019 66.3125 68.1047 57.7802 77.4753 46.3818C77.7821 47.1989 77.9386 48.0647 77.9375 48.9375Z" fill="#C7C7C5"/>
<path d="M58 34.4375C56.5584 34.4359 55.1763 33.8625 54.1569 32.8431C53.1375 31.8237 52.5641 30.4416 52.5625 29H56.1875C56.1875 29.4807 56.3785 29.9417 56.7184 30.2816C57.0583 30.6215 57.5193 30.8125 58 30.8125C58.4807 30.8125 58.9417 30.6215 59.2816 30.2816C59.6215 29.9417 59.8125 29.4807 59.8125 29H63.4375C63.4359 30.4416 62.8625 31.8237 61.8431 32.8431C60.8237 33.8625 59.4416 34.4359 58 34.4375Z" fill="#F7AD7C"/>
<path d="M50.75 21.75H54.375V25.375H50.75V21.75Z" fill="#92563A"/>
<path d="M61.625 21.75H65.25V25.375H61.625V21.75Z" fill="#92563A"/>
<path d="M43.5 50.75H47.125V70.6875H43.5V50.75Z" fill="#B0B0AE"/>
<path d="M68.875 50.75H72.5V70.6875H68.875V50.75Z" fill="#B0B0AE"/>
<path d="M54.375 41.6875L56.1875 47.125L54.375 70.6875L58 74.3125L61.625 70.6875L59.8125 47.125L61.625 41.6875H54.375Z" fill="#1B2125"/>
<path d="M70.6875 110.562H59.8125L58 88.8125L56.1875 110.562H45.3125V81.5625H70.6875V110.562Z" fill="#4D5E78"/>
<path d="M48.9375 65.25H38.0625V56.1875H47.125L52.5625 58L48.9375 65.25Z" fill="#FEC9A3"/>
<path d="M67.0625 65.25H77.9375V56.1875H68.875L63.4375 58L67.0625 65.25Z" fill="#FEC9A3"/>
<path d="M14.5 99.6875H36.25V103.312H14.5V99.6875Z" fill="#FEC093"/>
<path d="M23.5625 99.6875H27.1875V110.562H23.5625V99.6875Z" fill="#FEB784"/>
<path d="M45.3125 81.5625H70.6875V85.1875H45.3125V81.5625Z" fill="#485870"/>
<path d="M85.1875 67.0625L79.75 63.4375L70.6875 67.0625V76.125H105.125C106.567 76.125 107.95 75.5521 108.97 74.5324C109.99 73.5127 110.562 72.1296 110.562 70.6875V67.0625H85.1875Z" fill="#FEC9A3"/>
<path d="M48.9375 65.25L68.1602 73.9876C68.6313 74.2017 69.1428 74.3125 69.6603 74.3125H74.3125C75.2739 74.3125 76.1959 73.9306 76.8758 73.2508C77.5556 72.5709 77.9375 71.6489 77.9375 70.6875V65.25L52.5625 58L48.9375 65.25Z" fill="#DBDBD9"/>
<path d="M67.0625 65.25L47.8398 73.9876C47.3687 74.2017 46.8572 74.3125 46.3397 74.3125H41.6875C40.7261 74.3125 39.8041 73.9306 39.1242 73.2508C38.4444 72.5709 38.0625 71.6489 38.0625 70.6875V65.25L63.4375 58L67.0625 65.25Z" fill="#E0E0DE"/>
<path d="M103.5 25.5V28L99.2248 32.7606C99.098 32.9154 98.8834 33 98.6643 33C98.542 33 98.4178 32.9736 98.3061 32.9181C97.9975 32.7627 97.907 32.4408 98.1048 32.1993L103.5 25.5Z" fill="#CACADB"/>
<path d="M70.5 23.5V26L66.2248 30.7606C66.098 30.9154 65.8834 31 65.6643 31C65.542 31 65.4178 30.9736 65.3061 30.9181C64.9975 30.7627 64.907 30.4408 65.1048 30.1993L70.5 23.5Z" fill="#CACADB"/>
<path d="M38 25.5V27.5L34.2248 31.7606C34.098 31.9154 33.8834 32 33.6643 32C33.542 32 33.4178 31.9736 33.3061 31.9181C32.9975 31.7627 32.907 31.4408 33.1048 31.1993L38 25.5Z" fill="#CACADB"/>
<path d="M81.7335 31.9142C81.6371 31.9719 81.5292 32 81.4221 32C81.2318 32 81.0452 31.912 80.935 31.7506L78 27V25L81.9084 31.1673C82.081 31.4189 82.0024 31.7534 81.7335 31.9142Z" fill="#CACADB"/>
<path d="M48.7335 29.9142C48.6371 29.9719 48.5292 30 48.4221 30C48.2318 30 48.0452 29.912 47.935 29.7506L45 25V23L48.9084 29.1673C49.081 29.4189 49.0024 29.7534 48.7335 29.9142Z" fill="#CACADB"/>
<path d="M16.7335 30.9142C16.6371 30.9719 16.5292 31 16.4221 31C16.2318 31 16.0452 30.912 15.935 30.7506L12.5 27.5L13 26L16.9084 30.1673C17.081 30.4189 17.0024 30.7534 16.7335 30.9142Z" fill="#CACADB"/>
<path d="M101 30.1098V35.1996L97.3364 40.8371C96.4682 42.1726 94.8331 43 93.0589 43H87.9411C86.1677 43 84.5318 42.1726 83.6636 40.8371L80 35.1996V30.1098L83.9488 29.6923L90.5004 29L101 30.1098Z" fill="#E4E4EF"/>
<path d="M68 28.1098V33.1996L64.3364 38.8371C63.4682 40.1726 61.8331 41 60.0589 41H54.9411C53.1677 41 51.5318 40.1726 50.6636 38.8371L47 33.1996V28.1098L50.9488 27.6923L57.5004 27L68 28.1098Z" fill="#E4E4EF"/>
<path d="M36 29.1098V34.1996L32.3364 39.8371C31.4682 41.1726 29.8331 42 28.0589 42H22.9411C21.1677 42 19.5318 41.1726 18.6636 39.8371L15 34.1996V29.1098L18.9488 28.6923L25.5004 28L36 29.1098Z" fill="#E4E4EF"/>
<path d="M90.5 1.84106V20.2515H107.069V18.4105C107.069 9.25938 99.6511 1.84106 90.5 1.84106Z" fill="#FF9441"/>
<path d="M90.5 1.84106C81.349 1.84106 73.9306 9.25938 73.9306 18.4105V20.2515H103.387V18.4105C103.387 9.25938 97.6175 1.84106 90.5 1.84106Z" fill="#FFB739"/>
<path d="M85.8974 1.30886V20.2515H95.1026V1.30886C95.1026 0.878056 94.8049 0.500887 94.3836 0.410431C93.1316 0.141515 91.8323 0 90.5 0C89.1677 0 87.8684 0.141515 86.6164 0.410431C86.1952 0.500887 85.8974 0.878056 85.8974 1.30886V1.30886Z" fill="#FFD17E"/>
<path d="M107.683 19.0242H104.001V22.7063H107.683C108.7 22.7063 109.524 21.882 109.524 20.8652C109.524 19.8485 108.7 19.0242 107.683 19.0242Z" fill="#FF7149"/>
<path d="M105.842 20.8652C105.842 19.8485 105.018 19.0242 104.001 19.0242H73.3169C72.3002 19.0242 71.4759 19.8485 71.4759 20.8652C71.4759 21.882 72.3002 22.7063 73.3169 22.7063H104.001C105.018 22.7063 105.842 21.882 105.842 20.8652Z" fill="#FF9441"/>
<g clip-path="url(#clip1)">
<path d="M39.7434 -0.508184V15.2068L37.2974 15.2001L36.2395 15.1974L9.19604 15.1246V-0.508184C9.19604 -1.88414 10.3119 -3 11.6879 -3H37.2515C38.6275 -3 39.7434 -1.88414 39.7434 -0.508184V-0.508184Z" fill="#E4F4FF"/>
<path d="M39.7433 -0.508184V15.1853L37.2973 15.2001L36.2394 15.2068V-0.506836C36.2394 -1.88414 35.1236 -3 33.7476 -3H37.2515C38.6275 -3 39.7433 -1.88414 39.7433 -0.508184V-0.508184Z" fill="#C0EAF7"/>
<path d="M28.0572 5.09235H25.4807V2.51685C25.4807 1.95851 25.0282 1.5061 24.47 1.5061C23.9118 1.5061 23.4593 1.95851 23.4593 2.51685V5.09235H20.8828C20.3246 5.09235 19.8721 5.54476 19.8721 6.10309C19.8721 6.66143 20.3246 7.11384 20.8828 7.11384H23.4593V9.68934C23.4593 10.2477 23.9118 10.7001 24.47 10.7001C25.0282 10.7001 25.4807 10.2477 25.4807 9.68934V7.11384H28.0572C28.6154 7.11384 29.0679 6.66143 29.0679 6.10309C29.0679 5.54476 28.6154 5.09235 28.0572 5.09235Z" fill="#F3705B"/>
</g>
</g>
<defs>
<clipPath id="clip0">
<rect width="116" height="116" fill="white"/>
</clipPath>
<clipPath id="clip1">
<rect x="-10" y="-3" width="69" height="69" fill="white"/>
</clipPath>
</defs>
</svg>
