<svg width="118" height="118" fill="none" xmlns="http://www.w3.org/2000/svg"><g clip-path="url(#clip0)"><path d="M11.189 29.942h73.289c4.401 0 7.983-3.582 7.983-7.983 0-4.402-3.582-7.983-7.983-7.983H26.359a1.764 1.764 0 010-3.527h58.119c6.346 0 11.51 5.163 11.51 11.51 0 6.346-5.163 11.51-11.51 11.51h-73.29c-4.224 0-7.66 3.437-7.66 7.662v.642c0 4.726 4.954 7.938 10.405 7.938a1.764 1.764 0 010 3.528h-1.176a1.76 1.76 0 01-.52-.078C3.961 52.173 0 46.959 0 41.773v-.642c0-6.17 5.02-11.19 11.189-11.19z" fill="#CBC4CC"/><path d="M4.754 11.307h8.511a1.764 1.764 0 000-3.527H4.754a1.764 1.764 0 000 3.527zm0 5.755h8.511a1.764 1.764 0 000-3.527H4.754a1.764 1.764 0 100 3.527z" fill="#B5ADB6"/><path d="M12.59 17.589h11.462a4.876 4.876 0 004.876-4.876v-.46a4.876 4.876 0 00-4.876-4.877H12.59a1.911 1.911 0 00-1.911 1.912v6.39a1.91 1.91 0 001.911 1.91zm3.074 85.935H118v4.112a2.987 2.987 0 01-2.988 2.987h-96.36a2.987 2.987 0 01-2.988-2.987v-4.112z" fill="#A79BA7"/><path d="M22.718 103.524v4.112a2.987 2.987 0 002.988 2.987h-7.055a2.987 2.987 0 01-2.987-2.987v-4.112h7.054z" fill="#918291"/><path d="M118 94.189L105.143 76.17c-8.32-11.66-22.584-19.788-36.593-22.784l-45.264-9.679a7.86 7.86 0 00-8.98 4.864L2.95 78.086c-1.366 3.55 1.115 7.405 4.912 7.633 2.97.178 7.874 2.639 7.874 5.614v2.856H118z" fill="#B2E5FB"/><path d="M2.95 78.086l11.356-29.514a7.86 7.86 0 018.915-4.877c-.183.35-.346.717-.483 1.1l-11.31 31.56c-1.36 3.798 1.125 7.914 4.924 8.152 2.97.186 6.466 2.812 6.471 5.992l-.002 3.69h-7.085v-2.856c0-2.976-4.904-5.436-7.874-5.614-3.797-.228-6.278-4.083-4.912-7.633z" fill="#91DAFA"/><path d="M118 94.189H15.664v9.335H118v-9.335z" fill="#CBC4CC"/><path d="M22.718 94.189h-7.054v9.335h7.054v-9.335z" fill="#B5ADB6"/><path d="M70.187 70.65a8.506 8.506 0 00-3.74-5.993 27.263 27.263 0 00-10.377-4.125l-25.28-4.394a3.097 3.097 0 00-3.628 3.051V70.9c0 1.061.86 1.922 1.922 1.922H42.13l5.299-2.352 5.3 2.352H68.28c1.16 0 2.056-1.02 1.906-2.171z" fill="#F2FDFF"/><path d="M42.129 72.82h10.599v-4.133a1.893 1.893 0 00-1.893-1.893h-6.813a1.893 1.893 0 00-1.893 1.893v4.134z" fill="#FEE97D"/><path d="M89.353 84.313a3.945 3.945 0 117.787-1.27 3.945 3.945 0 01-7.787 1.27zm-15.015.251a3.946 3.946 0 117.708-1.697 3.946 3.946 0 01-7.708 1.697zM60.87 86.69h5.831a1.764 1.764 0 100-3.528h-5.83a1.764 1.764 0 000 3.527zm-12.893 0h5.831a1.764 1.764 0 100-3.528h-5.83a1.764 1.764 0 000 3.527zm-12.893 0h5.831a1.764 1.764 0 000-3.528h-5.831a1.764 1.764 0 000 3.527z" fill="#5FA7EE"/></g><defs><clipPath id="clip0"><path transform="matrix(-1 0 0 1 118 0)" fill="#fff" d="M0 0h118v118H0z"/></clipPath></defs></svg>