<svg width="128" height="128" fill="none" xmlns="http://www.w3.org/2000/svg"><path d="M20.645 78.452h-4.129C7.41 78.452 0 71.042 0 61.936V24.774c0-4.554 3.704-8.258 8.258-8.258 4.554 0 8.258 3.704 8.258 8.258v22.71a2.063 2.063 0 11-4.129 0v-22.71a4.134 4.134 0 00-4.129-4.129 4.134 4.134 0 00-4.129 4.13v37.16c0 6.831 5.556 12.388 12.387 12.388h4.129c1.141 0 2.064.923 2.064 2.064a2.063 2.063 0 01-2.064 2.065zm86.71 0h4.129c9.106 0 16.516-7.41 16.516-16.517v-37.16c0-4.555-3.704-8.259-8.258-8.259-4.554 0-8.258 3.704-8.258 8.258v22.71a2.064 2.064 0 104.129 0v-22.71a4.134 4.134 0 014.129-4.129 4.134 4.134 0 014.129 4.13v37.16c0 6.831-5.556 12.388-12.387 12.388h-4.129a2.064 2.064 0 100 4.129z" fill="#94A7CF"/><path d="M113.548 45.42H14.451c-1.14 0-2.064.924-2.064 2.064v4.129l.457.543v7.715C12.844 88.376 35.495 106.5 64 106.5s51.25-18.124 51.25-46.629v-7.704l.363-.554v-4.129c0-1.14-.925-2.065-2.065-2.065z" fill="#CAD8F4"/><path d="M64 111.484c28.505 0 51.613-23.108 51.613-51.613v-8.258H12.387v8.258c0 28.505 23.108 51.613 51.613 51.613zm0-10.323c-22.076 0-40.951-11.636-48.312-27.946C25.325 83.736 43.364 90.84 64 90.84s38.675-7.103 48.311-17.624c-7.36 16.31-26.235 27.946-48.311 27.946zm50.187-45.419C109.02 63.302 90.147 70.194 64 70.194s-45.02-6.891-50.188-14.452h100.375zM64 74.322c22.913 0 42.172-5.363 50.829-13.24C110.598 75.62 89.424 86.71 64 86.71S17.401 75.62 13.17 61.08C21.829 68.96 41.088 74.323 64 74.323z" fill="#94A7CF"/></svg>