<svg width="99" height="99" fill="none" xmlns="http://www.w3.org/2000/svg"><path d="M49.5 0L24.75 49.5 49.5 99C76.838 99 99 76.838 99 49.5S76.838 0 49.5 0z" fill="#E76B57"/><path d="M0 49.5C0 76.838 22.162 99 49.5 99V0C22.162 0 0 22.162 0 49.5z" fill="#F3705B"/><path d="M49.5 11.602L30.55 49.5 49.5 87.398c20.93 0 37.898-16.967 37.898-37.898 0-20.93-16.967-37.898-37.898-37.898z" fill="#DAE0E7"/><path d="M11.602 49.5c0 20.93 16.967 37.898 37.898 37.898V11.602c-20.93 0-37.898 16.967-37.898 37.898z" fill="#fff"/><path d="M52.4 75.797h-2.9l-1.934 2.9 1.934 2.9h2.9v-5.8z" fill="#233952"/><path d="M49.5 75.797h-2.9v5.8h2.9v-5.8z" fill="#3D5168"/><path d="M65.159 70.822l-5.024 2.9 2.9 5.024 5.024-2.9-2.9-5.024zm8.563-10.683l-2.9 5.023 5.023 2.9 2.9-5.023-5.023-2.9zM49.5 17.402h-2.9V52.4h2.9V17.402z" fill="#233952"/><path d="M52.4 46.6V17.402h-2.9V52.4h32.098v-5.8H52.4z" fill="#09213D"/><path d="M33.84 28.177l5.024-2.9-2.9-5.024-5.024 2.9 2.9 5.024zm-8.563 10.686l2.9-5.024-5.023-2.9-2.9 5.023 5.023 2.9zM23.203 46.6h-5.8v5.8h5.8v-5.8zm4.975 18.56l-2.9-5.024-5.024 2.9 2.9 5.024 5.024-2.9zm10.684 8.562l-5.023-2.9-2.9 5.023 5.023 2.9 2.9-5.023z" fill="#3D5168"/></svg>