<svg width="75" height="71" viewBox="0 0 75 71" fill="none" xmlns="http://www.w3.org/2000/svg">
<path d="M37.0297 0C16.6103 0 0 15.8568 0 35.3465C0 54.8363 16.6103 70.6931 37.0297 70.6931C57.4491 70.6931 74.0594 54.8363 74.0594 35.3465C74.0594 15.8568 57.4491 0 37.0297 0ZM51.7506 36.5849L30.15 49.8399C29.8969 49.9966 29.6045 50.0743 29.3152 50.0743C29.0621 50.0743 28.8059 50.0138 28.577 49.8945C28.0797 49.6357 27.7723 49.1408 27.7723 48.6015V22.0916C27.7723 21.5523 28.0797 21.0574 28.577 20.7985C29.0651 20.5426 29.6769 20.5583 30.15 20.8532L51.7506 34.1082C52.1906 34.3785 52.4588 34.846 52.4588 35.3465C52.4588 35.8471 52.1906 36.3144 51.7506 36.5849Z" fill="#F3705B"/>
</svg>
