<svg width="111" height="111" viewBox="0 0 111 111" fill="none" xmlns="http://www.w3.org/2000/svg">
<g clip-path="url(#clip0)">
<path d="M86.884 35.3142C84.3451 32.7762 80.2302 32.7762 77.6913 35.3142L83.5245 29.481C86.0634 26.9421 86.0634 22.8272 83.5245 20.2883C80.9864 17.7503 76.8707 17.7503 74.3326 20.2883L78.9209 15.7C81.4132 13.2077 81.5978 9.147 79.1953 6.5683C76.6733 3.86003 72.4331 3.80329 69.8383 6.39723L65.1399 11.0965C67.678 8.55758 67.678 4.44267 65.1399 1.90378C62.601 -0.634268 58.4861 -0.634268 55.9472 1.90378L37.4433 20.4077L29.4844 28.3674C29.2194 26.3332 28.6782 22.0625 28.6655 21.9693C27.8686 16.2632 20.0961 15.197 17.802 20.4814C13.1239 31.256 10.8492 43.3831 13.7692 54.4914C14.583 57.5909 13.6405 60.8895 11.3743 63.1557L3.50607 71.0239C-0.301422 74.8314 -0.301422 81.0042 3.50607 84.8116L9.80927 91.1148C13.6168 94.9223 19.7896 94.9223 23.597 91.1148L33.3571 81.3548C35.1711 79.5408 37.6753 78.5923 40.2354 78.7481C47.2669 79.1758 54.4373 76.7605 59.8809 71.5023L59.8843 71.5057L60.2078 71.1831L74.2124 57.1777L86.8831 44.5069C89.422 41.968 89.422 37.8523 86.884 35.3142Z" fill="#FFCBBE"/>
<path d="M23.5971 91.1147L33.3571 81.3546C35.1711 79.5406 37.6753 78.5922 40.2354 78.748C47.2669 79.1748 54.4373 76.7604 59.8809 71.5014L59.8843 71.5056L60.2078 71.1821L74.2132 57.1775L84.6457 46.7442C70.8791 35.7545 53.6268 27.6585 40.9383 40.9051C20.3146 62.4357 23.5598 76.0092 8.07999 89.3854L9.80843 91.1147C13.6168 94.9222 19.7896 94.9222 23.5971 91.1147Z" fill="#FFB39D"/>
<path d="M107.721 34.0803C106.511 32.6161 106.057 30.6742 106.436 28.8128C107.779 22.2302 104.928 15.2317 98.8315 11.5944C93.6851 8.52453 87.5301 8.62446 82.6344 11.32C80.3555 12.5751 77.6108 12.5243 75.309 11.3107C71.9029 9.5162 67.8643 8.8819 63.8154 9.80329C59.9461 10.6832 56.7001 12.841 54.4178 15.7288C52.8358 17.7308 50.313 18.7809 47.7733 18.5319C42.6159 18.0246 37.2773 19.6794 33.2301 23.5343C29.0534 27.5129 27.1505 32.9802 27.5578 38.3155C27.7585 40.9399 26.6313 43.4652 24.6929 45.2454C21.8466 47.8596 20.0622 51.6104 20.0622 55.7803C20.0622 63.6824 26.4679 70.0881 34.37 70.0881L94.1153 53.2372C100.413 55.5745 107.414 52.3641 109.752 46.066C111.318 41.8477 110.394 37.3162 107.721 34.0803Z" fill="#A4E7FF"/>
<path d="M105.639 52.3438C103.1 49.8057 98.9847 49.8057 96.4467 52.3438L102.28 46.5106C104.818 43.9725 104.818 39.8568 102.28 37.3187C99.741 34.7798 95.6252 34.7798 93.0872 37.3187L97.6755 32.7296C100.168 30.2372 100.352 26.1765 97.9507 23.5978C95.4288 20.8904 91.1877 20.8337 88.5937 23.4268L83.8945 28.126C86.4334 25.5871 86.4334 21.4722 83.8945 18.9333C81.3564 16.3953 77.2407 16.3953 74.7018 18.9333L56.1987 37.4373L48.239 45.3969C47.9748 43.3628 47.4337 39.092 47.4201 38.9989C46.6232 33.2927 38.8507 32.2265 36.5566 37.5118C31.8793 48.2856 29.6047 60.4127 32.5238 71.5218C33.3385 74.6205 32.3951 77.919 30.1297 80.1852L22.2607 88.0534C18.4532 91.8609 18.4532 98.0337 22.2607 101.842L28.5639 108.144C32.3714 111.952 38.5442 111.952 42.3517 108.144L52.1117 98.3843C53.9257 96.5703 56.4299 95.6218 58.99 95.7777C66.0215 96.2053 73.1918 93.7901 78.6355 88.5319L78.6389 88.5353L78.9624 88.2126L105.639 61.5364C108.177 58.9976 108.177 54.8826 105.639 52.3438Z" fill="#FFDDCF"/>
<path d="M63.3776 48.6437C62.723 47.9899 62.723 46.9288 63.3776 46.275L82.7106 26.942C83.3653 26.2882 84.4255 26.2882 85.0793 26.942C85.7339 27.5958 85.7339 28.6569 85.0793 29.3107L65.7463 48.6437C64.8859 49.5041 63.7045 48.9706 63.3776 48.6437Z" fill="#FFCBBE"/>
<path d="M72.5694 57.8364C71.9157 57.1818 71.9157 56.1215 72.5694 55.4669L91.1877 36.8495C91.8423 36.1957 92.9026 36.1957 93.5572 36.8495C94.211 37.5041 94.211 38.5644 93.5572 39.2181L74.939 57.8364C74.0777 58.6968 72.8972 58.1633 72.5694 57.8364Z" fill="#FFCBBE"/>
<path d="M81.7621 67.0282C81.1075 66.3744 81.1075 65.3141 81.7621 64.6595L95.262 51.1597C95.9166 50.505 96.9769 50.505 97.6307 51.1597C98.2853 51.8134 98.2853 52.8746 97.6307 53.5283L84.1308 67.0282C83.0841 68.0757 82.089 67.3559 81.7621 67.0282Z" fill="#FFCBBE"/>
</g>
<defs>
<clipPath id="clip0">
<rect width="111" height="111" fill="white"/>
</clipPath>
</defs>
</svg>
