<svg width="118" height="118" viewBox="0 0 118 118" fill="none" xmlns="http://www.w3.org/2000/svg">
<g clip-path="url(#clip0)">
<path d="M11.1889 29.9417H28.9278H79.4481H84.4776C88.8793 29.9417 92.4605 26.3605 92.4605 21.9589C92.4605 17.5572 88.8793 13.9761 84.4776 13.9761H26.359C25.385 13.9761 24.5953 13.1864 24.5953 12.2124C24.5953 11.2384 25.385 10.4487 26.359 10.4487H84.4776C90.8243 10.4487 95.9878 15.6123 95.9878 21.9589C95.9878 28.3055 90.8245 33.469 84.4776 33.469H79.4481H28.9278H11.1889C6.96433 33.469 3.52731 36.9061 3.52731 41.1306V41.7733C3.52731 46.499 8.4818 49.7114 13.9329 49.7114C14.9069 49.7114 15.6966 50.5011 15.6966 51.4751C15.6966 52.4491 14.9069 53.2388 13.9329 53.2388H12.7571C12.5761 53.2388 12.4016 53.2115 12.237 53.1609C3.9614 52.1733 -2.28882e-05 46.9594 -2.28882e-05 41.7733V41.1306C-2.28882e-05 34.9609 5.01913 29.9417 11.1889 29.9417Z" fill="#CBC4CC"/>
<path d="M4.75395 11.3069H13.2654C14.2394 11.3069 15.0291 10.5172 15.0291 9.54321C15.0291 8.56919 14.2394 7.77954 13.2654 7.77954H4.75395C3.77993 7.77954 2.99028 8.56919 2.99028 9.54321C2.99028 10.5172 3.7797 11.3069 4.75395 11.3069Z" fill="#B5ADB6"/>
<path d="M4.75395 17.062H13.2654C14.2394 17.062 15.0291 16.2723 15.0291 15.2983C15.0291 14.3243 14.2394 13.5347 13.2654 13.5347H4.75395C3.77993 13.5347 2.99028 14.3243 2.99028 15.2983C2.99028 16.2723 3.7797 17.062 4.75395 17.062Z" fill="#B5ADB6"/>
<path d="M12.5903 17.5888H24.052C26.7447 17.5888 28.9277 15.4058 28.9277 12.7131V12.2522C28.9277 9.55941 26.7447 7.37646 24.052 7.37646H12.5903C11.5344 7.37646 10.6787 8.2322 10.6787 9.28804V15.6772C10.6787 16.7328 11.5346 17.5888 12.5903 17.5888Z" fill="#A79BA7"/>
<path d="M15.6637 103.524H118V107.636C118 109.286 116.662 110.623 115.012 110.623H18.6516C17.0015 110.623 15.6639 109.286 15.6639 107.636V103.524H15.6637Z" fill="#A79BA7"/>
<path d="M22.7183 103.524V107.636C22.7183 109.286 24.0559 110.623 25.706 110.623H18.6513C17.0013 110.623 15.6637 109.286 15.6637 107.636V103.524H22.7183Z" fill="#918291"/>
<path d="M118 94.1885L105.143 76.1712C96.8221 64.5101 82.559 56.3831 68.5504 53.3874L23.286 43.7082C19.5035 42.8993 15.695 44.9625 14.3059 48.5724L2.95049 78.0861C1.58424 81.6369 4.06466 85.4913 7.86242 85.7192C10.8322 85.8974 15.7361 88.3579 15.7361 91.3328V94.1885H118Z" fill="#B2E5FB"/>
<path d="M2.95049 78.0856L14.3059 48.5719C15.6867 44.9828 19.4598 42.924 23.2206 43.6953C23.0377 44.0452 22.8752 44.4118 22.7376 44.7956L11.4278 76.3558C10.0672 80.1528 12.5535 84.2688 16.3515 84.5068C19.3215 84.693 22.8183 87.3192 22.823 90.499L22.8206 94.1883H15.7359V91.3326C15.7359 88.3574 10.832 85.897 7.86217 85.719C4.06465 85.4909 1.58423 81.6364 2.95049 78.0856Z" fill="#91DAFA"/>
<path d="M118 94.1885H15.6637V103.524H118V94.1885Z" fill="#CBC4CC"/>
<path d="M22.7183 94.1885H15.6637V103.524H22.7183V94.1885Z" fill="#B5ADB6"/>
<path d="M70.1871 70.6498C69.8682 68.2049 68.5038 66.0179 66.4479 64.6571C63.3226 62.5887 59.7915 61.1784 56.0697 60.5315L30.7891 56.1379C28.895 55.8087 27.1619 57.2666 27.1619 59.1893V70.8984C27.1619 71.9601 28.0225 72.8208 29.0843 72.8208H42.1288L47.428 70.4692L52.7273 72.8208H68.2807C69.4414 72.8208 70.3373 71.8004 70.1871 70.6498Z" fill="#F2FDFF"/>
<path d="M42.1288 72.8208H52.7275V68.6872C52.7275 67.6419 51.88 66.7944 50.8347 66.7944H44.0215C42.9763 66.7944 42.1288 67.6419 42.1288 68.6872V72.8208Z" fill="#FEE97D"/>
<path d="M89.3533 84.3127C89.0026 82.1625 90.4613 80.1352 92.6115 79.7844C94.7617 79.4337 96.789 80.8924 97.1398 83.0426C97.4905 85.1927 96.0318 87.2201 93.8816 87.5709C91.7315 87.9216 89.7041 86.4629 89.3533 84.3127Z" fill="#5FA7EE"/>
<path d="M74.338 84.5636C73.8696 82.4352 75.2153 80.3301 77.3437 79.8617C79.4721 79.3933 81.5772 80.739 82.0455 82.8674C82.5139 84.9958 81.1682 87.1009 79.0398 87.5693C76.9115 88.0376 74.8064 86.6919 74.338 84.5636Z" fill="#5FA7EE"/>
<path d="M60.8704 86.6894H66.7015C67.6756 86.6894 68.4652 85.8998 68.4652 84.9258C68.4652 83.9518 67.6756 83.1621 66.7015 83.1621H60.8704C59.8964 83.1621 59.1067 83.9518 59.1067 84.9258C59.1067 85.8998 59.8964 86.6894 60.8704 86.6894Z" fill="#5FA7EE"/>
<path d="M47.9773 86.6894H53.8082C54.7822 86.6894 55.5719 85.8998 55.5719 84.9258C55.5719 83.9518 54.7822 83.1621 53.8082 83.1621H47.9773C47.0033 83.1621 46.2136 83.9518 46.2136 84.9258C46.2136 85.8998 47.0033 86.6894 47.9773 86.6894Z" fill="#5FA7EE"/>
<path d="M35.084 86.6894H40.9152C41.8892 86.6894 42.6788 85.8998 42.6788 84.9258C42.6788 83.9518 41.8892 83.1621 40.9152 83.1621H35.084C34.11 83.1621 33.3203 83.9518 33.3203 84.9258C33.3203 85.8998 34.11 86.6894 35.084 86.6894Z" fill="#5FA7EE"/>
</g>
<defs>
<clipPath id="clip0">
<rect width="118" height="118" transform="matrix(-1 0 0 1 118 0)" fill="white"/>
</clipPath>
</defs>
</svg>
