<svg width="128" height="128" viewBox="0 0 128 128" fill="none" xmlns="http://www.w3.org/2000/svg">
<path d="M20.6453 78.4516H16.5163C7.40925 78.4516 0 71.0424 0 61.9356V24.7744C0 20.2199 3.70375 16.5164 8.258 16.5164C12.8123 16.5164 16.516 20.2201 16.516 24.7744V47.4841C16.516 48.6254 15.5925 49.5486 14.4515 49.5486C13.3105 49.5486 12.387 48.6251 12.387 47.4841V24.7744C12.387 22.4981 10.5343 20.6454 8.258 20.6454C5.98175 20.6454 4.129 22.4981 4.129 24.7744V61.9356C4.129 68.7664 9.6855 74.3226 16.516 74.3226H20.645C21.7863 74.3226 22.7095 75.2461 22.7095 76.3871C22.7097 77.5284 21.7863 78.4516 20.6453 78.4516Z" fill="#94A7CF"/>
<path d="M107.355 78.4516H111.484C120.59 78.4516 128 71.0424 128 61.9354V24.7744C128 20.2199 124.296 16.5164 119.742 16.5164C115.188 16.5164 111.484 20.2201 111.484 24.7744V47.4841C111.484 48.6254 112.408 49.5486 113.549 49.5486C114.689 49.5486 115.613 48.6251 115.613 47.4841V24.7744C115.613 22.4981 117.466 20.6454 119.742 20.6454C122.018 20.6454 123.871 22.4981 123.871 24.7744V61.9356C123.871 68.7664 118.315 74.3226 111.484 74.3226H107.355C106.214 74.3226 105.29 75.2461 105.29 76.3871C105.29 77.5284 106.214 78.4516 107.355 78.4516Z" fill="#94A7CF"/>
<path d="M113.548 45.4193H14.4515C13.3112 45.4193 12.387 46.3436 12.387 47.4838V51.6128L12.8437 52.1563V59.8711C12.8437 88.3761 35.495 106.5 64 106.5C92.505 106.5 115.25 88.3761 115.25 59.8711V52.1668L115.613 51.6131V47.4841C115.613 46.3438 114.688 45.4193 113.548 45.4193Z" fill="#CAD8F4"/>
<path d="M64 111.484C92.505 111.484 115.613 88.3762 115.613 59.8709V51.6129H12.387V59.8709C12.387 88.3762 35.495 111.484 64 111.484ZM64 101.161C41.924 101.161 23.049 89.5254 15.6885 73.2152C25.325 83.7364 43.3642 90.8389 64 90.8389C84.6357 90.8389 102.675 83.7364 112.311 73.2154C104.951 89.5254 86.076 101.161 64 101.161ZM114.187 55.7422C109.02 63.3029 90.1465 70.1937 64 70.1937C37.8535 70.1937 18.98 63.3029 13.8125 55.7422H114.187ZM64 74.3227C86.913 74.3227 106.172 68.9589 114.829 61.0812C110.598 75.6207 89.4242 86.7099 64 86.7099C38.5757 86.7099 17.4015 75.6207 13.1705 61.0814C21.8282 68.9592 41.087 74.3227 64 74.3227Z" fill="#94A7CF"/>
</svg>
