<svg width="99" height="99" viewBox="0 0 99 99" fill="none" xmlns="http://www.w3.org/2000/svg">
<path d="M49.5 0L24.75 49.5L49.5 99C76.8381 99 99 76.8381 99 49.5C99 22.1619 76.8381 0 49.5 0Z" fill="#E76B57"/>
<path d="M0 49.5C0 76.8381 22.1619 99 49.5 99V0C22.1619 0 0 22.1619 0 49.5Z" fill="#F3705B"/>
<path d="M49.5 11.6016L30.5508 49.5L49.5 87.3984C70.4308 87.3984 87.3984 70.4308 87.3984 49.5C87.3984 28.5692 70.4308 11.6016 49.5 11.6016Z" fill="#DAE0E7"/>
<path d="M11.6016 49.5C11.6016 70.4308 28.5692 87.3984 49.5 87.3984V11.6016C28.5692 11.6016 11.6016 28.5692 11.6016 49.5Z" fill="white"/>
<path d="M52.4004 75.7969H49.5L47.5664 78.6973L49.5 81.5977H52.4004V75.7969Z" fill="#233952"/>
<path d="M49.5 75.7969H46.5996V81.5977H49.5V75.7969Z" fill="#3D5168"/>
<path d="M65.1585 70.8218L60.1351 73.7222L63.0355 78.7456L68.0589 75.8453L65.1585 70.8218Z" fill="#233952"/>
<path d="M73.7224 60.1386L70.822 65.1621L75.8455 68.0625L78.7459 63.039L73.7224 60.1386Z" fill="#233952"/>
<path d="M49.5 17.4023H46.5996V52.4004H49.5V17.4023Z" fill="#233952"/>
<path d="M52.4004 46.5996V17.4023H49.5V52.4004H81.5977V46.5996H52.4004Z" fill="#09213D"/>
<path d="M33.8407 28.177L38.8642 25.2766L35.9638 20.2531L30.9403 23.1535L33.8407 28.177Z" fill="#3D5168"/>
<path d="M25.2769 38.8626L28.1772 33.8391L23.1538 30.9387L20.2534 35.9622L25.2769 38.8626Z" fill="#3D5168"/>
<path d="M23.2031 46.5996H17.4023V52.4004H23.2031V46.5996Z" fill="#3D5168"/>
<path d="M28.178 65.1595L25.2776 60.136L20.2541 63.0364L23.1545 68.0599L28.178 65.1595Z" fill="#3D5168"/>
<path d="M38.8624 73.7222L33.8389 70.8218L30.9385 75.8452L35.962 78.7456L38.8624 73.7222Z" fill="#3D5168"/>
</svg>
