<svg width="86" height="86" fill="none" xmlns="http://www.w3.org/2000/svg"><g clip-path="url(#clip0)"><path d="M58.82 73.138a5.549 5.549 0 01-3.336-5.088v-6.458H30.516v6.458a5.548 5.548 0 01-3.337 5.089l-.533 7.318h32.708l-.534-7.319z" fill="#F6D190"/><path d="M30.516 61.592A23.438 23.438 0 0043 65.194c4.59 0 8.86-1.333 12.484-3.602v-4.72H30.516v4.72z" fill="#ECBD83"/><path d="M54.097 0H36.065c-2.583 0-4.734 1.772-5.353 4.161l-12.68 33.29h49.936v-23.58C67.968 6.211 61.758 0 54.097 0z" fill="#966A5B"/><path d="M30.516 4.161h-2.774a9.71 9.71 0 00-9.71 9.71v23.58h12.484V4.161z" fill="#785353"/><path d="M70.736 38.615c-.118-2.25-2.138-3.937-4.39-3.937h-1.153a4.161 4.161 0 01-4.16-4.161V23.58a5.548 5.548 0 00-5.55-5.548H30.517l-4.9 30.258L63.737 43h2.845a4.161 4.161 0 004.155-4.386z" fill="#FFE09F"/><path d="M30.516 41.613v-23.58a5.548 5.548 0 00-5.548 5.548v6.935a4.161 4.161 0 01-4.162 4.161h-1.151c-2.253 0-4.273 1.688-4.391 3.938A4.161 4.161 0 0019.419 43h2.845l6.454 2.158c.701.036 1.406.056 2.111.068a20.943 20.943 0 01-.313-3.613z" fill="#F6D190"/><path d="M34.678 38.839a1.387 1.387 0 01-1.388-1.388v-1.387a1.386 1.386 0 112.775 0v1.387c0 .767-.62 1.388-1.387 1.388zm16.644 0a1.387 1.387 0 01-1.387-1.388v-1.387a1.386 1.386 0 112.775 0v1.387c0 .767-.62 1.388-1.388 1.388z" fill="#6E4848"/><path d="M30.515 33.29a1.385 1.385 0 01-.335-2.732l5.548-1.387a1.385 1.385 0 011.681 1.01 1.385 1.385 0 01-1.009 1.68l-5.548 1.387a1.379 1.379 0 01-.337.042zm24.97 0a1.4 1.4 0 01-.337-.041L49.6 31.862a1.385 1.385 0 01-1.01-1.681 1.382 1.382 0 011.682-1.01l5.548 1.387a1.385 1.385 0 011.01 1.682 1.385 1.385 0 01-1.345 1.05z" fill="#785353"/><path d="M62.327 31.906c-.737.048-1.295.693-1.295 1.432v8.318c0 .742-.602 1.344-1.344 1.344H30.563c-3.604 9.238 1.351 19.023 12.374 19.023 1.42 0 2.87.254 4.212-.019 6.2-1.258 11.415-5.279 14.295-10.713l1.649-4.13A20.67 20.67 0 0063.806 43v-9.71c0-.796-.671-1.436-1.479-1.384z" fill="#FAF5DC"/><path d="M61.444 51.291a20.282 20.282 0 001.649-4.13H31.269a20.747 20.747 0 01-.706-4.16h-4.252a1.344 1.344 0 01-1.343-1.345v-8.318c0-.739-.558-1.384-1.295-1.432a1.387 1.387 0 00-1.48 1.384V43a20.7 20.7 0 00.714 4.161l1.651 4.134C28.062 57.903 35.018 62.42 43 62.42c1.421 0 2.808-.143 4.149-.415a20.752 20.752 0 01-10.535-5.681c2.041.359 4.183.548 6.386.548 7.273 0 13.981-2.087 18.444-5.58zM33.782 52.8a20.776 20.776 0 01-1.528-2.864h26.302c-3.956 2.605-9.57 4.16-15.556 4.16-3.252 0-6.392-.459-9.218-1.296z" fill="#F5EBCD"/><path d="M22.912 47.184c.52 2 1.646 4.103 1.65 4.11 3.107 2.433 7.36 4.2 12.052 5.029a20.991 20.991 0 01-2.832-3.523c-2.373-.704-4.531-1.676-6.337-2.865h4.809a20.725 20.725 0 01-.985-2.774h-8.363l.006.023z" fill="#F4DBB3"/><path d="M73.784 77.848l-9.34-2.919L43 83.565l-21.444-8.636-9.34 2.919a5.548 5.548 0 00-3.893 5.296A2.857 2.857 0 0011.179 86h63.642a2.857 2.857 0 002.856-2.856 5.548 5.548 0 00-3.893-5.296z" fill="#DAD8DB"/><path d="M64.444 74.929l-5.067-1.583c-.19-.06-.378-.13-.557-.208-3.816 4.478-9.476 7.313-15.82 7.313-6.344 0-12.005-2.835-15.821-7.312-.18.078-.367.147-.556.207l-5.067 1.583c4.78 6.693 12.593 11.07 21.444 11.07 8.851 0 16.664-4.377 21.444-11.07z" fill="#ECEAEC"/></g><defs><clipPath id="clip0"><path fill="#fff" d="M0 0h86v86H0z"/></clipPath></defs></svg>