<svg width="90" height="90" fill="none" xmlns="http://www.w3.org/2000/svg"><g clip-path="url(#clip0)"><path d="M61.556 76.54a5.807 5.807 0 01-3.492-5.325v-6.758H31.935v6.758c0 2.33-1.39 4.413-3.492 5.326l-.557 7.658h34.228l-.558-7.659z" fill="#F6D190"/><path d="M31.935 64.457A24.528 24.528 0 0045 68.226c4.804 0 9.273-1.395 13.065-3.77v-4.94h-26.13v4.94z" fill="#ECBD83"/><path d="M56.613 0H37.742c-2.703 0-4.954 1.855-5.601 4.355L18.87 39.194h52.258V14.516C71.129 6.5 64.629 0 56.613 0z" fill="#966A5B"/><path d="M31.935 4.355h-2.903c-5.612 0-10.161 4.55-10.161 10.161v24.678h13.065V4.355z" fill="#785353"/><path d="M74.026 40.411c-.123-2.355-2.237-4.12-4.595-4.12h-1.205a4.355 4.355 0 01-4.355-4.355v-7.259c0-3.206-2.6-5.806-5.806-5.806h-26.13l-5.128 31.666L66.7 45h2.976a4.355 4.355 0 004.35-4.589z" fill="#FFE09F"/><path d="M31.935 43.548V18.871a5.806 5.806 0 00-5.806 5.806v7.259a4.355 4.355 0 01-4.355 4.354H20.57c-2.358 0-4.472 1.766-4.595 4.121a4.355 4.355 0 004.349 4.59H23.3l6.755 2.258c.733.038 1.47.058 2.21.07a21.91 21.91 0 01-.329-3.78z" fill="#F6D190"/><path d="M36.29 40.645a1.45 1.45 0 01-1.451-1.452v-1.451a1.45 1.45 0 112.903 0v1.451a1.45 1.45 0 01-1.452 1.452zm17.42 0a1.45 1.45 0 01-1.452-1.452v-1.451a1.45 1.45 0 112.903 0v1.451a1.45 1.45 0 01-1.451 1.452z" fill="#6E4848"/><path d="M31.653 34.403a1.45 1.45 0 01-1.235-1.29 1.45 1.45 0 011.296-1.59l5.954-.61a1.45 1.45 0 011.591 1.297 1.45 1.45 0 01-1.296 1.59l-5.954.61c-.12.012-.24.01-.356-.007zm26.733-.073c-.115.02-.235.025-.356.015l-5.966-.474a1.45 1.45 0 01-1.332-1.56c.062-.8.762-1.4 1.56-1.333l5.967.474a1.45 1.45 0 011.332 1.56 1.45 1.45 0 01-1.206 1.318z" fill="#785353"/><path d="M65.226 33.39c-.772.05-1.355.725-1.355 1.498v8.706c0 .776-.63 1.406-1.406 1.406h-30.48c-3.772 9.668 1.413 19.907 12.95 19.907 1.485 0 3.003.266 4.407-.019 6.488-1.317 11.946-5.524 14.96-11.211l1.725-4.322c.391-1.4.645-2.857.747-4.355V34.839c0-.834-.703-1.503-1.548-1.449z" fill="#FAF5DC"/><path d="M64.302 53.677a21.22 21.22 0 001.725-4.322H32.723A21.72 21.72 0 0131.985 45h-4.45c-.776 0-1.406-.63-1.406-1.406v-8.706c0-.773-.584-1.448-1.355-1.498a1.452 1.452 0 00-1.548 1.449V45c.101 1.498.355 2.954.746 4.355L25.7 53.68c3.667 6.915 10.948 11.642 19.3 11.642 1.487 0 2.939-.15 4.342-.435a21.717 21.717 0 01-11.025-5.946 38.61 38.61 0 006.683.574c7.61 0 14.632-2.184 19.302-5.84zm-28.949 1.579a21.753 21.753 0 01-1.599-2.998H61.28c-4.14 2.727-10.016 4.355-16.28 4.355-3.403 0-6.69-.481-9.647-1.357z" fill="#F5EBCD"/><path d="M23.977 49.379c.544 2.092 1.724 4.293 1.727 4.3 3.252 2.547 7.703 4.397 12.613 5.264a21.974 21.974 0 01-2.964-3.687c-2.484-.737-4.742-1.754-6.631-2.998h5.032a21.674 21.674 0 01-1.03-2.903H23.97l.006.024z" fill="#F4DBB3"/><path d="M77.216 81.469l-9.775-3.055L45 87.451l-22.441-9.037-9.775 3.055A5.806 5.806 0 008.71 87.01 2.99 2.99 0 0011.7 90h66.6a2.99 2.99 0 002.99-2.99 5.806 5.806 0 00-4.075-5.541z" fill="#DAD8DB"/><path d="M67.441 78.414l-5.302-1.657a5.898 5.898 0 01-.583-.217c-3.994 4.686-9.917 7.653-16.556 7.653-6.64 0-12.563-2.966-16.557-7.652a5.865 5.865 0 01-.582.216l-5.302 1.657C27.56 85.418 35.737 90 45 90c9.263 0 17.44-4.582 22.441-11.586z" fill="#ECEAEC"/></g><defs><clipPath id="clip0"><path fill="#fff" d="M0 0h90v90H0z"/></clipPath></defs></svg>