<svg width="86" height="86" fill="none" xmlns="http://www.w3.org/2000/svg"><g clip-path="url(#clip0)"><path d="M74.63 31.346L34.538 71.44a4.64 4.64 0 01-6.561 0L4.382 47.846a4.64 4.64 0 010-6.561L44.476 1.19a4.64 4.64 0 016.56 0l23.595 23.594a4.639 4.639 0 010 6.56z" fill="#8CBAFA"/><path d="M74.63 24.785l-2.943-2.945c1.613 1.613 1.452 4.39-.36 6.202L31.233 68.136c-1.812 1.812-4.588 1.973-6.202.36l2.945 2.944a4.64 4.64 0 006.561 0l40.094-40.094a4.639 4.639 0 000-6.561z" fill="#5692D8"/><path d="M12.092 46.196a1.26 1.26 0 01-.891-2.15l19.638-19.64a1.26 1.26 0 111.782 1.782l-19.639 19.64a1.258 1.258 0 01-.89.368zm6.241 6.241a1.26 1.26 0 01-.891-2.15l19.638-19.64a1.26 1.26 0 111.782 1.782L19.223 52.068c-.246.246-.568.37-.89.37z" fill="#252D4C"/><path d="M43.82 10.33l-3.928 3.928a3.955 3.955 0 105.593 5.593l3.929-3.929a3.955 3.955 0 10-5.593-5.593z" fill="#FFCD34"/><path d="M78.416 43.186h-56.7a4.64 4.64 0 00-4.64 4.64v33.367a4.64 4.64 0 004.64 4.64h56.7a4.64 4.64 0 004.64-4.64V47.826a4.639 4.639 0 00-4.64-4.64z" fill="#F3D989"/><path d="M78.416 43.186h-4.152a4.64 4.64 0 014.64 4.64v33.367a4.64 4.64 0 01-4.64 4.64h4.153a4.64 4.64 0 004.639-4.64V47.826a4.639 4.639 0 00-4.64-4.64z" fill="#BC9C3B"/><path d="M17.076 53.669h65.98v8.016h-65.98v-8.016z" fill="#575B7A"/><path d="M78.903 53.669h4.153v8.016h-4.153v-8.016z" fill="#252D4C"/><path d="M66.84 74.493v4.944c0 .382.31.692.692.692h7.864c.382 0 .692-.31.692-.692v-4.944a.692.692 0 00-.692-.692h-7.864a.692.692 0 00-.692.692zm-23.71 0v4.944c0 .382.31.692.692.692h16.633c.383 0 .692-.31.692-.692v-4.944a.692.692 0 00-.692-.692H43.822a.692.692 0 00-.692.692z" fill="#E9E9EA"/><path d="M36.35 81.389h-8.286a1.26 1.26 0 110-2.52h8.286a1.26 1.26 0 110 2.52z" fill="#252D4C"/></g><defs><clipPath id="clip0"><path fill="#fff" d="M0 0h86v86H0z"/></clipPath></defs></svg>