<svg width="90" height="90" fill="none" xmlns="http://www.w3.org/2000/svg"><path d="M90 48.264A10.67 10.67 0 0179.326 58.94c-.748 0-1.475-.076-2.18-.223H12.854c-.703.148-1.431.223-2.179.223h-.007C4.773 58.934 0 54.159 0 48.264c0-5.556 4.246-10.12 9.672-10.623a10.81 10.81 0 012.325.032h66.006a10.81 10.81 0 013.179.082c5.01.876 8.818 5.249 8.818 10.51z" fill="#FFD0A6"/><path d="M81.182 37.755v13.52c0 2.626-.342 5.182-.988 7.627a10.585 10.585 0 01-3.048-.187H12.854c-.703.149-1.431.224-2.179.224h-.007a29.91 29.91 0 01-.995-7.663V37.64a10.81 10.81 0 012.325.032h66.006a10.81 10.81 0 013.179.082z" fill="#E8B182"/><path d="M84.18 49.964c-.532 0-1.038-.31-1.264-.83-1.092-2.511-4.194-1.744-4.544-1.648a1.38 1.38 0 01-1.693-.958 1.375 1.375 0 01.947-1.694c1.978-.562 6.157-.615 7.817 3.202a1.377 1.377 0 01-1.263 1.928zm-77.505 0a1.378 1.378 0 01-1.263-1.927c1.66-3.818 5.84-3.764 7.817-3.203a1.378 1.378 0 01-.747 2.652c-.356-.097-3.452-.86-4.543 1.649a1.379 1.379 0 01-1.264.829z" fill="#D6996B"/><path d="M78.003 32.862v22.185c0 15.875-11.357 29.096-26.389 31.987a32.698 32.698 0 01-6.188.586c-17.99 0-32.573-14.582-32.573-32.573V32.863c0-17.99 14.582-32.575 32.573-32.575 2.116 0 4.186.2 6.188.586a32.506 32.506 0 0116.847 8.954c5.894 5.898 9.542 14.04 9.542 23.034z" fill="#E8B182"/><path d="M78.002 32.864v22.183c0 15.874-11.356 29.096-26.388 31.986-15.032-2.89-26.388-16.112-26.388-31.986V32.864c0-15.875 11.356-29.1 26.388-31.99a32.499 32.499 0 0116.847 8.954c5.895 5.897 9.541 14.04 9.541 23.036z" fill="#FFD0A6"/><path d="M78.003 32.863v4.81c-38.565-.049-51.384-15.821-51.384-15.821 0 6.552-6.552 13.465-13.766 15.82v-4.809c0-17.99 14.583-32.576 32.574-32.576a32.499 32.499 0 0123.035 9.541c5.894 5.897 9.541 14.04 9.541 23.035z" fill="#5B5B68"/><path d="M51.613.875C40.094 3.09 30.735 11.371 26.986 22.265c-.25-.265-.369-.413-.369-.413 0 6.552-6.551 13.465-13.765 15.82v-4.809c0-17.99 14.583-32.576 32.574-32.576 2.116 0 4.185.202 6.187.588zM31.236 50.946c-.76 0-1.377-.617-1.377-1.378v-6.17a1.377 1.377 0 112.755 0v6.17c0 .761-.617 1.378-1.378 1.378zm28.383 0a1.378 1.378 0 01-1.378-1.378v-6.17a1.377 1.377 0 112.755 0v6.17c0 .761-.616 1.378-1.377 1.378z" fill="#40404C"/><path d="M78.003 39.712v5.106l-9.891 15.438a1.377 1.377 0 01-2.32-1.486l12.21-19.058z" fill="#E4E4EF"/><path d="M24.135 59.876a1.373 1.373 0 01-1.903-.417l-9.378-14.64v-5.107l11.698 18.26a1.376 1.376 0 01-.417 1.904z" fill="#CACADB"/><path d="M69.842 55.002v13.706l-8.519 15.18a11.406 11.406 0 01-9.946 5.825h-11.9a11.408 11.408 0 01-9.946-5.825l-8.519-15.18V55.002l9.182-1.124 15.234-1.864 24.414 2.988z" fill="#E4E4EF"/><path d="M39.477 89.713a11.408 11.408 0 01-9.946-5.825l-8.519-15.18V55.002l9.182-1.124c0 12.497 1.657 31.884 9.283 35.835z" fill="#CACADB"/></svg>