<svg width="98" height="98" fill="none" xmlns="http://www.w3.org/2000/svg"><path d="M49 0C33.943 15.822 8.932 12.25 8.932 12.25v42.875C8.932 80.391 49 98 49 98s40.068-17.61 40.068-42.875V12.25S64.057 15.822 49 0z" fill="#E9D798"/><path d="M49 14.104c-10.719 11.269-28.533 8.729-28.533 8.729v30.533c0 17.99 28.533 30.53 28.533 30.53s28.535-12.541 28.535-30.533V22.829S59.719 25.373 49 14.104z" fill="#F0E9A4"/><path d="M46.195 64.611L31.397 52.248l3.926-4.701 9.696 8.102 15.887-22.525 5.007 3.53L46.195 64.61z" fill="#fff"/></svg>