<svg width="90" height="90" fill="none" xmlns="http://www.w3.org/2000/svg"><path d="M90 11.53c0-2.218-.644-4.424-1.91-6.341A11.494 11.494 0 0078.462.002C72.1.002 67.26 4.837 67.26 11.2v6.03a2.637 2.637 0 002.639 2.638 2.637 2.637 0 002.639-2.638V11.2c0-3.45 2.474-5.92 5.924-5.92 2.142 0 4.046 1.026 5.226 2.814 1.175 1.786 1.366 3.937.525 5.909L78.67 27.384c-.582 1.319.041 2.888 1.386 3.463a2.636 2.636 0 003.464-1.387l5.543-13.379c.629-1.464.938-3.01.938-4.55z" fill="#A4D9F5"/><path d="M31.398 80.756a2.637 2.637 0 00-3.677-2.425l-13.719 5.88c-1.968.843-4.125.65-5.913-.527-1.786-1.18-2.812-3.085-2.812-5.226a6.263 6.263 0 016.257-6.257h6.03a2.637 2.637 0 002.638-2.638 2.637 2.637 0 00-2.639-2.639h-6.03C5.175 66.924 0 72.1 0 78.458c0 3.888 1.938 7.488 5.184 9.63a11.501 11.501 0 0010.895.974l13.719-5.88a2.634 2.634 0 001.6-2.426z" fill="#B7E0F6"/><path d="M55.141 21.128c1.62-.74-2.024-6.98-.538-8.001 1.497-1.029 2.841-2.101 3.782-3.041L60.57 7.9a2.638 2.638 0 013.731 0c-.764-.765 21.915 21.838 22.463 22.387.496.495.773 1.206.773 1.905v6.86c0 2.158-.375 4.002-.819 6.192-.395 1.95-6.191-1.377-6.9.561L55.14 21.128zM30.625 86.304c.764.764-21.841-21.792-22.39-22.34a2.638 2.638 0 010-3.732l2.186-2.185c.954-.953 2.023-2.294 3.045-3.78 1.023-1.49 7.262 2.153 8 .537L46.14 79.481c-1.939.71 1.388 6.505-.562 6.9-2.188.444-4.374.695-6.53.695h-6.557c-.7 0-1.37-.277-1.866-.772z" fill="#58A4B5"/><path d="M45.6 86.356c9.816-1.953 19.051-7.863 26.123-14.935C78.742 64.4 84.705 55.22 86.71 45.245L54.625 13.107c-2.533 1.742-6.755 4.116-9.763 4.116-5.435 0-10.765 2.217-14.618 6.07l-3.325 3.324-3.324 3.325c-3.906 3.905-6.016 9.076-6.016 14.617 0 3.009-2.428 7.23-4.117 9.71l32.139 32.087z" fill="#83D7EA"/><path d="M71.723 71.42c7.019-7.018 12.982-16.2 14.987-26.175L54.625 13.107c-2.533 1.742-6.755 4.116-9.763 4.116-5.435 0-10.765 2.217-14.618 6.07l-3.325 3.324 44.804 44.804z" fill="#B0EEFC"/><path d="M33.252 42.66l4.855-4.855 4.908-4.855c.527-.528.739-1.214.739-1.9 0-.686-.211-1.32-.74-1.847a2.613 2.613 0 00-3.746 0l-4.855 4.908-4.855 4.803c-1.055 1.055-1.055 2.743 0 3.746a2.55 2.55 0 003.694 0z" fill="#B0EEFC"/><path d="M38.107 37.805l4.908-4.855c.527-.528.739-1.214.739-1.9 0-.686-.211-1.32-.74-1.847a2.613 2.613 0 00-3.746 0l-4.855 4.908 3.694 3.694z" fill="#83D7EA"/></svg>