<svg width="90" height="90" fill="none" xmlns="http://www.w3.org/2000/svg"><g clip-path="url(#clip0)"><path d="M78.083 7.78h-5.115a1.318 1.318 0 100 2.638h1.24v3.844a1.318 1.318 0 102.636 0v-3.844h1.24a1.318 1.318 0 100-2.637zm-14.349 0c-.728 0-1.318.591-1.318 1.32v5.162a1.318 1.318 0 102.637 0V9.099c0-.728-.59-1.318-1.319-1.318zm-50.83 49.286c-.728 0-1.318-.59-1.318-1.318V50.88a1.318 1.318 0 012.637 0v4.867c0 .728-.59 1.318-1.319 1.318z" fill="#7C7A72"/><path d="M14.597 50.881h-3.385a.88.88 0 01-.88-.879v-2.898h5.144v2.898a.879.879 0 01-.88.88z" fill="#7C7A72"/><path d="M12.904 50.881h-1.692a.88.88 0 01-.88-.879v-2.898h2.572v3.777z" fill="#56544C"/><path d="M89.093 38.195h-3.17v-8.457h3.17c.5 0 .907.406.907.907v6.643c0 .5-.406.907-.907.907z" fill="#7C7A72"/><path d="M87.962 29.737h-2.038v8.457h2.038v-8.457z" fill="#56544C"/><path d="M77.478 14.262h-65.28a8.445 8.445 0 00-8.445 8.445v23.518c0 .486.394.88.879.88h13.067a4.896 4.896 0 004.895-4.896v-2.584a6.146 6.146 0 016.146-6.146h22.168c.5 0 .907.407.907.907v31.53H0V81.31c0 .501.406.908.907.908h84.108a.907.907 0 00.907-.907V22.706a8.445 8.445 0 00-8.445-8.445z" fill="#EDC9C1"/><path d="M80.836 65.916H57.644V35.2c0-.501.407-.907.907-.907H79.93c.501 0 .907.406.907.907v30.716z" fill="#F4F4F4"/><path d="M51.815 60.018H5.898a5.897 5.897 0 00-5.897 5.898h51.814v-5.898z" fill="#7C7A72"/><path d="M16.23 60.018a5.897 5.897 0 00-5.897 5.897H0a5.898 5.898 0 015.899-5.897h10.33z" fill="#56544C"/><path d="M0 65.915h10.333v16.304H.907A.907.907 0 010 81.312V65.915zm22.531-51.654a8.446 8.446 0 00-8.446 8.446v24.398H4.631a.879.879 0 01-.879-.879V22.707a8.446 8.446 0 018.446-8.446h10.333z" fill="#DDB6AD"/><path d="M63.734 65.916h-6.09V35.2c0-.501.406-.907.907-.907h5.183v31.623z" fill="#DDD"/><path d="M29.784 34.797c-.729 0-1.319-.59-1.319-1.318v-4.357a1.318 1.318 0 012.637 0v4.357c0 .728-.59 1.319-1.319 1.319zm4.394 0c-.728 0-1.319-.59-1.319-1.318v-4.357a1.318 1.318 0 012.637 0v4.357c0 .728-.59 1.319-1.318 1.319zm4.394 0c-.728 0-1.319-.59-1.319-1.318v-4.357a1.318 1.318 0 012.637 0v4.357c0 .728-.59 1.319-1.318 1.319zm24.883 8.63a1.669 1.669 0 100-3.337 1.669 1.669 0 000 3.337zm5.785 0a1.669 1.669 0 100-3.337 1.669 1.669 0 000 3.337zm5.785 0a1.669 1.669 0 100-3.337 1.669 1.669 0 000 3.337zm-11.57 7.233a1.669 1.669 0 100-3.337 1.669 1.669 0 000 3.338zm5.785 0a1.669 1.669 0 100-3.337 1.669 1.669 0 000 3.338zm5.785 0a1.669 1.669 0 100-3.337 1.669 1.669 0 000 3.338zm-11.57 7.236a1.669 1.669 0 100-3.338 1.669 1.669 0 000 3.338zm5.785 0a1.669 1.669 0 100-3.338 1.669 1.669 0 000 3.338zm5.785 0a1.669 1.669 0 100-3.338 1.669 1.669 0 000 3.338z" fill="#7C7A72"/><path d="M62.949 28.736a3.96 3.96 0 100-7.92 3.96 3.96 0 000 7.92z" fill="#F35856"/><path d="M66.267 26.935a3.953 3.953 0 01-3.319 1.801 3.96 3.96 0 01-1.145-7.75 3.961 3.961 0 004.463 5.95z" fill="#E53838"/><path d="M76.551 28.736a3.96 3.96 0 100-7.92 3.96 3.96 0 000 7.92z" fill="#F35856"/><path d="M79.868 26.934a3.953 3.953 0 01-3.319 1.802 3.96 3.96 0 01-1.145-7.751 3.961 3.961 0 004.463 5.95z" fill="#E53838"/><path d="M63.453 25.296a1.318 1.318 0 01-1.097-2.048l1.67-2.51a1.319 1.319 0 012.195 1.459l-1.669 2.51a1.316 1.316 0 01-1.099.589zm12.463.617c-.045 0-.09-.003-.136-.007l-2.999-.308a1.318 1.318 0 11.27-2.623l2.998.308a1.318 1.318 0 01-.133 2.63z" fill="#C60000"/></g><defs><clipPath id="clip0"><path fill="#fff" d="M0 0h90v90H0z"/></clipPath></defs></svg>