<svg width="86" height="86" viewBox="0 0 86 86" fill="none" xmlns="http://www.w3.org/2000/svg">
<g clip-path="url(#clip0)">
<path d="M74.6307 31.3459L34.5373 71.4399C32.725 73.2515 29.7876 73.2515 27.976 71.4399L4.38224 47.8462C2.57067 46.034 2.57067 43.0965 4.38224 41.2849L44.4757 1.19083C46.2879 -0.62074 49.2254 -0.62074 51.0369 1.19083L74.6307 24.7846C76.4429 26.5961 76.4429 29.5343 74.6307 31.3459V31.3459Z" fill="#8CBAFA"/>
<path d="M74.6307 24.7847L71.6866 21.84C73.3 23.4534 73.1386 26.2301 71.3271 28.0417L31.233 68.1358C29.4214 69.948 26.6447 70.1088 25.0313 68.4953L27.976 71.44C29.7876 73.2516 32.725 73.2516 34.5373 71.44L74.6307 31.346C76.4429 29.5344 76.4429 26.5962 74.6307 24.7847V24.7847Z" fill="#5692D8"/>
<path d="M12.0917 46.1961C11.7689 46.1961 11.4468 46.0727 11.2007 45.8267C10.7086 45.3346 10.7086 44.5374 11.2007 44.0453L30.8393 24.4067C31.3314 23.9146 32.1293 23.9146 32.6207 24.4067C33.1128 24.8988 33.1128 25.6966 32.6207 26.1881L12.9821 45.8273C12.736 46.0727 12.4139 46.1961 12.0917 46.1961Z" fill="#252D4C"/>
<path d="M18.3328 52.4372C18.01 52.4372 17.6878 52.3138 17.4418 52.0677C16.9497 51.5757 16.9497 50.7785 17.4418 50.2864L37.0804 30.6478C37.5725 30.1557 38.3703 30.1557 38.8618 30.6478C39.3539 31.1399 39.3539 31.9377 38.8618 32.4291L19.2232 52.0677C18.9771 52.3138 18.655 52.4372 18.3328 52.4372Z" fill="#252D4C"/>
<path d="M43.8208 10.3294L39.8919 14.2577C38.3474 15.8022 38.3474 18.306 39.8919 19.8505C41.4364 21.395 43.9409 21.395 45.4854 19.8505L49.4137 15.9223C50.9582 14.3777 50.9582 11.8739 49.4137 10.3294C47.8691 8.78489 45.3647 8.78489 43.8208 10.3294V10.3294Z" fill="#FFCD34"/>
<path d="M78.4165 43.1864H21.7151C19.153 43.1864 17.0757 45.2637 17.0757 47.8259V81.1927C17.0757 83.7549 19.153 85.8322 21.7151 85.8322H78.4165C80.9793 85.8322 83.056 83.7549 83.056 81.1927V47.8259C83.0566 45.2637 80.9793 43.1864 78.4165 43.1864V43.1864Z" fill="#F3D989"/>
<path d="M78.4165 43.1864H74.2639C76.8261 43.1864 78.9034 45.2637 78.9034 47.8259V81.1927C78.9034 83.7549 76.8261 85.8322 74.2639 85.8322H78.4165C80.9794 85.8322 83.056 83.7549 83.056 81.1927V47.8259C83.0567 45.2637 80.9794 43.1864 78.4165 43.1864V43.1864Z" fill="#BC9C3B"/>
<path d="M17.0757 53.6687H83.0566V61.6846H17.0757V53.6687Z" fill="#575B7A"/>
<path d="M78.9034 53.6687H83.0561V61.6846H78.9034V53.6687Z" fill="#252D4C"/>
<path d="M66.8398 74.493V79.4369C66.8398 79.8194 67.1494 80.1291 67.532 80.1291H75.3957C75.7782 80.1291 76.0879 79.8194 76.0879 79.4369V74.493C76.0879 74.1105 75.7782 73.8008 75.3957 73.8008H67.532C67.1494 73.8008 66.8398 74.1105 66.8398 74.493V74.493Z" fill="#E9E9EA"/>
<path d="M43.1299 74.493V79.4369C43.1299 79.8194 43.4403 80.1291 43.8221 80.1291H60.455C60.8375 80.1291 61.1472 79.8194 61.1472 79.4369V74.493C61.1472 74.1105 60.8375 73.8008 60.455 73.8008H43.8221C43.4403 73.8008 43.1299 74.1105 43.1299 74.493V74.493Z" fill="#E9E9EA"/>
<path d="M36.3501 81.3888H28.0639C27.3677 81.3888 26.8041 80.8245 26.8041 80.129C26.8041 79.4329 27.3677 78.8693 28.0639 78.8693H36.3501C37.0463 78.8693 37.6099 79.4329 37.6099 80.129C37.6099 80.8245 37.0463 81.3888 36.3501 81.3888Z" fill="#252D4C"/>
</g>
<defs>
<clipPath id="clip0">
<rect width="86" height="86" fill="white"/>
</clipPath>
</defs>
</svg>
