<svg width="98" height="98" viewBox="0 0 98 98" fill="none" xmlns="http://www.w3.org/2000/svg">
<path d="M49 0C33.9432 15.8224 8.93176 12.25 8.93176 12.25V55.125C8.93176 80.3906 49 98 49 98C49 98 89.0682 80.3906 89.0682 55.125V12.25C89.0682 12.25 64.0568 15.8224 49 0Z" fill="#E9D798"/>
<path d="M49 14.1044C38.2812 25.3728 20.4667 22.8325 20.4667 22.8325V53.3656C20.4667 71.3563 49 83.8957 49 83.8957C49 83.8957 77.5348 71.3547 77.5348 53.3626V22.8294C77.5348 22.8294 59.7187 25.3728 49 14.1044Z" fill="#F0E9A4"/>
<path d="M46.1948 64.6111L31.3968 52.2477L35.3229 47.5468L45.0188 55.6487L60.9055 33.124L65.9127 36.6535L46.1948 64.6111Z" fill="white"/>
</svg>
