<svg width="90" height="90" viewBox="0 0 90 90" fill="none" xmlns="http://www.w3.org/2000/svg">
<g clip-path="url(#clip0)">
<path d="M78.0834 7.78094H72.9675C72.2392 7.78094 71.6491 8.37122 71.6491 9.0993C71.6491 9.82739 72.2392 10.4177 72.9675 10.4177H74.2073V14.2616C74.2073 14.9897 74.7974 15.58 75.5256 15.58C76.2539 15.58 76.844 14.9897 76.844 14.2616V10.4177H78.0836C78.8119 10.4177 79.402 9.82739 79.402 9.0993C79.402 8.37122 78.8117 7.78094 78.0834 7.78094Z" fill="#7C7A72"/>
<path d="M63.7344 7.78094C63.0061 7.78094 62.416 8.37122 62.416 9.0993V14.2616C62.416 14.9897 63.0061 15.58 63.7344 15.58C64.4627 15.58 65.0528 14.9897 65.0528 14.2616V9.0993C65.0528 8.37122 64.4627 7.78094 63.7344 7.78094Z" fill="#7C7A72"/>
<path d="M12.9044 57.0661C12.1764 57.0661 11.5861 56.4758 11.5861 55.7477V50.8814C11.5861 50.1533 12.1764 49.563 12.9044 49.563C13.6325 49.563 14.2228 50.1533 14.2228 50.8814V55.7477C14.2228 56.4758 13.6325 57.0661 12.9044 57.0661Z" fill="#7C7A72"/>
<path d="M14.5969 50.8813H11.2119C10.7265 50.8813 10.3329 50.4877 10.3329 50.0024V47.1042H15.4758V50.0024C15.4758 50.4879 15.0822 50.8813 14.5969 50.8813Z" fill="#7C7A72"/>
<path d="M12.9043 50.8813H11.2119C10.7265 50.8813 10.3329 50.4877 10.3329 50.0024V47.1042H12.9043V50.8813Z" fill="#56544C"/>
<path d="M89.0928 38.1948H85.9233V29.7378H89.0928C89.5938 29.7378 90 30.144 90 30.645V37.2878C90 37.7886 89.5938 38.1948 89.0928 38.1948Z" fill="#7C7A72"/>
<path d="M87.962 29.7369H85.9236V38.1938H87.962V29.7369Z" fill="#56544C"/>
<path d="M77.4779 14.2617H12.1984C7.5342 14.2617 3.75297 18.0427 3.75297 22.7071V46.2255C3.75297 46.7109 4.14654 47.1045 4.63187 47.1045H17.6986C20.4023 47.1045 22.5941 44.9126 22.5941 42.2089V39.625C22.5941 37.9111 23.3099 36.2749 24.5685 35.1116C25.704 34.0622 27.1934 33.4793 28.7397 33.4793H50.9077C51.4087 33.4793 51.8149 33.8855 51.8149 34.3865V65.9159H0.000915527V81.3115C0.000915527 81.8125 0.407146 82.2187 0.908122 82.2187H85.0163C85.5173 82.2187 85.9235 81.8125 85.9235 81.3115V22.7069C85.9233 18.0427 82.1423 14.2617 77.4779 14.2617Z" fill="#EDC9C1"/>
<path d="M80.8363 65.9157H57.6443V35.2C57.6443 34.699 58.0505 34.2928 58.5515 34.2928H79.9291C80.4301 34.2928 80.8363 34.699 80.8363 35.2V65.9157Z" fill="#F4F4F4"/>
<path d="M51.8149 60.0184H5.89802C2.64097 60.0184 0.000732422 62.6586 0.000732422 65.9157H51.8149V60.0184Z" fill="#7C7A72"/>
<path d="M16.2297 60.0182C12.9728 60.0182 10.3329 62.6581 10.3329 65.915H0C0 62.6581 2.64182 60.0182 5.89852 60.0182H16.2297Z" fill="#56544C"/>
<path d="M0 65.9149H10.333V82.219H0.907207C0.406231 82.219 0 81.8127 0 81.3118V65.9149Z" fill="#DDB6AD"/>
<path d="M22.5311 14.2611C17.8662 14.2611 14.0852 18.0423 14.0852 22.707V47.1051H4.63113C4.1458 47.1051 3.75223 46.7116 3.75223 46.2262V22.707C3.75223 18.0425 7.53363 14.2611 12.1982 14.2611H22.5311Z" fill="#DDB6AD"/>
<path d="M63.7344 65.9157H57.6441V35.2C57.6441 34.699 58.0503 34.2928 58.5513 34.2928H63.7344V65.9157Z" fill="#DDDDDD"/>
<path d="M29.7835 34.7975C29.0554 34.7975 28.4651 34.2072 28.4651 33.4791V29.122C28.4651 28.3939 29.0554 27.8036 29.7835 27.8036C30.5116 27.8036 31.1019 28.3939 31.1019 29.122V33.4791C31.1019 34.2072 30.5116 34.7975 29.7835 34.7975Z" fill="#7C7A72"/>
<path d="M34.1777 34.7975C33.4496 34.7975 32.8593 34.2072 32.8593 33.4791V29.122C32.8593 28.3939 33.4496 27.8036 34.1777 27.8036C34.9058 27.8036 35.4961 28.3939 35.4961 29.122V33.4791C35.4961 34.2072 34.9058 34.7975 34.1777 34.7975Z" fill="#7C7A72"/>
<path d="M38.5719 34.7975C37.8438 34.7975 37.2535 34.2072 37.2535 33.4791V29.122C37.2535 28.3939 37.8438 27.8036 38.5719 27.8036C39.3 27.8036 39.8902 28.3939 39.8902 29.122V33.4791C39.8902 34.2072 39.3 34.7975 38.5719 34.7975Z" fill="#7C7A72"/>
<path d="M63.4553 43.4272C64.3769 43.4272 65.124 42.6801 65.124 41.7585C65.124 40.8369 64.3769 40.0898 63.4553 40.0898C62.5337 40.0898 61.7866 40.8369 61.7866 41.7585C61.7866 42.6801 62.5337 43.4272 63.4553 43.4272Z" fill="#7C7A72"/>
<path d="M69.2403 43.4272C70.1619 43.4272 70.909 42.6801 70.909 41.7585C70.909 40.8369 70.1619 40.0898 69.2403 40.0898C68.3187 40.0898 67.5716 40.8369 67.5716 41.7585C67.5716 42.6801 68.3187 43.4272 69.2403 43.4272Z" fill="#7C7A72"/>
<path d="M75.0252 43.4272C75.9468 43.4272 76.6939 42.6801 76.6939 41.7585C76.6939 40.8369 75.9468 40.0898 75.0252 40.0898C74.1036 40.0898 73.3565 40.8369 73.3565 41.7585C73.3565 42.6801 74.1036 43.4272 75.0252 43.4272Z" fill="#7C7A72"/>
<path d="M63.4553 50.6606C64.3769 50.6606 65.124 49.9135 65.124 48.9919C65.124 48.0703 64.3769 47.3232 63.4553 47.3232C62.5337 47.3232 61.7866 48.0703 61.7866 48.9919C61.7866 49.9135 62.5337 50.6606 63.4553 50.6606Z" fill="#7C7A72"/>
<path d="M69.2403 50.6606C70.1619 50.6606 70.909 49.9135 70.909 48.9919C70.909 48.0703 70.1619 47.3232 69.2403 47.3232C68.3187 47.3232 67.5716 48.0703 67.5716 48.9919C67.5716 49.9135 68.3187 50.6606 69.2403 50.6606Z" fill="#7C7A72"/>
<path d="M75.0252 50.6606C75.9468 50.6606 76.6939 49.9135 76.6939 48.9919C76.6939 48.0703 75.9468 47.3232 75.0252 47.3232C74.1036 47.3232 73.3565 48.0703 73.3565 48.9919C73.3565 49.9135 74.1036 50.6606 75.0252 50.6606Z" fill="#7C7A72"/>
<path d="M63.4553 57.8958C64.3769 57.8958 65.124 57.1487 65.124 56.2271C65.124 55.3055 64.3769 54.5584 63.4553 54.5584C62.5337 54.5584 61.7866 55.3055 61.7866 56.2271C61.7866 57.1487 62.5337 57.8958 63.4553 57.8958Z" fill="#7C7A72"/>
<path d="M69.2403 57.8958C70.1619 57.8958 70.909 57.1487 70.909 56.2271C70.909 55.3055 70.1619 54.5584 69.2403 54.5584C68.3187 54.5584 67.5716 55.3055 67.5716 56.2271C67.5716 57.1487 68.3187 57.8958 69.2403 57.8958Z" fill="#7C7A72"/>
<path d="M75.0252 57.8958C75.9468 57.8958 76.6939 57.1487 76.6939 56.2271C76.6939 55.3055 75.9468 54.5584 75.0252 54.5584C74.1036 54.5584 73.3565 55.3055 73.3565 56.2271C73.3565 57.1487 74.1036 57.8958 75.0252 57.8958Z" fill="#7C7A72"/>
<path d="M62.949 28.7362C65.136 28.7362 66.9088 26.9633 66.9088 24.7763C66.9088 22.5894 65.136 20.8165 62.949 20.8165C60.7621 20.8165 58.9892 22.5894 58.9892 24.7763C58.9892 26.9633 60.7621 28.7362 62.949 28.7362Z" fill="#F35856"/>
<path d="M66.2669 26.9346C65.5612 28.0195 64.3383 28.7364 62.9483 28.7364C60.762 28.7364 58.9894 26.9618 58.9894 24.7755C58.9894 22.9866 60.1759 21.475 61.8035 20.9853C61.3971 21.6058 61.1629 22.3479 61.1629 23.1427C61.1629 25.329 62.9355 27.1035 65.1238 27.1035C65.5213 27.1034 65.9041 27.0453 66.2669 26.9346Z" fill="#E53838"/>
<path d="M76.551 28.7362C78.7379 28.7362 80.5108 26.9633 80.5108 24.7763C80.5108 22.5894 78.7379 20.8165 76.551 20.8165C74.364 20.8165 72.5912 22.5894 72.5912 24.7763C72.5912 26.9633 74.364 28.7362 76.551 28.7362Z" fill="#F35856"/>
<path d="M79.8676 26.9339C79.1618 28.0188 77.9389 28.7356 76.549 28.7356C74.3626 28.7356 72.5901 26.9611 72.5901 24.7748C72.5901 22.9858 73.7766 21.4743 75.4041 20.9846C74.9977 21.6051 74.7636 22.3472 74.7636 23.1419C74.7636 25.3283 76.5362 27.1028 78.7245 27.1028C79.1219 27.1026 79.5048 27.0446 79.8676 26.9339Z" fill="#E53838"/>
<path d="M63.4534 25.2958C63.2025 25.2958 62.9492 25.2245 62.7246 25.0752C62.1183 24.6721 61.9534 23.8537 62.3565 23.2474L64.0252 20.7371C64.4284 20.1307 65.2469 19.9661 65.8529 20.369C66.4592 20.7721 66.6241 21.5905 66.221 22.1968L64.5523 24.7071C64.2987 25.0891 63.88 25.2958 63.4534 25.2958Z" fill="#C60000"/>
<path d="M75.9158 25.9128C75.8708 25.9128 75.8255 25.9105 75.7798 25.9058L72.7811 25.5981C72.0569 25.5238 71.5299 24.8766 71.6043 24.1522C71.6785 23.4278 72.3234 22.8994 73.0504 22.9751L76.0491 23.2827C76.7733 23.3571 77.3003 24.0043 77.2259 24.7287C77.1563 25.4074 76.5834 25.9128 75.9158 25.9128Z" fill="#C60000"/>
</g>
<defs>
<clipPath id="clip0">
<rect width="90" height="90" fill="white"/>
</clipPath>
</defs>
</svg>
