<svg width="90" height="90" viewBox="0 0 90 90" fill="none" xmlns="http://www.w3.org/2000/svg">
<path d="M90 11.5305C90 9.31198 89.3558 7.10627 88.0907 5.18903C85.9519 1.93971 82.3521 0.0020752 78.4612 0.0020752C72.0991 0.0020752 67.2592 4.83676 67.2592 11.1988V17.2286C67.2592 18.6871 68.4394 19.8673 69.8978 19.8673C71.3563 19.8673 72.5365 18.6871 72.5365 17.2286V11.1986C72.5365 7.7484 75.0108 5.2792 78.4612 5.2792C80.6026 5.2792 82.5068 6.30471 83.6868 8.09311C84.8619 9.8787 85.0526 12.0304 84.2124 14.0016L78.669 27.3835C78.0866 28.7028 78.7101 30.2721 80.0553 30.8468C81.3952 31.4214 82.9466 30.8004 83.5186 29.4604L89.062 16.081C89.6908 14.6174 90 13.0714 90 11.5305Z" fill="#A4D9F5"/>
<path d="M31.398 80.7564C31.398 80.4085 31.3311 80.0555 31.1841 79.718C30.6095 78.378 29.0582 77.7572 27.7209 78.3316L14.0024 84.2119C12.0338 85.0544 9.87697 84.8612 8.08875 83.6837C6.30299 82.5035 5.2773 80.5992 5.2773 78.4579C5.2773 75.0076 8.08348 72.2014 11.5337 72.2014H17.5634C19.0218 72.2014 20.202 71.0212 20.202 69.5628C20.202 68.1043 19.0218 66.9241 17.5634 66.9241H11.5335C5.17412 66.9243 0 72.0986 0 78.458C0 82.3463 1.93781 85.9461 5.18449 88.0875C8.43117 90.2289 12.5026 90.5947 16.0792 89.0615L29.7979 83.1813C30.8004 82.7534 31.398 81.7794 31.398 80.7564Z" fill="#B7E0F6"/>
<path d="M55.1414 21.1279C56.7612 20.3871 53.1167 14.1473 54.6026 13.127C56.1001 12.0985 57.4443 11.0256 58.385 10.0857C57.8572 10.6135 60.0423 8.42839 60.5702 7.90052C61.6008 6.86991 63.2707 6.86991 64.3013 7.90052C63.5367 7.13587 86.2163 29.7394 86.7644 30.2877C87.2597 30.7834 87.5375 31.4937 87.5375 32.1933C87.5375 31.6619 87.5375 38.5223 87.5375 39.0537C87.5375 41.2109 87.162 43.0548 86.7183 45.2445C86.323 47.1945 80.5268 43.8675 79.8172 45.806L55.1414 21.1279Z" fill="#58A4B5"/>
<path d="M30.6251 86.3036C31.3894 87.0683 8.78361 64.5117 8.23553 63.9636C7.20492 62.933 7.20492 61.2631 8.23553 60.2324C7.70766 60.7603 9.89279 58.5752 10.4207 58.0473C11.3748 57.0939 12.4444 55.7534 13.4655 54.2664C14.4888 52.7765 20.7276 56.4203 21.4659 54.8043L46.1396 79.4805C44.2013 80.1901 47.5283 85.9863 45.5781 86.3813C43.3898 86.8246 41.2044 87.0764 39.0486 87.0764C39.58 87.0764 33.0221 87.0764 32.4907 87.0764C31.7911 87.0765 31.1205 86.7993 30.6251 86.3036Z" fill="#58A4B5"/>
<path d="M45.6006 86.3556C55.4163 84.403 64.6515 78.4925 71.723 71.4209C78.7416 64.4019 84.7048 55.2196 86.7103 45.2454L54.6247 13.1072C52.0919 14.8488 47.87 17.2233 44.862 17.2233C39.4267 17.2233 34.0966 19.4399 30.2439 23.2923L26.9191 26.617L23.5948 29.9417C19.6893 33.8469 17.5787 39.0184 17.5787 44.5595C17.5787 47.5675 15.1509 51.7898 13.4622 54.2699L45.6006 86.3556Z" fill="#83D7EA"/>
<path d="M71.7231 71.4208C78.7417 64.4019 84.7049 55.2196 86.7104 45.2454L54.6247 13.1072C52.0919 14.8488 47.87 17.2233 44.862 17.2233C39.4267 17.2233 34.0966 19.4399 30.2439 23.2923L26.9191 26.617L71.7231 71.4208Z" fill="#B0EEFC"/>
<path d="M33.2518 42.6599L38.1071 37.805L43.0149 32.9501C43.5424 32.4223 43.7535 31.7362 43.7535 31.0501C43.7535 30.364 43.5426 29.7309 43.0149 29.2032C41.9595 28.1478 40.3235 28.1478 39.2679 29.2032L34.413 34.111L29.5578 38.9135C28.5026 39.9687 28.5026 41.6575 29.5578 42.6601C30.5604 43.7153 32.2492 43.7153 33.2518 42.6599Z" fill="#B0EEFC"/>
<path d="M38.1071 37.8047L43.0149 32.9498C43.5424 32.4219 43.7535 31.7359 43.7535 31.0498C43.7535 30.3637 43.5426 29.7306 43.0149 29.2029C41.9595 28.1475 40.3235 28.1475 39.2679 29.2029L34.413 34.1107L38.1071 37.8047Z" fill="#83D7EA"/>
</svg>
