<svg width="90" height="90" viewBox="0 0 90 90" fill="none" xmlns="http://www.w3.org/2000/svg">
<path d="M90 48.2645C90 53.8697 85.6833 58.4632 80.1943 58.9024C79.908 58.9266 79.6169 58.9388 79.3257 58.9388C78.5784 58.9388 77.8505 58.8634 77.1468 58.7156H12.8534C12.1497 58.8636 11.4216 58.9388 10.6742 58.9388H10.6669C4.77297 58.934 0 54.1586 0 48.2645C0 42.7078 4.24637 38.1435 9.67212 37.6411C10.0022 37.6072 10.337 37.5927 10.6742 37.5927C11.1231 37.5927 11.5623 37.6193 11.9967 37.6727H78.0031C78.4375 37.6193 78.8767 37.5927 79.3256 37.5927C79.9589 37.5927 80.5801 37.6485 81.1818 37.7552C86.1926 38.6313 90 43.0039 90 48.2645Z" fill="#FFD0A6"/>
<path d="M81.182 37.7552V51.2759C81.182 53.9013 80.8398 56.4566 80.1944 58.9024C79.908 58.9266 79.6169 58.9388 79.3258 58.9388C78.5784 58.9388 77.8505 58.8634 77.1468 58.7156H12.8534C12.1497 58.8636 11.4216 58.9388 10.6742 58.9388H10.6669C10.0167 56.4806 9.67212 53.9158 9.67212 51.2759V37.6411C10.0022 37.6072 10.337 37.5927 10.6742 37.5927C11.1231 37.5927 11.5623 37.6193 11.9967 37.6727H78.0031C78.4375 37.6193 78.8767 37.5927 79.3256 37.5927C79.9589 37.5927 80.5803 37.6485 81.182 37.7552Z" fill="#E8B182"/>
<path d="M84.1801 49.9636C83.6481 49.9636 83.1416 49.6537 82.916 49.1348C81.8239 46.6229 78.7225 47.3904 78.3724 47.486C77.641 47.6865 76.8823 47.2584 76.6786 46.5281C76.4749 45.7978 76.8968 45.0409 77.6262 44.8339C79.6045 44.2724 83.7831 44.2195 85.4426 48.0364C85.7459 48.7342 85.4263 49.5457 84.7285 49.8489C84.5498 49.9268 84.3636 49.9636 84.1801 49.9636Z" fill="#D6996B"/>
<path d="M6.6751 49.9636C6.49179 49.9636 6.30536 49.9267 6.12664 49.849C5.42886 49.5457 5.10927 48.7341 5.41252 48.0363C7.0722 44.2192 11.2515 44.2726 13.229 44.8339C13.9607 45.0417 14.3858 45.8034 14.178 46.5353C13.9708 47.2656 13.2126 47.6904 12.4816 47.4858C12.126 47.3887 9.03036 46.6255 7.93933 49.135C7.71341 49.6537 7.20683 49.9636 6.6751 49.9636Z" fill="#D6996B"/>
<path d="M78.0029 32.8625V55.0467C78.0029 70.9217 66.6463 84.1426 51.6144 87.0337C49.6123 87.4194 47.5423 87.6196 45.4264 87.6196C27.4354 87.6196 12.8535 73.0377 12.8535 55.0467V32.8625C12.8535 14.8734 27.4354 0.287842 45.4264 0.287842C47.5423 0.287842 49.6123 0.488047 51.6144 0.873764C58.1293 2.12642 63.9536 5.32053 68.461 9.8279C74.3551 15.7257 78.0029 23.868 78.0029 32.8625Z" fill="#E8B182"/>
<path d="M78.0025 32.8635V55.0468C78.0025 70.921 66.6463 84.1432 51.614 87.0333C36.5817 84.1432 25.2255 70.9212 25.2255 55.0468V32.8635C25.2255 16.9892 36.5817 3.76463 51.614 0.874512C58.1293 2.12662 63.9529 5.31999 68.4614 9.82846C74.3555 15.725 78.0025 23.8684 78.0025 32.8635Z" fill="#FFD0A6"/>
<path d="M78.003 32.8634V37.6728C39.4381 37.6243 26.6187 21.8518 26.6187 21.8518C26.6187 28.4035 20.067 35.3166 12.853 37.6728V32.8634C12.853 14.8733 27.4364 0.287292 45.4268 0.287292C47.5427 0.287292 49.6126 0.488784 51.6144 0.8745C58.1297 2.12661 63.9533 5.31998 68.4618 9.82845C74.3559 15.725 78.003 23.8684 78.003 32.8634Z" fill="#5B5B68"/>
<path d="M51.6133 0.8745C40.0945 3.08998 30.7355 11.3717 26.9864 22.2643C26.7364 21.9998 26.6175 21.8518 26.6175 21.8518C26.6175 28.4035 20.0659 35.3166 12.8519 37.6728V32.8634C12.8519 14.8733 27.4353 0.287292 45.4256 0.287292C47.5416 0.287292 49.6114 0.488784 51.6133 0.8745Z" fill="#40404C"/>
<path d="M31.2364 50.9457C30.4755 50.9457 29.8589 50.3289 29.8589 49.5681V43.3979C29.8589 42.6372 30.4755 42.0204 31.2364 42.0204C31.9974 42.0204 32.614 42.6372 32.614 43.3979V49.5681C32.614 50.3291 31.9974 50.9457 31.2364 50.9457Z" fill="#40404C"/>
<path d="M59.6189 50.9457C58.8579 50.9457 58.2413 50.3289 58.2413 49.5681V43.3979C58.2413 42.6372 58.8579 42.0204 59.6189 42.0204C60.3799 42.0204 60.9965 42.6372 60.9965 43.3979V49.5681C60.9965 50.3291 60.3797 50.9457 59.6189 50.9457Z" fill="#40404C"/>
<path d="M78.0029 39.7117V44.8179L68.112 60.2557C67.8494 60.6653 67.4049 60.8894 66.9512 60.8894C66.6978 60.8894 66.4406 60.8196 66.2092 60.6727C65.57 60.2612 65.3826 59.409 65.7922 58.7698L78.0029 39.7117Z" fill="#E4E4EF"/>
<path d="M24.1348 59.8755C23.9052 60.0225 23.6481 60.0941 23.3928 60.0941C22.9391 60.0941 22.4946 59.87 22.2319 59.4586L12.8535 44.8197V39.7117L24.5517 57.9727C24.9632 58.6137 24.7758 59.4659 24.1348 59.8755Z" fill="#CACADB"/>
<path d="M69.8423 55.0019V68.7077L61.3234 83.8884C59.3049 87.4848 55.5028 89.7128 51.3775 89.7128H39.4772C35.3537 89.7128 31.5498 87.4848 29.5312 83.8884L21.0124 68.7077V55.0019L30.1943 53.8778L45.4282 52.0135L69.8423 55.0019Z" fill="#E4E4EF"/>
<path d="M39.4772 89.7128C35.3537 89.7128 31.5498 87.4848 29.5312 83.8885L21.0124 68.7078V55.002L30.1943 53.8779C30.1943 66.3751 31.851 85.7619 39.4772 89.7128Z" fill="#CACADB"/>
</svg>
