<svg width="107" height="107" fill="none" xmlns="http://www.w3.org/2000/svg"><path d="M91.2 34.438H69.108v40.044h36.199V56.458l-4.222-14.59a10.289 10.289 0 00-9.883-7.43z" fill="#FF7058"/><path d="M100.021 56.273l-3.763-13.006a5.294 5.294 0 00-5.057-3.8H74.136v16.806h25.885z" fill="#84DBFF"/><path d="M100.026 56.266H74.127V39.46l25.899 16.806z" fill="#CDD6E0"/><path d="M100.021 56.273l-3.763-13.006a5.294 5.294 0 00-5.057-3.8H74.136l25.885 16.806z" fill="#F2F2F2"/><path d="M6.687 14.335H62.42a6.688 6.688 0 016.687 6.686V74.48H0V21.021a6.687 6.687 0 016.687-6.687z" fill="#FFD15C"/><path d="M45.293 14.346v17.669l-2.586-2.586-2.71 2.71-2.708-2.71-2.709 2.71-2.712-2.71-2.744 2.71-2.706-2.71-2.617 2.617v-17.7h21.492z" fill="#F2F2F2"/><path d="M107 74.477v7.556H.009v-7.556h11.167A15.292 15.292 0 0124.55 66.63c5.728 0 10.744 3.165 13.374 7.846h35.931c2.608-4.68 7.599-7.846 13.35-7.846 5.75 0 10.743 3.165 13.373 7.846H107z" fill="#334A5E"/><path d="M97.883 81.986c0 5.898-4.78 10.68-10.679 10.68-5.897 0-10.674-4.782-10.674-10.68s4.779-10.679 10.674-10.679c5.9 0 10.68 4.781 10.68 10.68z" fill="#40596B"/><path d="M91.497 81.986a4.291 4.291 0 01-8.582 0 4.29 4.29 0 014.294-4.288 4.288 4.288 0 014.288 4.288z" fill="#ACB3BA"/><path d="M35.22 81.986c0 5.898-4.783 10.68-10.679 10.68-5.898 0-10.679-4.782-10.679-10.68s4.781-10.679 10.679-10.679c5.896 0 10.68 4.781 10.68 10.68z" fill="#40596B"/><path d="M28.83 81.986c0 2.37-1.92 4.289-4.289 4.289a4.29 4.29 0 114.289-4.289z" fill="#ACB3BA"/></svg>