<svg width="107" height="107" fill="none" xmlns="http://www.w3.org/2000/svg"><path d="M98.64 25.078H41.798a3.354 3.354 0 00-3.344 3.344V98.64a3.353 3.353 0 003.344 3.343H98.64a3.348 3.348 0 002.361-.982c.627-.626.98-1.475.982-2.361V28.42a3.353 3.353 0 00-3.343-3.344z" fill="#3D9AE2"/><path d="M91.953 25.078v68.547a1.672 1.672 0 01-1.672 1.672H50.156a1.672 1.672 0 01-1.672-1.672V25.078h43.47z" fill="#E6E7E8"/><path d="M48.484 50.457a4.635 4.635 0 00-1.672-.3h-28.42l-6.688 5.015H5.016v35.11h6.687l6.688 5.015h20.062v-35.11h8.36a4.637 4.637 0 001.671-.3 4.746 4.746 0 001.873-1.17 4.998 4.998 0 00-1.873-8.26z" fill="#FFC477"/><path d="M91.953 41.011v52.614a1.672 1.672 0 01-1.672 1.672H50.156a1.671 1.671 0 01-1.672-1.672v-8.928a184.992 184.992 0 0043.47-43.686z" fill="#D8D7DA"/><path d="M30.094 68.547h8.36v3.344h-8.36v-3.344zm0 8.359h8.36v3.344h-8.36v-3.344zm0 8.36h8.36v3.343h-8.36v-3.343zM53.5 55.172a6.688 6.688 0 01-6.688 6.687H33.84l-6.337 3.16a1.67 1.67 0 01-.752.184h-5.016V61.86h4.615l6.336-3.16c.233-.119.49-.182.752-.183h13.376a3.344 3.344 0 100-6.688h-27.87l-6.237 4.681a1.645 1.645 0 01-1.003.335H5.016V53.5h6.135l6.236-4.681a1.645 1.645 0 011.004-.335h28.422a6.688 6.688 0 016.687 6.688z" fill="#FFB655"/><path d="M81.922 90.281h3.344v5.016h-3.344V90.28zm-6.688 0h3.344v5.016h-3.344V90.28zm-6.687 0h3.344v5.016h-3.344V90.28zm-6.687 0h3.343v5.016H61.86V90.28zm-6.688 0h3.344v5.016h-3.344V90.28z" fill="#BCBEC0"/><path d="M56.844 50.156h16.718V53.5H56.844v-3.344z" fill="#C6C5CA"/><path d="M76.906 50.156h6.688V53.5h-6.688v-3.344z" fill="#ACABB1"/><path d="M56.844 56.844h16.718v3.343H56.844v-3.343z" fill="#C6C5CA"/><path d="M76.906 56.844h6.688v3.343h-6.688v-3.343z" fill="#ACABB1"/><path d="M56.844 63.531h16.718v3.344H56.844v-3.344z" fill="#C6C5CA"/><path d="M76.906 63.531h6.688v3.344h-6.688v-3.344z" fill="#ACABB1"/><path d="M56.844 70.219h16.718v3.344H56.844v-3.344z" fill="#C6C5CA"/><path d="M76.906 70.219h6.688v3.344h-6.688v-3.344zM63.531 80.25h10.032v3.344H63.53V80.25zm13.375 0h6.688v3.344h-6.688V80.25zM66.875 40.125h16.719v3.344H66.875v-3.344z" fill="#ACABB1"/><path d="M74.482 18.39h-19.31v13.376h30.094V18.39H74.482z" fill="#FF9811"/><path d="M80.25 9.028v.268a4.98 4.98 0 01-3.427 4.748l-1.355.451 3.194 17.27h-3.41l-3.328-18.089a1.671 1.671 0 011.103-1.89l2.742-.902a1.672 1.672 0 001.137-1.588v-.268a1.692 1.692 0 00-1.254-1.622 20.898 20.898 0 00-10.867 0 1.692 1.692 0 00-1.254 1.622v.268a1.672 1.672 0 001.137 1.588l2.742.903a1.672 1.672 0 011.103 1.889l-3.26 18.09H61.86l3.11-17.27-1.354-.452a4.98 4.98 0 01-3.428-4.748v-.268A5.037 5.037 0 0163.9 4.196a23.846 23.846 0 0112.64 0 5.037 5.037 0 013.711 4.832z" fill="#EE8700"/></svg>