<svg width="15" height="11" viewBox="0 0 15 11" fill="none" xmlns="http://www.w3.org/2000/svg">
<g opacity="0.7">
<g clip-path="url(#clip0)">
<path d="M6.9147 8.55574L0.239632 3.6606C0.0851212 3.54738 -4.92822e-08 3.39624 -4.2238e-08 3.23509C-3.51938e-08 3.07394 0.0851212 2.9228 0.239632 2.80958L0.731092 2.44909C1.05133 2.21451 1.57182 2.21451 1.89157 2.44909L7.49689 6.55966L13.1084 2.44453C13.2629 2.33131 13.4689 2.2688 13.6885 2.2688C13.9084 2.2688 14.1144 2.33131 14.269 2.44453L14.7604 2.80502C14.9149 2.91833 15 3.06938 15 3.23053C15 3.39168 14.9149 3.54282 14.7604 3.65604L8.0792 8.55574C7.9242 8.66923 7.71725 8.73156 7.49726 8.7312C7.2764 8.73156 7.06958 8.66923 6.9147 8.55574Z" fill="white"/>
</g>
</g>
<defs>
<clipPath id="clip0">
<rect width="11" height="15" transform="matrix(-4.37114e-08 1 1 4.37114e-08 0 0)" fill="white"/>
</clipPath>
</defs>
</svg>
