<svg width="41" height="41" viewBox="0 0 41 41" fill="none" xmlns="http://www.w3.org/2000/svg">
<g clip-path="url(#clip0)">
<path d="M32.5259 4.99168C25.8703 -1.66389 15.119 -1.66389 8.54881 4.99168C1.89324 11.6472 1.89324 22.3132 8.54881 28.9688L20.4947 41L32.4406 29.0541C39.0961 22.3986 39.0961 11.6472 32.5259 4.99168Z" fill="#F3705B"/>
<path d="M20.4947 5.67427C14.2657 5.67427 9.14605 10.7086 9.14605 17.0229C9.14605 23.2519 14.1804 28.3715 20.4947 28.3715C26.7236 28.3715 31.8433 23.3372 31.8433 17.0229C31.8433 10.7086 26.7236 5.67427 20.4947 5.67427Z" fill="#F3F3F3"/>
<path d="M20.4947 9.00206L14.0951 15.3164V24.4464H26.8943V15.3164L20.4947 9.00206Z" fill="#FFD15D"/>
<path d="M22.7132 19.3268H18.3615V24.4464H22.7132V19.3268Z" fill="#435B6C"/>
<path d="M28.5154 15.6576L21.1773 8.31946C20.8359 7.97813 20.2387 7.97813 19.812 8.31946L12.4738 15.6576C12.1325 15.999 12.1325 16.5962 12.4738 17.0229C12.8152 17.3642 13.4124 17.3642 13.8391 17.0229L20.4947 10.282L27.1503 16.9375C27.3209 17.1082 27.5769 17.1935 27.8328 17.1935C28.0888 17.1935 28.3448 17.1082 28.5154 16.9375C28.8568 16.5963 28.8568 15.999 28.5154 15.6576Z" fill="#435B6C"/>
</g>
<defs>
<clipPath id="clip0">
<rect width="41" height="41" fill="white"/>
</clipPath>
</defs>
</svg>
