<svg width="21" height="21" viewBox="0 0 21 21" fill="none" xmlns="http://www.w3.org/2000/svg">
<g clip-path="url(#clip0)">
<path d="M20.5921 16.6984L18.2641 15.1462L16.1945 13.7667C15.7951 13.501 15.2583 13.5881 14.9635 13.9666L13.6828 15.6129C13.4077 15.9701 12.9129 16.0728 12.5184 15.8544C11.6495 15.371 10.6219 14.9159 8.35468 12.6458C6.08745 10.3756 5.62943 9.35099 5.14607 8.48204C4.92766 8.08756 5.03032 7.59271 5.38756 7.31766L7.03387 6.03705C7.41232 5.74223 7.49947 5.20547 7.23374 4.80602L5.89664 2.80017L4.3021 0.408332C4.0307 0.00121605 3.48741 -0.121009 3.06783 0.130619L1.22887 1.23384C0.731892 1.52665 0.366569 1.99947 0.208579 2.55429C-0.294308 4.38779 -0.395697 8.43241 6.08634 14.9144C12.5684 21.3965 16.6126 21.2948 18.4461 20.7918C19.0009 20.6339 19.4738 20.2686 19.7666 19.7715L20.8698 17.9326C21.1215 17.513 20.9992 16.9698 20.5921 16.6984Z" fill="white"/>
<path d="M11.9481 3.25853C15.3459 3.2623 18.0994 6.01582 18.1032 9.41364C18.1032 9.61358 18.2653 9.77572 18.4653 9.77572C18.6652 9.77572 18.8274 9.61363 18.8274 9.41364C18.8232 5.61608 15.7457 2.53859 11.9481 2.53441C11.7482 2.53441 11.5861 2.6965 11.5861 2.89649C11.586 3.0964 11.7481 3.25853 11.9481 3.25853Z" fill="white"/>
<path d="M11.9481 5.4309C14.1466 5.43349 15.9282 7.2151 15.9308 9.4136C15.9308 9.61355 16.0929 9.77568 16.2929 9.77568C16.4928 9.77568 16.6549 9.61359 16.6549 9.4136C16.652 6.81533 14.5464 4.70974 11.9481 4.70674C11.7481 4.70674 11.586 4.86883 11.586 5.06882C11.586 5.26881 11.7481 5.4309 11.9481 5.4309Z" fill="white"/>
<path d="M11.9481 7.6033C12.9474 7.60449 13.7572 8.4143 13.7584 9.41363C13.7584 9.61358 13.9205 9.77571 14.1205 9.77571C14.3205 9.77571 14.4826 9.61362 14.4826 9.41363C14.481 8.01456 13.3472 6.88078 11.9481 6.87918C11.7482 6.87918 11.5861 7.04127 11.5861 7.24126C11.586 7.44121 11.7481 7.6033 11.9481 7.6033Z" fill="white"/>
</g>
<defs>
<clipPath id="clip0">
<rect width="21" height="21" fill="white"/>
</clipPath>
</defs>
</svg>
