<svg width="11" height="11" viewBox="0 0 11 11" fill="none" xmlns="http://www.w3.org/2000/svg">
<g clip-path="url(#clip0)">
<path d="M10.997 5.04039C11.0372 5.56024 10.6714 6.02175 10.1804 6.07102C9.80449 6.1087 9.46443 5.89372 9.30734 5.55797L8.86172 5.59725L8.52529 5.75956C8.44833 5.79656 8.39657 5.87011 8.38477 5.95456C8.35299 6.18225 8.29533 6.40154 8.21519 6.60994C8.18795 6.68054 8.19272 6.75931 8.22972 6.82515L8.34958 7.03944L8.68284 7.26305C8.85854 7.19585 9.06308 7.21197 9.23129 7.32479C9.51642 7.51616 9.58475 7.91003 9.37272 8.18721C9.1902 8.42602 8.85082 8.49163 8.59249 8.33817C8.4279 8.24056 8.32847 8.07847 8.30418 7.90526L7.93484 7.65759L7.70238 7.62922C7.62247 7.61945 7.54302 7.64692 7.4849 7.70254C7.28876 7.88937 7.0672 8.04987 6.82634 8.17835C6.7453 8.22149 6.69332 8.30435 6.68764 8.39583L6.65813 8.86665L6.80432 9.44666C7.05313 9.51613 7.2588 9.7134 7.32645 9.98173C7.4286 10.3874 7.17662 10.799 6.76573 10.8904C6.39502 10.9731 6.01478 10.757 5.89696 10.3958C5.80525 10.1138 5.88947 9.82236 6.08334 9.6319L5.93646 9.04849L5.70968 8.68391C5.64884 8.58607 5.54124 8.52818 5.42592 8.52841C5.42523 8.52841 5.42478 8.52841 5.4241 8.52841C5.22547 8.52841 5.03114 8.50866 4.84318 8.47165C4.73126 8.44941 4.61572 8.48482 4.53717 8.56768L4.23752 8.8839L3.90199 9.57992C3.98054 9.73951 3.98758 9.93224 3.90449 10.105C3.75512 10.4146 3.37419 10.5377 3.06977 10.3665C2.80917 10.2196 2.69634 9.89546 2.80985 9.61851C2.88726 9.42964 3.04775 9.30342 3.22936 9.2612L3.56693 8.56064L3.63321 8.0905C3.64525 8.00378 3.6121 7.91638 3.544 7.86145C3.27545 7.64352 3.04526 7.38041 2.86524 7.08348C2.82052 7.0097 2.74015 6.96498 2.65389 6.9643L2.18443 6.95976L1.67048 7.12139C1.63439 7.44102 1.41555 7.72501 1.08911 7.82762C0.650522 7.96565 0.183335 7.72456 0.0409991 7.2887C-0.101336 6.85307 0.139068 6.37657 0.574247 6.23265C0.878895 6.13186 1.19898 6.21562 1.41555 6.42152L1.96105 6.2499L2.35946 5.96591C2.41871 5.92391 2.45026 5.85354 2.44436 5.78135C2.43778 5.70122 2.43437 5.6204 2.43437 5.53868C2.43437 5.09464 2.53199 4.67309 2.70633 4.29398C2.73176 4.23836 2.73107 4.17434 2.70429 4.11941L2.58624 3.87809L2.26593 3.63633C2.08659 3.69376 1.88342 3.66629 1.72179 3.54439C1.44756 3.33736 1.40125 2.94031 1.62826 2.67539C1.82371 2.44725 2.16627 2.40048 2.41576 2.56802C2.57466 2.67471 2.66501 2.84179 2.67954 3.01614L3.03459 3.28401L3.39236 3.3478C3.65274 3.10603 3.95625 2.91012 4.28973 2.77278L4.37372 2.26246L4.26771 1.73534C3.95398 1.65453 3.69927 1.41412 3.63072 1.09358C3.53401 0.640698 3.84524 0.199616 4.32605 0.108585C4.80663 0.0175539 5.27473 0.310624 5.37143 0.76351C5.44385 1.10244 5.28789 1.43455 5.00322 1.61843L5.10333 2.11559L5.34919 2.50786C5.3653 2.53351 5.39345 2.54895 5.42365 2.54895H5.4241C5.98709 2.54895 6.5142 2.70559 6.96437 2.97754C6.98911 2.9923 7.01953 2.99434 7.04564 2.98208L7.43065 2.80365L7.88013 2.3174C7.85311 2.14305 7.90283 1.95827 8.032 1.81866C8.26536 1.56645 8.6649 1.56009 8.90599 1.8123C9.11733 2.03363 9.12551 2.38664 8.92483 2.61773C8.79498 2.76733 8.6086 2.83634 8.42654 2.82272L7.97706 3.30898L7.83109 3.70171C7.82088 3.72895 7.82542 3.75937 7.84244 3.78298C8.01974 4.02633 8.16117 4.29738 8.25878 4.58841C8.28579 4.66832 8.34936 4.73052 8.43063 4.75345L8.79611 4.85583L9.27102 4.81383C9.38748 4.47808 9.67828 4.22406 10.0354 4.18819C10.5264 4.13893 10.957 4.52053 10.997 5.04039Z" fill="#EE938D"/>
<path d="M5.42413 7.75247C6.64679 7.75247 7.63794 6.76132 7.63794 5.53867C7.63794 4.31601 6.64679 3.32486 5.42413 3.32486C4.20148 3.32486 3.21033 4.31601 3.21033 5.53867C3.21033 6.76132 4.20148 7.75247 5.42413 7.75247Z" fill="#F3A5A5"/>
<path d="M3.88509 5.53867C3.88509 4.4307 4.69897 3.51287 5.76152 3.3504C5.65151 3.33358 5.53884 3.32486 5.42413 3.32486C4.20146 3.32486 3.21033 4.31599 3.21033 5.53867C3.21033 6.76135 4.20146 7.75247 5.42413 7.75247C5.53884 7.75247 5.65151 7.74376 5.76152 7.72694C4.69899 7.56444 3.88509 6.64661 3.88509 5.53867Z" fill="#DB7D77"/>
<path d="M1.69928 1.51397C2.04746 1.51397 2.32971 1.23172 2.32971 0.883544C2.32971 0.535366 2.04746 0.253113 1.69928 0.253113C1.3511 0.253113 1.06885 0.535366 1.06885 0.883544C1.06885 1.23172 1.3511 1.51397 1.69928 1.51397Z" fill="#EB6755"/>
<path d="M1.527 9.61C1.75698 9.61 1.94341 9.42357 1.94341 9.1936C1.94341 8.96362 1.75698 8.77719 1.527 8.77719C1.29703 8.77719 1.1106 8.96362 1.1106 9.1936C1.1106 9.42357 1.29703 9.61 1.527 9.61Z" fill="#EB6755"/>
<path d="M9.17242 10.491C9.51116 10.491 9.78576 10.2164 9.78576 9.87762C9.78576 9.53888 9.51116 9.26428 9.17242 9.26428C8.83368 9.26428 8.55908 9.53888 8.55908 9.87762C8.55908 10.2164 8.83368 10.491 9.17242 10.491Z" fill="#EB6755"/>
<path d="M4.74467 5.49996C5.06047 5.49996 5.31648 5.24395 5.31648 4.92814C5.31648 4.61233 5.06047 4.35632 4.74467 4.35632C4.42886 4.35632 4.17285 4.61233 4.17285 4.92814C4.17285 5.24395 4.42886 5.49996 4.74467 5.49996Z" fill="#BB5D57"/>
<path d="M5.20366 7.09348C5.41862 7.09348 5.59287 6.91923 5.59287 6.70427C5.59287 6.48932 5.41862 6.31506 5.20366 6.31506C4.98871 6.31506 4.81445 6.48932 4.81445 6.70427C4.81445 6.91923 4.98871 7.09348 5.20366 7.09348Z" fill="#BB5D57"/>
<path d="M6.4257 5.86551C6.60621 5.86551 6.75253 5.71918 6.75253 5.53868C6.75253 5.35818 6.60621 5.21185 6.4257 5.21185C6.2452 5.21185 6.09888 5.35818 6.09888 5.53868C6.09888 5.71918 6.2452 5.86551 6.4257 5.86551Z" fill="#BB5D57"/>
</g>
<defs>
<clipPath id="clip0">
<rect width="11" height="11" fill="white"/>
</clipPath>
</defs>
</svg>
