<svg width="21" height="21" viewBox="0 0 21 21" fill="none" xmlns="http://www.w3.org/2000/svg">
<g opacity="0.7">
<g clip-path="url(#clip0)">
<path d="M20.9795 6.17406C20.9303 5.05825 20.7499 4.29114 20.4914 3.62643C20.2247 2.92085 19.8145 2.28915 19.277 1.76402C18.7519 1.23071 18.116 0.816306 17.4186 0.553819C16.7501 0.295338 15.9869 0.114898 14.8711 0.0657019C13.747 0.0123391 13.3901 0 10.539 0C7.68783 0 7.33096 0.0123391 6.21098 0.0615355C5.09517 0.110732 4.32806 0.291332 3.66351 0.549653C2.95778 0.816306 2.32608 1.22654 1.80094 1.76402C1.26764 2.28915 0.853393 2.92502 0.590745 3.62242C0.332264 4.29114 0.151824 5.05408 0.102628 6.16989C0.0492654 7.29404 0.0369263 7.65091 0.0369263 10.5021C0.0369263 13.3532 0.0492654 13.7101 0.0984617 14.83C0.147658 15.9459 0.328258 16.713 0.586739 17.3777C0.853393 18.0833 1.26764 18.715 1.80094 19.2401C2.32608 19.7734 2.96194 20.1878 3.65935 20.4503C4.32806 20.7088 5.09101 20.8892 6.20698 20.9384C7.32679 20.9878 7.68383 20.9999 10.535 20.9999C13.3861 20.9999 13.743 20.9878 14.863 20.9384C15.9788 20.8892 16.7459 20.7088 17.4104 20.4503C18.8217 19.9046 19.9376 18.7888 20.4832 17.3777C20.7415 16.709 20.9221 15.9459 20.9713 14.83C21.0205 13.7101 21.0329 13.3532 21.0329 10.5021C21.0329 7.65091 21.0287 7.29404 20.9795 6.17406ZM19.0884 14.748C19.0432 15.7736 18.8709 16.3274 18.7274 16.6966C18.3745 17.6115 17.6484 18.3376 16.7335 18.6904C16.3643 18.834 15.8065 19.0063 14.7849 19.0513C13.6773 19.1007 13.3451 19.1129 10.5431 19.1129C7.7412 19.1129 7.40484 19.1007 6.3012 19.0513C5.27561 19.0063 4.72179 18.834 4.35258 18.6904C3.89731 18.5222 3.48291 18.2555 3.14655 17.9068C2.79785 17.5663 2.5312 17.1561 2.36293 16.7008C2.21935 16.3316 2.04708 15.7736 2.00205 14.7522C1.9527 13.6445 1.94052 13.3122 1.94052 10.5102C1.94052 7.70828 1.9527 7.37192 2.00205 6.26844C2.04708 5.24285 2.21935 4.68903 2.36293 4.31982C2.5312 3.8644 2.79785 3.45015 3.15072 3.11363C3.49108 2.76493 3.90132 2.49828 4.35675 2.33017C4.72596 2.18659 5.28395 2.01432 6.30537 1.96913C7.41301 1.91994 7.74536 1.9076 10.5471 1.9076C13.3533 1.9076 13.6855 1.91994 14.7891 1.96913C15.8147 2.01432 16.3685 2.18659 16.7377 2.33017C17.193 2.49828 17.6074 2.76493 17.9437 3.11363C18.2924 3.45416 18.5591 3.8644 18.7274 4.31982C18.8709 4.68903 19.0432 5.24686 19.0884 6.26844C19.1376 7.37608 19.1499 7.70828 19.1499 10.5102C19.1499 13.3122 19.1376 13.6404 19.0884 14.748Z" fill="white"/>
<path d="M10.539 5.10742C7.56074 5.10742 5.14435 7.52365 5.14435 10.502C5.14435 13.4804 7.56074 15.8966 10.539 15.8966C13.5173 15.8966 15.9336 13.4804 15.9336 10.502C15.9336 7.52365 13.5173 5.10742 10.539 5.10742ZM10.539 14.0014C8.60684 14.0014 7.03961 12.4343 7.03961 10.502C7.03961 8.56975 8.60684 7.00268 10.539 7.00268C12.4712 7.00268 14.0383 8.56975 14.0383 10.502C14.0383 12.4343 12.4712 14.0014 10.539 14.0014Z" fill="white"/>
<path d="M17.4064 4.89416C17.4064 5.58964 16.8425 6.15355 16.1468 6.15355C15.4514 6.15355 14.8875 5.58964 14.8875 4.89416C14.8875 4.19852 15.4514 3.63477 16.1468 3.63477C16.8425 3.63477 17.4064 4.19852 17.4064 4.89416Z" fill="white"/>
</g>
</g>
<defs>
<clipPath id="clip0">
<rect width="21" height="21" fill="white"/>
</clipPath>
</defs>
</svg>
