<svg width="21" height="21" viewBox="0 0 21 21" fill="none" xmlns="http://www.w3.org/2000/svg">
<g opacity="0.7">
<g clip-path="url(#clip0)">
<path d="M20.5921 16.6984L18.2641 15.1462L16.1945 13.7667C15.7951 13.501 15.2583 13.5881 14.9635 13.9666L13.6828 15.6129C13.4077 15.9702 12.9129 16.0728 12.5184 15.8544C11.6495 15.371 10.6219 14.9159 8.35468 12.6458C6.08745 10.3756 5.62943 9.351 5.14607 8.48206C4.92766 8.08757 5.03032 7.59273 5.38756 7.31768L7.03387 6.03706C7.41232 5.74225 7.49947 5.20548 7.23374 4.80603L5.89664 2.80019L4.3021 0.408348C4.0307 0.0012313 3.48741 -0.120994 3.06783 0.130634L1.22887 1.23386C0.731892 1.52667 0.366569 1.99949 0.208579 2.5543C-0.294308 4.3878 -0.395697 8.43243 6.08634 14.9145C12.5684 21.3965 16.6126 21.2948 18.4461 20.7919C19.0009 20.6339 19.4738 20.2686 19.7666 19.7716L20.8698 17.9326C21.1215 17.513 20.9992 16.9698 20.5921 16.6984Z" fill="white"/>
<path d="M11.9481 3.25879C15.3459 3.26256 18.0994 6.01608 18.1032 9.41389C18.1032 9.61384 18.2653 9.77598 18.4653 9.77598C18.6652 9.77598 18.8274 9.61388 18.8274 9.41389C18.8232 5.61634 15.7457 2.53885 11.9481 2.53467C11.7482 2.53467 11.5861 2.69676 11.5861 2.89675C11.586 3.09666 11.7481 3.25879 11.9481 3.25879Z" fill="white"/>
<path d="M11.9481 5.43071C14.1466 5.43329 15.9282 7.21491 15.9308 9.4134C15.9308 9.61335 16.0929 9.77548 16.2929 9.77548C16.4928 9.77548 16.6549 9.61339 16.6549 9.4134C16.652 6.81513 14.5464 4.70954 11.9481 4.70654C11.7481 4.70654 11.586 4.86863 11.586 5.06862C11.586 5.26861 11.7481 5.43071 11.9481 5.43071Z" fill="white"/>
<path d="M11.9481 7.60352C12.9474 7.60471 13.7572 8.41451 13.7584 9.41384C13.7584 9.61379 13.9205 9.77592 14.1205 9.77592C14.3205 9.77592 14.4826 9.61383 14.4826 9.41384C14.481 8.01478 13.3472 6.88099 11.9481 6.87939C11.7482 6.87939 11.5861 7.04149 11.5861 7.24148C11.586 7.44142 11.7481 7.60352 11.9481 7.60352Z" fill="white"/>
</g>
</g>
<defs>
<clipPath id="clip0">
<rect width="21" height="21" fill="white"/>
</clipPath>
</defs>
</svg>
