<svg width="107" height="107" viewBox="0 0 107 107" fill="none" xmlns="http://www.w3.org/2000/svg">
<path d="M91.2009 34.438H69.1072V74.4817H105.306V56.4581L101.084 41.8672C99.8115 37.4672 95.7814 34.438 91.2009 34.438Z" fill="#FF7058"/>
<path d="M100.021 56.2729L96.2585 43.2668C95.6098 41.0311 93.5302 39.4663 91.2008 39.4663H74.1358V56.2729H100.021Z" fill="#84DBFF"/>
<path d="M100.026 56.266H74.127V39.4595L100.026 56.266Z" fill="#CDD6E0"/>
<path d="M100.021 56.2729L96.2585 43.2668C95.6098 41.0311 93.5302 39.4663 91.2008 39.4663H74.1358L100.021 56.2729Z" fill="#F2F2F2"/>
<path d="M6.68694 14.3345H62.4203C66.1115 14.3345 69.1072 17.3279 69.1072 21.0214V74.4791H0V21.0214C0 17.3281 2.99345 14.3345 6.68694 14.3345Z" fill="#FFD15C"/>
<path d="M45.2929 14.3457V32.0147L42.7072 29.4291L39.9969 32.1396L37.2887 29.4291L34.5805 32.1396L31.8677 29.4291L29.1239 32.1396L26.4178 29.4291L23.8011 32.046V14.3457H45.2929Z" fill="#F2F2F2"/>
<path d="M107 74.4769V82.0332H0.00897217V74.4769H11.1762C13.7841 69.7961 18.7993 66.6309 24.55 66.6309C30.2784 66.6309 35.2936 69.7961 37.9239 74.4769H73.8551C76.463 69.7961 81.4538 66.6309 87.2046 66.6309C92.9553 66.6309 97.9482 69.7961 100.578 74.4769H107Z" fill="#334A5E"/>
<path d="M97.8834 81.9862C97.8834 87.8841 93.1023 92.6652 87.2044 92.6652C81.3065 92.6652 76.5297 87.8841 76.5297 81.9862C76.5297 76.0883 81.3086 71.3071 87.2044 71.3071C93.1046 71.3071 97.8834 76.0883 97.8834 81.9862Z" fill="#40596B"/>
<path d="M91.4974 81.9864C91.4974 84.3559 89.5759 86.275 87.2087 86.275C84.8393 86.275 82.9157 84.3559 82.9157 81.9864C82.9157 79.6169 84.8372 77.6978 87.2087 77.6978C89.5759 77.6957 91.4974 79.6171 91.4974 81.9864Z" fill="#ACB3BA"/>
<path d="M35.2201 81.9862C35.2201 87.8841 30.4366 92.6652 24.541 92.6652C18.6432 92.6652 13.862 87.8841 13.862 81.9862C13.862 76.0883 18.6432 71.3071 24.541 71.3071C30.4366 71.3071 35.2201 76.0883 35.2201 81.9862Z" fill="#40596B"/>
<path d="M28.8297 81.9864C28.8297 84.3559 26.9106 86.275 24.5411 86.275C22.1716 86.275 20.2504 84.3559 20.2504 81.9864C20.2504 79.6169 22.1718 77.6978 24.5411 77.6978C26.9103 77.6978 28.8297 79.6171 28.8297 81.9864Z" fill="#ACB3BA"/>
</svg>
