<svg width="107" height="107" viewBox="0 0 107 107" fill="none" xmlns="http://www.w3.org/2000/svg">
<path d="M98.6406 25.0781H41.7969C40.9109 25.0808 40.0619 25.4339 39.4354 26.0604C38.8089 26.6869 38.4558 27.5359 38.4531 28.4219V98.6406C38.4558 99.5266 38.8089 100.376 39.4354 101.002C40.0619 101.629 40.9109 101.982 41.7969 101.984H98.6406C99.5266 101.982 100.376 101.629 101.002 101.002C101.629 100.376 101.982 99.5266 101.984 98.6406V28.4219C101.982 27.5359 101.629 26.6869 101.002 26.0604C100.376 25.4339 99.5266 25.0808 98.6406 25.0781Z" fill="#3D9AE2"/>
<path d="M91.9531 25.0781V93.625C91.9531 94.0684 91.777 94.4937 91.4634 94.8072C91.1499 95.1207 90.7247 95.2969 90.2812 95.2969H50.1562C49.7128 95.2969 49.2876 95.1207 48.9741 94.8072C48.6605 94.4937 48.4844 94.0684 48.4844 93.625V25.0781H91.9531Z" fill="#E6E7E8"/>
<path d="M48.4844 50.4573C47.9504 50.2548 47.3836 50.1528 46.8125 50.1563H18.3906L11.7031 55.172H5.01562V90.2813H11.7031L18.3906 95.297H38.4531V60.1876H46.8125C47.3836 60.1911 47.9504 60.0891 48.4844 59.8867C49.1919 59.6492 49.8334 59.2483 50.3569 58.7163C50.9566 58.1191 51.3948 57.3794 51.6305 56.5666C51.8662 55.7538 51.8917 54.8944 51.7046 54.069C51.5175 53.2436 51.1238 52.4792 50.5606 51.8475C49.9974 51.2158 49.283 50.7375 48.4844 50.4573Z" fill="#FFC477"/>
<path d="M91.9531 41.0112V93.6251C91.9531 94.0685 91.777 94.4938 91.4634 94.8073C91.1499 95.1209 90.7247 95.297 90.2812 95.297H50.1562C49.7128 95.297 49.2876 95.1209 48.9741 94.8073C48.6605 94.4938 48.4844 94.0685 48.4844 93.6251V84.6973C65.3147 72.6682 80.0081 57.9013 91.9531 41.0112Z" fill="#D8D7DA"/>
<path d="M30.0938 68.5469H38.4531V71.8906H30.0938V68.5469Z" fill="#FFB655"/>
<path d="M30.0938 76.9062H38.4531V80.25H30.0938V76.9062Z" fill="#FFB655"/>
<path d="M30.0938 85.2656H38.4531V88.6094H30.0938V85.2656Z" fill="#FFB655"/>
<path d="M53.5 55.1719C53.5 56.9455 52.7954 58.6465 51.5413 59.9007C50.2871 61.1548 48.5861 61.8594 46.8125 61.8594H33.8387L27.5023 65.0192C27.2694 65.1386 27.0117 65.2016 26.75 65.2031H21.7344V61.8594H26.3488L32.6852 58.6996C32.9181 58.5802 33.1758 58.5172 33.4375 58.5156H46.8125C47.6993 58.5156 48.5498 58.1634 49.1769 57.5363C49.804 56.9092 50.1562 56.0587 50.1562 55.1719C50.1562 54.2851 49.804 53.4346 49.1769 52.8075C48.5498 52.1804 47.6993 51.8281 46.8125 51.8281H18.9423L12.7062 56.5094C12.4178 56.7282 12.0652 56.8457 11.7031 56.8438H5.01562V53.5H11.1514L17.3875 48.8188C17.676 48.6 18.0286 48.4824 18.3906 48.4844H46.8125C48.5861 48.4844 50.2871 49.189 51.5413 50.4431C52.7954 51.6973 53.5 53.3983 53.5 55.1719Z" fill="#FFB655"/>
<path d="M81.9219 90.2812H85.2656V95.2969H81.9219V90.2812Z" fill="#BCBEC0"/>
<path d="M75.2344 90.2812H78.5781V95.2969H75.2344V90.2812Z" fill="#BCBEC0"/>
<path d="M68.5469 90.2812H71.8906V95.2969H68.5469V90.2812Z" fill="#BCBEC0"/>
<path d="M61.8594 90.2812H65.2031V95.2969H61.8594V90.2812Z" fill="#BCBEC0"/>
<path d="M55.1719 90.2812H58.5156V95.2969H55.1719V90.2812Z" fill="#BCBEC0"/>
<path d="M56.8438 50.1562H73.5625V53.5H56.8438V50.1562Z" fill="#C6C5CA"/>
<path d="M76.9062 50.1562H83.5938V53.5H76.9062V50.1562Z" fill="#ACABB1"/>
<path d="M56.8438 56.8438H73.5625V60.1875H56.8438V56.8438Z" fill="#C6C5CA"/>
<path d="M76.9062 56.8438H83.5938V60.1875H76.9062V56.8438Z" fill="#ACABB1"/>
<path d="M56.8438 63.5312H73.5625V66.875H56.8438V63.5312Z" fill="#C6C5CA"/>
<path d="M76.9062 63.5312H83.5938V66.875H76.9062V63.5312Z" fill="#ACABB1"/>
<path d="M56.8438 70.2188H73.5625V73.5625H56.8438V70.2188Z" fill="#C6C5CA"/>
<path d="M76.9062 70.2188H83.5938V73.5625H76.9062V70.2188Z" fill="#ACABB1"/>
<path d="M63.5312 80.25H73.5625V83.5938H63.5312V80.25Z" fill="#ACABB1"/>
<path d="M76.9062 80.25H83.5938V83.5938H76.9062V80.25Z" fill="#ACABB1"/>
<path d="M66.875 40.125H83.5938V43.4688H66.875V40.125Z" fill="#ACABB1"/>
<path d="M74.482 18.3906H65.9555H55.1719V25.0781V31.7656H63.5312H76.9062H85.2656V25.0781V18.3906H74.482Z" fill="#FF9811"/>
<path d="M80.25 9.02814V9.29564C80.2536 10.3477 79.9239 11.3738 79.3082 12.2268C78.6924 13.0799 77.8223 13.7159 76.8227 14.0438L75.4684 14.4952L78.6617 31.7656H75.2511L71.9241 13.676C71.8503 13.281 71.9212 12.8727 72.1239 12.5258C72.3265 12.1789 72.6473 11.9165 73.0275 11.7867L75.7694 10.8839C76.1014 10.7718 76.3899 10.5581 76.5939 10.2731C76.7979 9.98806 76.9072 9.64614 76.9063 9.29564V9.02814C76.9035 8.65786 76.7794 8.2987 76.5529 8.00576C76.3264 7.71282 76.01 7.50228 75.6523 7.40642C72.0933 6.44812 68.3442 6.44812 64.7852 7.40642C64.4275 7.50228 64.1111 7.71282 63.8846 8.00576C63.6581 8.2987 63.534 8.65786 63.5312 9.02814V9.29564C63.5303 9.64614 63.6396 9.98806 63.8436 10.2731C64.0476 10.5581 64.3361 10.7718 64.6681 10.8839L67.41 11.7867C67.7902 11.9165 68.111 12.1789 68.3136 12.5258C68.5163 12.8727 68.5872 13.281 68.5134 13.676L65.2533 31.7656H61.8594L64.9691 14.4952L63.6148 14.0438C62.6152 13.7159 61.7451 13.0799 61.1293 12.2268C60.5136 11.3738 60.1839 10.3477 60.1875 9.29564V9.02814C60.1936 7.92796 60.5598 6.86003 61.23 5.98754C61.9002 5.11505 62.8376 4.48597 63.8991 4.19642C68.0355 3.05953 72.402 3.05953 76.5384 4.19642C77.5998 4.48597 78.5373 5.11505 79.2075 5.98754C79.8777 6.86003 80.2439 7.92796 80.25 9.02814Z" fill="#EE8700"/>
</svg>
