<svg width="86" height="86" viewBox="0 0 86 86" fill="none" xmlns="http://www.w3.org/2000/svg">
<g clip-path="url(#clip0)">
<path d="M58.8198 73.1383C56.8116 72.2662 55.4838 70.2766 55.4838 68.0499V61.5918H30.5161V68.0499C30.5161 70.2771 29.1878 72.2671 27.1787 73.1388L26.6462 80.4571H59.3538L58.8198 73.1383Z" fill="#F6D190"/>
<path d="M30.5161 61.5919C34.1395 63.861 38.4095 65.1936 43.0001 65.1936C47.5906 65.1936 51.8606 63.861 55.484 61.5919V56.8711H30.5161V61.5919Z" fill="#ECBD83"/>
<path d="M54.0967 0H36.0646C33.4821 0 31.331 1.77241 30.7122 4.16126L18.0323 37.4517H67.9677V13.871C67.9677 6.21014 61.7574 0 54.0967 0V0Z" fill="#966A5B"/>
<path d="M30.5161 4.16113H27.7419C22.3795 4.16113 18.0323 8.50833 18.0323 13.8707V37.4514H30.5162V4.16113H30.5161Z" fill="#785353"/>
<path d="M70.736 38.6153C70.6183 36.365 68.5984 34.6778 66.3451 34.6778H65.1935C62.8954 34.6778 61.0323 32.8146 61.0323 30.5165V23.5811C61.0323 20.5166 58.5482 18.0327 55.4839 18.0327H30.5161L25.6152 48.2913L63.7364 43.0003H66.5806C68.953 43.0003 70.8618 41.015 70.736 38.6153Z" fill="#FFE09F"/>
<path d="M30.5161 41.6129V18.0322C27.4516 18.0322 24.9677 20.5163 24.9677 23.5806V30.516C24.9677 32.8141 23.1046 34.6773 20.8065 34.6773H19.6549C17.4016 34.6773 15.3819 36.3645 15.264 38.6148C15.1382 41.0147 17.047 42.9999 19.4194 42.9999H22.2636L28.7181 45.1582C29.4191 45.1943 30.1237 45.2139 30.8293 45.2259C30.6239 44.0524 30.5161 42.8452 30.5161 41.6129Z" fill="#F6D190"/>
<path d="M34.6775 38.8385C33.9107 38.8385 33.2904 38.218 33.2904 37.4514V36.0643C33.2904 35.2976 33.9109 34.6772 34.6775 34.6772C35.4441 34.6772 36.0646 35.2977 36.0646 36.0643V37.4514C36.0646 38.218 35.4441 38.8385 34.6775 38.8385Z" fill="#6E4848"/>
<path d="M51.3225 38.8385C50.5557 38.8385 49.9354 38.218 49.9354 37.4514V36.0643C49.9354 35.2976 50.5559 34.6772 51.3225 34.6772C52.0893 34.6772 52.7096 35.2977 52.7096 36.0643V37.4514C52.7096 38.218 52.0893 38.8385 51.3225 38.8385Z" fill="#6E4848"/>
<path d="M30.5147 33.2903C29.8929 33.2903 29.328 32.8704 29.1709 32.2391C28.984 31.4969 29.4365 30.7437 30.1801 30.5581L35.7284 29.171C36.4693 28.9827 37.2239 29.4366 37.4095 30.1802C37.5964 30.9224 37.1439 31.6756 36.4003 31.8612L30.852 33.2483C30.7396 33.2767 30.6259 33.2903 30.5147 33.2903Z" fill="#785353"/>
<path d="M55.4853 33.2907C55.3743 33.2907 55.2604 33.2771 55.1481 33.2487L49.5997 31.8616C48.8561 31.676 48.4036 30.9229 48.5906 30.1806C48.7748 29.437 49.5293 28.9818 50.2716 29.1715L55.8199 30.5585C56.5635 30.7441 57.016 31.4973 56.8291 32.2396C56.6719 32.8708 56.107 33.2907 55.4853 33.2907Z" fill="#785353"/>
<path d="M62.327 31.9063C61.5898 31.954 61.0321 32.599 61.0321 33.3379V41.6564C61.0321 42.3985 60.4304 43.0001 59.6884 43.0001H30.5634C26.959 52.2384 31.9141 62.0226 42.937 62.0226C44.357 62.0226 45.8076 62.2766 47.1492 62.0041C53.3487 60.7457 58.5638 56.7252 61.4438 51.2911L63.0929 47.1612C63.4665 45.8229 63.7092 44.4309 63.8063 43V33.2904C63.8064 32.4939 63.1349 31.8541 62.327 31.9063Z" fill="#FAF5DC"/>
<path d="M61.4438 51.2912C62.1392 49.9764 62.6894 48.6242 63.0929 47.1614H31.2689C30.8993 45.8232 30.6578 44.4317 30.5634 43.0001H26.3114C25.5694 43.0001 24.9677 42.3985 24.9677 41.6564V33.3379C24.9677 32.5992 24.4102 31.954 23.6728 31.9063C22.8649 31.8541 22.1934 32.4937 22.1934 33.2904V43.0001C22.2906 44.4311 22.5333 45.823 22.9067 47.1612L24.5582 51.2954C28.0622 57.903 35.0189 62.4195 42.9998 62.4195C44.4213 62.4195 45.8081 62.2759 47.149 62.0041C43.0781 61.175 39.4422 59.1527 36.6141 56.3228C38.6551 56.6819 40.7971 56.8712 43 56.8712C50.2727 56.8712 56.9812 54.784 61.4438 51.2912ZM33.7819 52.7999C33.2012 51.8909 32.6904 50.9335 32.2542 49.9356H58.5555C54.5996 52.5411 48.9854 54.0968 43 54.0968C39.7484 54.0968 36.6076 53.6371 33.7819 52.7999Z" fill="#F5EBCD"/>
<path d="M22.9116 47.184C23.4316 49.1833 24.5584 51.2866 24.5619 51.2933C27.6695 53.7265 31.9223 55.4942 36.6142 56.3225C35.5528 55.2572 34.5935 54.0739 33.7817 52.7997C31.4085 52.0959 29.2506 51.1244 27.4453 49.9353H32.254C31.864 49.0422 31.5319 48.1142 31.2687 47.1611H22.9061C22.9084 47.1689 22.9096 47.1763 22.9116 47.184Z" fill="#F4DBB3"/>
<path d="M73.784 77.848L64.4438 74.9292L43 83.5646L21.5563 74.9292L12.216 77.848C9.89975 78.5718 8.32269 80.7171 8.32269 83.1437C8.32269 84.7213 9.60161 86.0002 11.1792 86.0002H74.821C76.3986 86.0002 77.6775 84.7213 77.6775 83.1437C77.6775 80.7169 76.1003 78.5718 73.784 77.848Z" fill="#DAD8DB"/>
<path d="M64.4437 74.9289L59.3773 73.3456C59.1876 73.2863 58.9992 73.216 58.8198 73.1382C55.0035 77.6157 49.3442 80.4515 43 80.4515C36.6558 80.4515 30.9951 77.6164 27.1787 73.1389C26.9993 73.2166 26.8124 73.2863 26.6227 73.3456L21.5563 74.9289C26.3357 81.6218 34.1489 85.9999 43 85.9999C51.8511 85.9999 59.6643 81.6218 64.4437 74.9289Z" fill="#ECEAEC"/>
</g>
<defs>
<clipPath id="clip0">
<rect width="86" height="86" fill="white"/>
</clipPath>
</defs>
</svg>
