<svg width="90" height="90" viewBox="0 0 90 90" fill="none" xmlns="http://www.w3.org/2000/svg">
<g clip-path="url(#clip0)">
<path d="M61.5556 76.5401C59.4539 75.6274 58.0644 73.5453 58.0644 71.215V64.4565H31.9354V71.215C31.9354 73.5458 30.5453 75.6283 28.4428 76.5406L27.8856 84.1992H62.1144L61.5556 76.5401Z" fill="#F6D190"/>
<path d="M31.9354 64.4565C35.7274 66.8311 40.1959 68.2257 45 68.2257C49.8041 68.2257 54.2727 66.8311 58.0646 64.4565V59.5161H31.9354V64.4565Z" fill="#ECBD83"/>
<path d="M56.6128 0H37.742C35.0393 0 32.7883 1.85484 32.1407 4.3548L18.871 39.1936H71.129V14.5162C71.129 6.49898 64.6298 0 56.6128 0V0Z" fill="#966A5B"/>
<path d="M31.9354 4.35498H29.0322C23.4204 4.35498 18.871 8.90438 18.871 14.5162V39.1936H31.9356V4.35498H31.9354Z" fill="#785353"/>
<path d="M74.0261 40.411C73.9028 38.056 71.7891 36.2903 69.431 36.2903H68.2258C65.8208 36.2903 63.871 34.3405 63.871 31.9355V24.6775C63.871 21.4705 61.2714 18.8711 58.0646 18.8711H31.9354L26.8066 50.537L66.7009 44.9999H69.6774C72.1601 44.9999 74.1577 42.9224 74.0261 40.411Z" fill="#FFE09F"/>
<path d="M31.9354 43.5485V18.8711C28.7284 18.8711 26.129 21.4707 26.129 24.6775V31.9355C26.129 34.3405 24.1792 36.2903 21.7742 36.2903H20.569C18.2109 36.2903 16.0973 38.056 15.9739 40.411C15.8423 42.9225 17.8398 45.0001 20.3226 45.0001H23.2991L30.0538 47.2587C30.7874 47.2965 31.5248 47.3171 32.2632 47.3295C32.0482 46.1015 31.9354 44.8382 31.9354 43.5485Z" fill="#F6D190"/>
<path d="M36.2903 40.6448C35.4879 40.6448 34.8387 39.9955 34.8387 39.1932V37.7416C34.8387 36.9392 35.4881 36.29 36.2903 36.29C37.0926 36.29 37.7419 36.9394 37.7419 37.7416V39.1932C37.7419 39.9955 37.0926 40.6448 36.2903 40.6448Z" fill="#6E4848"/>
<path d="M53.7096 40.6448C52.9072 40.6448 52.258 39.9955 52.258 39.1932V37.7416C52.258 36.9392 52.9073 36.29 53.7096 36.29C54.512 36.29 55.1612 36.9394 55.1612 37.7416V39.1932C55.1612 39.9955 54.512 40.6448 53.7096 40.6448Z" fill="#6E4848"/>
<path d="M31.6531 34.4025C31.009 34.3097 30.4866 33.7905 30.4181 33.1132C30.3353 32.3164 30.9164 31.6038 31.7143 31.5226L37.6684 30.9139C38.4639 30.8294 39.1777 31.4122 39.259 32.2101C39.3419 33.0068 38.7607 33.7195 37.9628 33.8007L32.0087 34.4094C31.8881 34.422 31.7683 34.4191 31.6531 34.4025Z" fill="#785353"/>
<path d="M58.3855 34.3299C58.2709 34.3491 58.151 34.3547 58.0301 34.3448L52.0638 33.8711C51.2642 33.8079 50.6671 33.1086 50.7319 32.3102C50.7937 31.5109 51.4939 30.9108 52.2928 30.9783L58.2591 31.4521C59.0586 31.5153 59.6558 32.2145 59.5909 33.0129C59.5377 33.6916 59.0271 34.2226 58.3855 34.3299Z" fill="#785353"/>
<path d="M65.2259 33.3903C64.4544 33.4403 63.8708 34.1153 63.8708 34.8885V43.5939C63.8708 44.3705 63.2412 45.0002 62.4646 45.0002H31.985C28.2129 54.6681 33.3984 64.9074 44.9341 64.9074C46.4201 64.9074 47.9382 65.1732 49.3422 64.888C55.8301 63.5711 61.2877 59.3636 64.3017 53.6767L66.0275 49.3548C66.4184 47.9542 66.6724 46.4975 66.774 45V34.8388C66.7742 34.0052 66.0714 33.3357 65.2259 33.3903Z" fill="#FAF5DC"/>
<path d="M64.3016 53.6769C65.0294 52.3009 65.6052 50.8858 66.0274 49.355H32.7232C32.3365 47.9545 32.0837 46.4983 31.9849 45.0002H27.5352C26.7586 45.0002 26.129 44.3705 26.129 43.5939V34.8885C26.129 34.1154 25.5455 33.4403 24.7739 33.3903C23.9284 33.3357 23.2256 34.005 23.2256 34.8388V45.0002C23.3274 46.4976 23.5814 47.9543 23.9721 49.3548L25.7004 53.6813C29.3674 60.5962 36.6477 65.3228 44.9998 65.3228C46.4874 65.3228 47.9387 65.1725 49.3419 64.8881C45.0817 64.0204 41.2767 61.904 38.3171 58.9424C40.453 59.3182 42.6946 59.5163 45 59.5163C52.6109 59.5163 59.6315 57.3321 64.3016 53.6769ZM35.3531 55.2558C34.7454 54.3044 34.2109 53.3025 33.7544 52.2582H61.2791C57.1391 54.9849 51.2637 56.613 45 56.613C41.5972 56.613 38.3103 56.1319 35.3531 55.2558Z" fill="#F5EBCD"/>
<path d="M23.9772 49.3789C24.5215 51.4712 25.7006 53.6724 25.7043 53.6794C28.9564 56.2258 33.407 58.0757 38.3171 58.9425C37.2064 57.8276 36.2025 56.5893 35.3529 55.2558C32.8693 54.5193 30.611 53.5025 28.7217 52.2582H33.7542C33.346 51.3236 32.9985 50.3524 32.7231 49.355H23.9714C23.9739 49.3631 23.9751 49.3708 23.9772 49.3789Z" fill="#F4DBB3"/>
<path d="M77.2158 81.4686L67.4411 78.4141L45 87.4511L22.5589 78.4141L12.7842 81.4686C10.3602 82.2261 8.70978 84.4711 8.70978 87.0106C8.70978 88.6616 10.0482 90 11.6991 90H78.301C79.952 90 81.2904 88.6616 81.2904 87.0106C81.2904 84.471 79.6398 82.2261 77.2158 81.4686Z" fill="#DAD8DB"/>
<path d="M67.4411 78.414L62.139 76.7571C61.9406 76.6951 61.7433 76.6214 61.5556 76.54C57.5619 81.2258 51.6393 84.1935 45 84.1935C38.3608 84.1935 32.4367 81.2265 28.4428 76.5407C28.2551 76.6221 28.0594 76.6951 27.861 76.7571L22.5589 78.414C27.5606 85.4182 35.7372 90 45 90C54.2628 90 62.4394 85.4182 67.4411 78.414Z" fill="#ECEAEC"/>
</g>
<defs>
<clipPath id="clip0">
<rect width="90" height="90" fill="white"/>
</clipPath>
</defs>
</svg>
