<svg width="609" height="405" fill="none" xmlns="http://www.w3.org/2000/svg"><path d="M182.799 69.819c3.234 8.242 15.4 33.367 23.162 49.142v9.391c-8.868-1.252-29.611-3.819-41.63-4.069-12.02-.251-46.117-12.312-58.22-18.155l76.688-36.31z" fill="#CECDCD"/><path d="M205.961 120.839c-4.695-10.12-17.653-35.808-23.162-47.577l14.398-7.2 23.163 54.777h-14.399z" fill="#D8D8D8"/><path d="M246.966 122.091c35.83-1.628 122.387-24.414 193.441-54.15l25.98 79.504 12.207 76.688-67.61 49.769c-31.614 25.041-111.497 83.102-152.437 99.85C196.571 399.106 114.246 424.643 71 368.5 42.5 331.5.5 182.468.5 164c-2-11.5 17.029-54.116 38.626-83.226 10.017-1.565 40.435 12.79 75.123 24.728 48.204 16.589 84.513 18.781 132.717 16.589z" fill="#F1F1F1"/><path d="M161.514 66.689c-20.346 9.39-46.639 19.72-75.749 31.3l20.346 10.956 93.903-42.256c20.659-9.704 54.714-38.313 68.237-47.578 16.902-11.582 34.235-7.636 43.195 2.19 9.703 10.643 11.894 32.241 11.894 45.388 0 10.517-5.634 32.448-6.886 41.317l14.399-4.695c1.043-2.817 3.255-12.02 5.008-21.285 2.191-11.581 6.26-22.85-1.878-51.96S292.978-.609 279.519.956c-13.46 1.565-49.891 25.805-69.802 40.066-23.162 16.59-27.858 16.276-48.203 25.667z" fill="#E2E2E2"/><path d="M209.718 248.548c55.782-5.048 135.533-53.212 253.226-110.493l-2.191-8.764s-28.403 12.263-35.371 15.337c-10.642 4.695-112.949 37.716-129.899 41.318-25.041 5.321-60.316 16.195-121.449 10.955C108.302 191.267 47.056 175.616 0 162.783L12.207 211.3c9.39 6.573 97.693 46.281 197.511 37.248z" fill="#E2E2E2" fill-opacity=".24"/><path d="M35.996 200.97c-10.955-9.703-20.658-21.91-35.683-37.874 0 8.764 7.222 35.988 11.187 48.404l37.5 14 35.826 9.276C80 231 69.614 225.072 65.106 222.568c-5.634-3.13-17.41-11.235-29.11-21.598z" fill="#E6E6E6"/><path d="M191.563 339.008c52.586-5.634 182.172-79.192 276.076-180.294 0 0-31.001 25.589-36.936 30.362-9.064 7.29-99.747 62.248-115.188 70.114-22.81 11.621-52.59 22.106-112.997 32.867-64.951 11.57-129.273-8.765-176.225-32.241l11.894 32.241c10.017 13.146 53.721 57.629 153.376 46.951z" fill="#E2E2E2" fill-opacity=".51"/><path d="M326.158 252.93c9.265-4.257 83.081-52.255 127.842-82.93-24.519 22.432-85.774 71.787-104.053 81.052-16.716 8.472-67.266 22.639-89.651 29.023-4.759 1.729-8.395 2.906-10.2 3.217-2.437.42 1.985-.874 10.2-3.217 19.176-6.966 56.583-22.882 65.862-27.145zm39.439-87.643c18.363-6.156 63.041-21.911 94.843-35.683l1.878 8.138c-6.678 3.234-20.659 9.954-23.163 10.955-2.504 1.002-30.884 15.651-44.761 22.85-11.894 6.469-15.65 9.704-43.821 15.964-20.998 4.666-103.22 9.432-122.912 10.848-1.825.27-3.06.42-3.545.42-1.716 0-.242-.148 3.545-.42 15.034-2.226 70.132-12.583 76.273-13.978 5.509-1.252 43.404-13.251 61.663-19.094zM56.029 290.805C45.074 281.101 39.524 273.464 24.5 257.5c2 9 13.479 39.982 17.444 52.398L84.2 325.549l20.346 7.825 19.406 4.382c-3.443-4.069-31.142-19.807-35.057-23.163-10.955-9.39-21.167-13.426-32.866-23.788z" fill="#E6E6E6"/><path d="M396.898 286.109c10.017-7.011 51.043-29.976 74.102-47.609 11.5-7 28.276-18.256 34.5-22.5 11-7.5 35.07-22.855 42.896-30.68 7.825-7.826 46.638-48.204 56.342-81.696 9.703-33.492 2.191-63.228-15.964-86.704-15.027-19.431-46.777-7.694-61.332-2.314l-.331.123c-14.399 5.32-72.306 41.317-93.903 53.525C411.61 80.46 299.552 115.83 246.34 118.648c-46.439 2.459-87.017-1.565-94.53-2.817-7.512-1.252-34.118-8.138-67.297-21.285-31.792-12.597-41.317-16.902-45.7-13.772C35.308 83.278 26.67 97.118 25 101.5c1.252-1.565 11.179-3.5 16.5-3.5s22.567 6.564 33.5 10.5c12.5 4.5 45.547 16.071 74.5 21.5 40 7.5 103.171 1.939 113.5 1 16-1.455 77.777-13.801 102-21 26.777-7.958 74.232-26.679 85.5-32 16.747-7.908 45.936-28.214 60.647-40.108C525.859 25.997 550.35 20.402 562 25c7.462 2.945 16.38 7.26 24.5 23.5 9.703 19.407 4.585 57.523-3.5 73-10.955 20.972-49.5 57.879-63.5 68.5-7.262 5.509-21 16.12-32.5 24-5.634 3.86-18 11-28.5 17.332-7.242 4.368-35.5 22.668-87 59.168-7.817 5.54-85 56.5-104 67.5-14.236 8.242-80 34-98 37.5-17.29 3.362-41.405 3.687-48.5 4 1.356.73 25.114 4.928 31.123 4.928 7.513 0 19.992-1.244 28.171-2.191 16.206-1.879 76.064-26.938 93.278-35.371C308 350 384.378 294.874 396.898 286.109z" fill="#D7D7D7"/><path d="M465.007 140.66c-2.642-11.009-13.461-40.344-20.507-60.16l-20 6c.587.88 3.782 7.219 4.839 9.684 1.321 3.083 13.21 34.788 17.173 44.476 3.963 9.687 8.367 29.943 11.009 44.475 2.114 11.625 3.816 35.961 4.403 46.676 5.431-3.376 16.205-10.656 15.853-12.77-.44-2.642-3.963-28.182-5.284-39.191-1.321-11.008-4.844-28.182-7.486-39.19z" fill="#D8D8D8"/></svg>