<svg width="116" height="116" viewBox="0 0 116 116" fill="none" xmlns="http://www.w3.org/2000/svg">
<path d="M72.5445 97.7765V105.019C72.5445 109.96 69.2174 114.274 64.4486 115.525C62.8636 116.052 64.6274 115.883 10.9825 115.883C4.9915 115.883 0.1186 111.01 0.1186 105.019C0.1186 97.3999 0.0742396 97.236 0.240819 96.1537C1.02279 90.9492 5.52383 86.9126 10.9825 86.9126H61.6806C67.6716 86.9126 72.5445 91.7855 72.5445 97.7765Z" fill="#FFE773"/>
<path d="M25.1417 115.885C20.9161 115.883 16.2153 115.883 10.9825 115.883C4.9915 115.883 0.1186 111.01 0.1186 105.019C0.1186 97.4 0.0742397 97.2361 0.240819 96.1538C1.3521 97.0704 2.33438 98.1546 3.11748 99.0712C7.77311 104.519 8.434 105.671 15.5249 107.067C17.6864 107.495 19.8931 107.941 21.7966 109.052C24.9992 110.924 25.8886 114.011 25.1417 115.885Z" fill="#FFEC8F"/>
<path d="M25.2185 115.999C22.2148 115.999 26.0821 115.996 10.9825 115.996C4.92972 115.996 0.00543728 111.072 0.00543728 105.019C0.00543728 96.8294 -0.0443555 97.2628 0.159342 95.9399C1.30684 96.886 2.14517 97.759 3.20372 98.9977C7.82517 104.421 8.53268 105.575 15.5469 106.957C17.6923 107.381 19.9108 107.82 21.8538 108.955C25.103 110.854 26.0394 113.941 25.2185 115.999ZM0.323885 96.3709C0.198724 97.3088 0.231542 97.1008 0.231542 105.019C0.231542 110.947 5.05443 115.77 10.9823 115.77C16.1831 115.77 20.8582 115.77 25.0639 115.772C25.7682 113.868 24.73 110.898 21.7393 109.15C19.8291 108.035 17.6298 107.599 15.5028 107.178C8.41838 105.783 7.70318 104.625 3.03125 99.1448C2.33393 98.3282 1.40416 97.2864 0.323885 96.3709Z" fill="#FFEC8F"/>
<path d="M72.5445 97.7768V105.019C72.5445 109.96 69.2174 114.274 64.4486 115.526C63.3014 115.907 62.9318 115.895 52.435 115.895C49.3071 113.095 46.4802 109.962 44.0087 106.558C32.8053 91.1363 16.7358 88.968 11.7543 87.2909C13.7405 86.7509 10.4601 86.9129 61.6806 86.9129C67.6716 86.9129 72.5445 91.7858 72.5445 97.7768Z" fill="#EFD66C"/>
<path d="M83.4084 76.0489V83.2915C83.4084 88.2323 80.0813 92.5462 75.3125 93.7978C73.7841 94.3059 75.8824 94.1554 21.8464 94.1554C15.8728 94.1554 10.9825 89.2997 10.9825 83.2915C10.9825 75.4231 10.977 75.8756 10.9961 75.4809C11.2925 69.7524 16.0455 65.1851 21.8464 65.1851H72.5445C78.5355 65.1851 83.4084 70.058 83.4084 76.0489Z" fill="#FFE773"/>
<path d="M35.3221 94.1576C31.2753 94.1553 26.7985 94.1553 21.8464 94.1553C16.6091 94.1553 12.2273 90.4322 11.2065 85.4937C11.9331 85.5525 12.689 85.7811 13.3816 85.9848C23.2722 88.8931 32.8392 88.1666 35.5167 92.2406C35.9626 92.9196 35.949 93.3768 35.3221 94.1576Z" fill="#FFEC8F"/>
<path d="M35.3764 94.271C32.6014 94.271 36.136 94.2687 21.8464 94.2687C16.8911 94.2687 12.1977 90.8593 11.0653 85.3691C13.6917 85.5812 12.4441 86.2376 24.1391 88.0715C29.6039 88.9284 33.9202 89.6054 35.6114 92.1785C36.1494 92.9979 35.9853 93.5132 35.3764 94.271ZM11.3496 85.6215C12.4337 90.5102 16.8234 94.0424 21.8464 94.0424C26.7761 94.0424 31.235 94.0424 35.2676 94.0446C35.8155 93.3484 35.8479 92.951 35.4222 92.303C33.786 89.8136 29.5133 89.1437 24.104 88.2952C13.0573 86.5633 13.5131 85.8637 11.3496 85.6215Z" fill="#FFEC8F"/>
<path d="M83.4084 76.0489V83.2915C83.4084 88.2323 80.0813 92.5462 75.3125 93.7978C73.9142 94.2627 75.2856 94.1726 37.3048 94.1577C34.6159 84.5658 26.7668 78.2602 17.752 77.0538C15.2126 76.7166 12.8701 76.2164 10.9961 75.4809C11.2925 69.7524 16.0455 65.1851 21.8464 65.1851H72.5445C78.5355 65.1851 83.4084 70.058 83.4084 76.0489Z" fill="#EFD66C"/>
<path d="M76.1658 54.3209V61.5635C76.1658 66.5043 72.8387 70.8182 68.0699 72.0698C66.5397 72.5786 68.5454 72.4274 14.6038 72.4274C8.61279 72.4274 3.73989 67.5545 3.73989 61.5635V54.3209C3.73989 48.3116 8.63181 43.457 14.6038 43.457H65.3019C71.2929 43.457 76.1658 48.3299 76.1658 54.3209Z" fill="#FFE773"/>
<path d="M29.2881 72.4298C24.9267 72.4298 20.0538 72.4276 14.6038 72.4276C8.6128 72.4276 3.73989 67.5547 3.73989 61.5637C3.73989 52.0247 3.65954 52.6788 4.19255 52.2524C5.42153 53.2143 6.50566 54.4071 7.35666 55.403C12.0145 60.8508 12.6732 62.0028 19.7641 63.3992C21.9256 63.827 24.1323 64.2729 26.0357 65.3842C29.3651 67.3283 30.1934 70.583 29.2881 72.4298Z" fill="#FFEC8F"/>
<path d="M29.3585 72.5426L14.6038 72.5404C8.55101 72.5404 3.62673 67.6161 3.62673 61.5633C3.62673 51.6093 3.53552 52.6325 4.19188 52.1079C5.42606 53.0766 6.40517 54.115 7.44267 55.3291C12.0698 60.7544 12.7732 61.9069 19.7861 63.288C21.8314 63.6927 24.1493 64.1512 26.0928 65.286C29.447 67.2447 30.3324 70.5534 29.3585 72.5426ZM3.85306 61.5633C3.85306 67.4912 8.67594 72.314 14.6038 72.314L29.2166 72.3163C30.0855 70.4303 29.1075 67.3087 25.9787 65.4816C24.068 64.366 21.8688 63.9308 19.7422 63.51C12.6485 62.1131 11.9371 60.9475 7.27066 55.4764C6.4794 54.5502 5.41836 53.3688 4.19301 52.3969C3.80191 52.7104 3.85306 52.2876 3.85306 61.5633Z" fill="#FFEC8F"/>
<path d="M76.1657 54.3209V61.5635C76.1657 66.5043 72.8387 70.8182 68.0699 72.0698C66.6979 72.5261 67.8022 72.4475 33.2783 72.4296C36.1754 59.4496 28.9237 47.5853 17.8924 44.2288C16.8014 43.8984 16.041 43.6562 15.5159 43.457H65.3019C71.2928 43.457 76.1657 48.3299 76.1657 54.3209Z" fill="#EFD66C"/>
<path d="M83.4083 32.5934V39.836C83.4083 44.7768 80.0813 49.0906 75.3125 50.3422C73.7972 50.846 76.35 50.6998 21.8464 50.6998C15.8554 50.6998 10.9825 45.8269 10.9825 39.836C10.9825 31.9945 10.9757 32.3935 10.9983 32.0004C11.3061 26.2855 16.0546 21.7295 21.8464 21.7295H72.5445C78.5354 21.7295 83.4083 26.6024 83.4083 32.5934Z" fill="#FFE773"/>
<path d="M42.466 43.1625C38.6082 37.2876 28.6019 38.4412 18.3276 35.4208C15.3122 34.5327 15.1058 34.7434 10.9823 34.9349C10.9823 40.2921 10.8109 41.69 11.8701 44.1427C13.5918 48.1261 17.5076 50.7 21.8461 50.7H40.9654C42.1315 49.2562 44.763 46.6552 42.466 43.1625Z" fill="#FFEC8F"/>
<path d="M83.4084 32.5934V39.836C83.4084 44.7768 80.0813 49.0906 75.3125 50.3422C73.9086 50.8089 74.3511 50.6998 47.4489 50.6998C47.6752 50.4599 47.9038 50.2223 48.1347 49.9892C53.123 44.8967 50.5044 35.0966 43.9679 34.6032C31.0241 33.6254 18.1594 35.6918 10.9983 32.0004C11.3061 26.2855 16.0546 21.7295 21.8464 21.7295H72.5445C78.5355 21.7295 83.4084 26.6024 83.4084 32.5934Z" fill="#EFD66C"/>
<path d="M72.5446 10.8658V18.1084C72.5446 24.0994 67.6717 28.9723 61.6807 28.9723H10.9826C6.64382 28.9723 2.7283 26.3989 1.00592 22.4155C-0.0892936 19.8697 0.118705 18.7913 0.118705 10.8658C0.118705 4.87486 4.99161 0.00195312 10.9826 0.00195312H61.6807C67.6717 0.00195312 72.5446 4.87486 72.5446 10.8658Z" fill="#FFE773"/>
<path d="M52.1612 0.00195312C46.5962 6.82357 44.8148 9.99288 37.676 12.217C26.4844 15.7077 8.85213 15.0654 6.06894 17.4045L0.777326 21.8519C-0.0630402 19.6534 0.118703 18.1213 0.118703 10.8658C0.118703 4.87486 4.99161 0.00195312 10.9826 0.00195312H52.1612Z" fill="#FFEC8F"/>
<path d="M116 77.8595C116 103.649 90.8578 121.881 66.4222 114.095C51.0725 109.204 39.9528 94.8298 39.9528 77.8595C39.9528 56.8605 56.9774 39.8359 77.9764 39.8359C98.9281 39.8359 116 56.8135 116 77.8595Z" fill="#FFE773"/>
<path d="M47.1954 81.4807C47.1954 94.9293 54.1777 106.746 64.7134 113.507C50.2531 108.122 39.9528 94.1937 39.9528 77.8594C39.9528 47.5365 73.5684 29.8408 98.482 45.8336C73.7327 36.6203 47.1954 54.9427 47.1954 81.4807Z" fill="#FFEC8F"/>
<path d="M77.9764 54.3208H65.3019C63.302 54.3208 61.6806 55.942 61.6806 57.9421V94.155C61.6806 96.1551 63.302 97.7763 65.3019 97.7763C67.3017 97.7763 68.9232 96.1551 68.9232 94.155V90.5337H76.1658C78.1656 90.5337 79.7871 88.9125 79.7871 86.9124C79.7871 84.9124 78.1656 83.2911 76.1658 83.2911H68.9232V79.6699H77.9764C84.965 79.6699 90.6509 73.9842 90.6509 66.9953C90.6509 60.0065 84.965 54.3208 77.9764 54.3208ZM77.9764 72.4273H68.9232V61.5634H77.9764C80.9714 61.5634 83.4083 64.0003 83.4083 66.9953C83.4083 69.9904 80.9714 72.4273 77.9764 72.4273Z" fill="#EFD66C"/>
<path d="M116 77.8595C116 103.65 90.8578 121.881 66.4222 114.095C73.8137 94.0607 84.5131 64.6524 92.6359 42.7646C106.358 48.5044 116 62.0571 116 77.8595Z" fill="#EFD66C"/>
<path d="M86.9776 58.0825C86.9312 58.2088 80.2646 76.3705 79.0741 79.6224C89.6985 78.7053 94.5416 65.7144 86.9776 58.0825ZM77.6165 83.5945C76.761 85.9325 75.91 88.2524 75.0749 90.5338H76.1658C80.0788 90.5338 81.1917 85.1576 77.6165 83.5945Z" fill="#D1BB5E"/>
</svg>
