<svg width="15" height="11" fill="none" xmlns="http://www.w3.org/2000/svg"><g clip-path="url(#clip0)" opacity=".7"><path d="M6.915 8.556L.24 3.66C.085 3.547 0 3.396 0 3.235c0-.161.085-.312.24-.425l.491-.36c.32-.235.84-.235 1.16 0l5.606 4.11 5.611-4.115a.985.985 0 01.58-.176c.22 0 .426.062.581.176l.491.36c.155.113.24.264.24.426a.53.53 0 01-.24.425l-6.68 4.9a.987.987 0 01-.583.175.986.986 0 01-.582-.175z" fill="#fff"/></g><defs><clipPath id="clip0"><path transform="matrix(0 1 1 0 0 0)" fill="#fff" d="M0 0h11v15H0z"/></clipPath></defs></svg>