<svg width="41" height="41" fill="none" xmlns="http://www.w3.org/2000/svg"><g clip-path="url(#clip0)"><path d="M32.526 4.992c-6.656-6.656-17.407-6.656-23.977 0a16.892 16.892 0 000 23.977L20.495 41 32.44 29.054c6.655-6.655 6.655-17.407.085-24.062z" fill="#F3705B"/><path d="M20.495 5.674c-6.23 0-11.349 5.035-11.349 11.349 0 6.229 5.034 11.349 11.349 11.349 6.229 0 11.348-5.035 11.348-11.35 0-6.313-5.12-11.348-11.348-11.348z" fill="#F3F3F3"/><path d="M20.495 9.002l-6.4 6.314v9.13h12.8v-9.13l-6.4-6.314z" fill="#FFD15D"/><path d="M22.713 19.327h-4.352v5.12h4.352v-5.12zm5.802-3.669l-7.338-7.339c-.341-.34-.938-.34-1.365 0l-7.338 7.339c-.341.341-.341.938 0 1.365.341.341.938.341 1.365 0l6.656-6.741 6.655 6.655c.17.171.427.256.683.256.256 0 .512-.085.682-.256a.928.928 0 000-1.28z" fill="#435B6C"/></g><defs><clipPath id="clip0"><path fill="#fff" d="M0 0h41v41H0z"/></clipPath></defs></svg>