<svg width="11" height="11" fill="none" xmlns="http://www.w3.org/2000/svg"><g clip-path="url(#clip0)"><path d="M10.997 5.04c.04.52-.326.982-.817 1.031a.87.87 0 01-.873-.513l-.445.04-.337.162a.254.254 0 00-.14.195c-.032.227-.09.447-.17.655a.253.253 0 00.015.215l.12.214.333.224a.598.598 0 11-.379.642l-.37-.247-.232-.029a.268.268 0 00-.217.074 3.008 3.008 0 01-.659.475.265.265 0 00-.138.218l-.03.47.146.58a.744.744 0 11-.72.186l-.148-.584-.226-.364a.332.332 0 00-.284-.156h-.002c-.199 0-.393-.02-.58-.056a.332.332 0 00-.307.096l-.3.316-.335.696a.599.599 0 11-.673-.319l.338-.7.066-.47a.25.25 0 00-.089-.23 3.017 3.017 0 01-.679-.778.25.25 0 00-.211-.119l-.47-.004-.514.161a.838.838 0 11-.254-.7l.545-.171.398-.284a.205.205 0 00.085-.185 2.963 2.963 0 01.262-1.487.204.204 0 00-.002-.175l-.118-.24-.32-.243a.598.598 0 11.414-.62l.355.268.357.064c.26-.242.564-.438.898-.575l.084-.51-.106-.528a.86.86 0 01-.637-.641C3.534.64 3.845.2 4.326.109c.48-.091.949.202 1.045.655a.815.815 0 01-.368.854l.1.498.246.392a.088.088 0 00.075.041c.563 0 1.09.157 1.54.429a.087.087 0 00.082.004l.385-.178.45-.487a.598.598 0 011.025-.505.598.598 0 01-.48 1.01l-.449.487-.146.393a.087.087 0 00.011.081c.178.243.32.514.417.805.027.08.09.143.172.165l.365.103.475-.042a.918.918 0 01.764-.626c.491-.05.922.333.962.852z" fill="#EE938D"/><path d="M5.424 7.752a2.214 2.214 0 100-4.427 2.214 2.214 0 000 4.427z" fill="#F3A5A5"/><path d="M3.885 5.539c0-1.108.814-2.026 1.877-2.189a2.214 2.214 0 100 4.377 2.214 2.214 0 01-1.877-2.188z" fill="#DB7D77"/><path d="M1.7 1.514a.63.63 0 100-1.26.63.63 0 000 1.26zM1.527 9.61a.416.416 0 100-.833.416.416 0 000 .833zm7.645.881a.613.613 0 100-1.227.613.613 0 000 1.227z" fill="#EB6755"/><path d="M4.745 5.5a.572.572 0 100-1.144.572.572 0 000 1.144zm.459 1.593a.39.39 0 100-.778.39.39 0 000 .778zm1.222-1.227a.327.327 0 100-.654.327.327 0 000 .654z" fill="#BB5D57"/></g><defs><clipPath id="clip0"><path fill="#fff" d="M0 0h11v11H0z"/></clipPath></defs></svg>