<svg width="21" height="21" fill="none" xmlns="http://www.w3.org/2000/svg"><g clip-path="url(#clip0)" fill="#fff" opacity=".7"><path d="M20.592 16.698l-2.328-1.552-2.07-1.38a.917.917 0 00-1.23.2l-1.281 1.647a.912.912 0 01-1.165.241c-.869-.483-1.896-.938-4.163-3.208-2.268-2.27-2.726-3.295-3.209-4.164a.912.912 0 01.242-1.164l1.646-1.28a.917.917 0 00.2-1.232L5.897 2.8 4.302.408A.917.917 0 003.068.131l-1.84 1.103a2.247 2.247 0 00-1.02 1.32c-.502 1.834-.604 5.878 5.878 12.36 6.482 6.482 10.527 6.38 12.36 5.878a2.247 2.247 0 001.32-1.02l1.104-1.84a.917.917 0 00-.278-1.234zM11.948 3.259a6.162 6.162 0 016.155 6.155.362.362 0 00.724 0 6.887 6.887 0 00-6.879-6.88.362.362 0 000 .725z"/><path d="M11.948 5.43a3.987 3.987 0 013.983 3.983.362.362 0 00.724 0 4.712 4.712 0 00-4.707-4.706.362.362 0 100 .724z"/><path d="M11.948 7.604c1 0 1.81.81 1.81 1.81a.362.362 0 00.725 0 2.537 2.537 0 00-2.535-2.535.362.362 0 000 .725z"/></g><defs><clipPath id="clip0"><path fill="#fff" d="M0 0h21v21H0z"/></clipPath></defs></svg>