<svg width="116" height="116" fill="none" xmlns="http://www.w3.org/2000/svg"><path d="M72.544 97.776v7.243c0 4.941-3.327 9.255-8.095 10.506-1.585.527.178.358-53.466.358-5.992 0-10.864-4.873-10.864-10.864 0-7.62-.045-7.783.122-8.865.782-5.205 5.283-9.241 10.742-9.241H61.68c5.99 0 10.864 4.873 10.864 10.864z" fill="#FFE773"/><path d="M25.142 115.885c-4.226-.002-8.927-.002-14.16-.002-5.99 0-10.863-4.873-10.863-10.864 0-7.619-.045-7.783.122-8.865 1.111.916 2.093 2 2.876 2.917 4.656 5.448 5.317 6.6 12.408 7.996 2.161.428 4.368.874 6.272 1.985 3.202 1.872 4.092 4.959 3.345 6.833z" fill="#FFEC8F"/><path d="M25.218 115.999c-3.003 0 .864-.003-14.236-.003-6.052 0-10.977-4.924-10.977-10.977 0-8.19-.05-7.756.154-9.08 1.148.947 1.986 1.82 3.045 3.059 4.621 5.423 5.329 6.577 12.343 7.959 2.145.424 4.364.863 6.307 1.998 3.249 1.899 4.185 4.986 3.364 7.044zM.325 96.371c-.125.938-.092.73-.092 8.648 0 5.928 4.822 10.751 10.75 10.751 5.201 0 9.876 0 14.082.002.704-1.904-.334-4.874-3.325-6.622-1.91-1.115-4.11-1.551-6.236-1.972-7.085-1.395-7.8-2.553-12.472-8.033-.697-.817-1.627-1.859-2.707-2.774z" fill="#FFEC8F"/><path d="M72.544 97.777v7.242c0 4.941-3.327 9.255-8.095 10.507-1.148.381-1.517.369-12.014.369a59.28 59.28 0 01-8.426-9.337c-11.204-15.422-27.273-17.59-32.255-19.267 1.987-.54-1.294-.378 49.927-.378 5.99 0 10.864 4.873 10.864 10.864z" fill="#EFD66C"/><path d="M83.408 76.049v7.242c0 4.941-3.327 9.255-8.096 10.507-1.528.508.57.357-53.466.357-5.973 0-10.864-4.855-10.864-10.864 0-7.868-.005-7.415.014-7.81.296-5.729 5.05-10.296 10.85-10.296h50.698c5.992 0 10.864 4.873 10.864 10.864z" fill="#FFE773"/><path d="M35.322 94.158c-4.047-.003-8.524-.003-13.476-.003-5.237 0-9.619-3.723-10.64-8.661.727.058 1.483.287 2.176.49 9.89 2.91 19.457 2.183 22.135 6.257.446.679.432 1.136-.195 1.917z" fill="#FFEC8F"/><path d="M35.376 94.271c-2.775 0 .76-.002-13.53-.002-4.955 0-9.648-3.41-10.78-8.9 2.626.212 1.378.869 13.073 2.703 5.465.856 9.781 1.533 11.472 4.106.538.82.374 1.335-.235 2.093zm-24.026-8.65c1.084 4.89 5.473 8.421 10.496 8.421 4.93 0 9.389 0 13.422.003.547-.697.58-1.094.154-1.742-1.636-2.49-5.909-3.16-11.318-4.008-11.047-1.732-10.59-2.431-12.754-2.674z" fill="#FFEC8F"/><path d="M83.408 76.049v7.242c0 4.941-3.327 9.255-8.096 10.507-1.398.465-.026.375-38.007.36-2.69-9.592-10.538-15.898-19.553-17.104-2.54-.337-4.882-.838-6.756-1.573.296-5.729 5.05-10.296 10.85-10.296h50.698c5.992 0 10.864 4.873 10.864 10.864z" fill="#EFD66C"/><path d="M76.166 54.32v7.243c0 4.941-3.327 9.255-8.096 10.507-1.53.509.475.357-53.466.357-5.991 0-10.864-4.873-10.864-10.864v-7.242c0-6.01 4.892-10.864 10.864-10.864h50.698c5.99 0 10.864 4.873 10.864 10.864z" fill="#FFE773"/><path d="M29.288 72.43l-14.684-.002c-5.991 0-10.864-4.873-10.864-10.864 0-9.54-.08-8.885.453-9.312 1.229.962 2.313 2.155 3.164 3.151 4.657 5.448 5.316 6.6 12.407 7.996 2.162.428 4.368.874 6.272 1.985 3.33 1.944 4.157 5.199 3.252 7.046z" fill="#FFEC8F"/><path d="M29.358 72.543l-14.754-.003c-6.053 0-10.977-4.924-10.977-10.977 0-9.954-.091-8.93.565-9.455 1.234.969 2.213 2.007 3.25 3.221 4.628 5.425 5.331 6.578 12.344 7.959 2.045.405 4.363.863 6.307 1.998 3.354 1.959 4.24 5.267 3.265 7.257zM3.854 61.563c0 5.928 4.823 10.751 10.75 10.751l14.614.002c.869-1.886-.11-5.007-3.238-6.834-1.911-1.116-4.11-1.551-6.237-1.972-7.094-1.397-7.805-2.563-12.471-8.034-.792-.926-1.853-2.107-3.078-3.08-.391.314-.34-.108-.34 9.167z" fill="#FFEC8F"/><path d="M76.166 54.32v7.243c0 4.941-3.327 9.255-8.096 10.507-1.372.456-.268.378-34.792.36 2.897-12.98-4.354-24.845-15.386-28.201-1.09-.33-1.851-.573-2.376-.772h49.786c5.99 0 10.864 4.873 10.864 10.864z" fill="#EFD66C"/><path d="M83.408 32.593v7.243c0 4.94-3.327 9.255-8.096 10.506-1.515.504 1.038.358-53.466.358-5.99 0-10.864-4.873-10.864-10.864 0-7.841-.006-7.442.016-7.836.308-5.715 5.057-10.27 10.848-10.27h50.698c5.991 0 10.864 4.872 10.864 10.863z" fill="#FFE773"/><path d="M42.466 43.163c-3.858-5.875-13.864-4.722-24.138-7.742-3.016-.888-3.222-.678-7.346-.486 0 5.357-.171 6.755.888 9.208a10.861 10.861 0 009.976 6.557h19.12c1.166-1.444 3.797-4.045 1.5-7.538z" fill="#FFEC8F"/><path d="M83.408 32.593v7.243c0 4.94-3.327 9.255-8.096 10.506-1.403.467-.96.358-27.863.358.226-.24.455-.478.686-.71 4.988-5.093 2.37-14.893-4.167-15.387-12.944-.978-25.809 1.089-32.97-2.603.308-5.715 5.057-10.27 10.848-10.27h50.698c5.992 0 10.864 4.872 10.864 10.863z" fill="#EFD66C"/><path d="M72.545 10.866v7.242c0 5.991-4.873 10.864-10.864 10.864H10.983a10.862 10.862 0 01-9.977-6.556C-.09 19.87.119 18.79.119 10.866.119 4.875 4.992.002 10.983.002H61.68c5.99 0 10.864 4.873 10.864 10.864z" fill="#FFE773"/><path d="M52.161.002c-5.565 6.822-7.346 9.99-14.485 12.215-11.192 3.49-28.824 2.848-31.607 5.187L.777 21.852c-.84-2.199-.658-3.73-.658-10.986C.119 4.875 4.992.002 10.983.002H52.16z" fill="#FFEC8F"/><path d="M116 77.86c0 25.789-25.142 44.021-49.578 36.235-15.35-4.891-26.47-19.265-26.47-36.236 0-20.998 17.025-38.023 38.024-38.023C98.928 39.836 116 56.813 116 77.859z" fill="#FFE773"/><path d="M47.195 81.48c0 13.45 6.983 25.266 17.518 32.027-14.46-5.385-24.76-19.313-24.76-35.648 0-30.322 33.615-48.018 58.529-32.025-24.75-9.214-51.287 9.109-51.287 35.647z" fill="#FFEC8F"/><path d="M77.976 54.32H65.302c-2 0-3.621 1.622-3.621 3.622v36.213a3.621 3.621 0 107.242 0v-3.621h7.243a3.621 3.621 0 000-7.243h-7.243V79.67h9.053c6.989 0 12.675-5.686 12.675-12.675 0-6.989-5.686-12.674-12.675-12.674zm0 18.107h-9.053V61.563h9.053a5.438 5.438 0 015.432 5.432 5.438 5.438 0 01-5.432 5.432z" fill="#EFD66C"/><path d="M116 77.86c0 25.79-25.142 44.021-49.578 36.235 7.392-20.034 18.091-49.443 26.214-71.33C106.358 48.505 116 62.057 116 77.859z" fill="#EFD66C"/><path d="M86.978 58.083c-.047.126-6.713 18.288-7.904 21.54 10.624-.918 15.468-13.909 7.904-21.54zm-9.361 25.511l-2.542 6.94h1.09c3.914 0 5.027-5.376 1.451-6.94z" fill="#D1BB5E"/></svg>