<svg width="90" height="90" fill="none" xmlns="http://www.w3.org/2000/svg"><path d="M63.434 71.694l8.11-8.06-6.474-6.515-8.11 8.06 6.474 6.515z" fill="#334A5E"/><path d="M63.148 10.849C48.714-3.585 25.47-3.585 11.036 10.661-3.397 24.909-3.397 48.34 10.85 62.773c14.246 14.434 37.678 14.434 52.111.187 14.434-14.246 14.434-37.677.188-52.111z" fill="#40596B"/><path d="M16.472 57.15C5.225 45.901 5.225 27.531 16.66 16.284c11.247-11.247 29.617-11.247 40.864.187 11.247 11.247 11.247 29.618-.187 40.865-11.247 11.247-29.618 11.247-40.865-.188z" fill="#F2F2F2"/><path d="M54.337 54.337c-9.56 9.373-25.305 9.373-34.678-.187-9.56-9.56-9.56-25.118.188-34.678 9.747-9.56 24.93-9.56 34.49 0 9.56 9.747 9.56 25.306 0 34.865z" fill="#54C0EB"/><path d="M48.339 48.339c-6.186 6.186-16.308 6.186-22.682 0-6.186-6.186-6.186-16.308 0-22.682 6.186-6.186 16.309-6.186 22.682 0 6.373 6.374 6.373 16.496 0 22.682z" fill="#40596B"/><path d="M86.579 71.208L74.957 59.586c-.75-.75-1.874-.75-2.624 0L59.399 72.52c-.75.75-.75 1.875 0 2.624L71.02 86.766a10.974 10.974 0 0015.558 0 10.974 10.974 0 000-15.558z" fill="#CEADA7"/><path d="M29.594 31.281a5.061 5.061 0 100-10.122 5.061 5.061 0 000 10.122zm6.748 4.499a3 3 0 100-5.999 3 3 0 000 5.999z" fill="#fff"/></svg>